{"glyphs":{"0":{"ha":697,"x_min":0,"x_max":0,"o":"m 344 -17 b 678 485 514 -17 678 133 b 350 979 678 815 525 979 b 19 471 204 979 19 844 b 344 -17 19 140 158 -17 z m 349 22 b 275 489 292 22 275 110 b 349 940 275 876 301 940 b 422 467 401 940 422 869 b 349 22 422 119 408 22 z "},"1":{"ha":413,"x_min":0,"x_max":0,"o":"m 331 967 l 311 972 b 10 793 246 882 140 825 l 10 772 l 83 744 l 83 143 b 32 31 83 53 76 51 l 8 19 l 8 0 l 403 0 l 403 21 l 378 32 b 331 143 335 51 331 53 z "},"2":{"ha":572,"x_min":0,"x_max":0,"o":"m 268 979 b 21 817 108 979 21 900 b 115 724 21 757 54 724 b 218 864 186 724 213 767 b 256 939 221 917 229 939 b 317 764 299 939 317 883 b 203 378 317 604 294 507 b 10 138 157 314 89 225 l 10 0 l 532 0 l 546 300 l 524 300 b 440 190 494 200 488 190 l 113 190 l 113 196 b 558 719 386 364 558 478 b 268 979 558 885 453 979 z "},"3":{"ha":569,"x_min":0,"x_max":0,"o":"m 242 -17 b 553 281 460 -17 553 131 b 340 515 553 431 471 506 l 340 519 b 525 756 475 557 525 642 b 265 979 525 900 438 979 b 31 829 99 979 31 906 b 119 744 31 774 65 744 b 221 890 179 744 211 771 b 251 939 224 926 231 939 b 294 746 286 939 294 875 b 193 525 294 571 269 525 l 153 525 l 153 481 l 197 481 b 296 274 272 481 296 453 b 232 24 296 115 281 24 b 199 83 207 24 204 33 b 101 229 188 196 161 229 b 4 136 44 229 4 196 b 242 -17 4 47 72 -17 z "},"4":{"ha":625,"x_min":0,"x_max":0,"o":"m 604 0 l 604 21 l 576 32 b 529 143 535 49 529 53 l 529 271 l 615 271 l 622 365 l 529 365 l 529 963 l 353 963 l 25 353 l 25 271 l 294 271 l 294 143 b 244 31 294 53 289 50 l 218 19 l 218 0 z m 294 365 l 82 365 l 82 369 l 292 761 l 294 761 z "},"5":{"ha":535,"x_min":0,"x_max":0,"o":"m 242 24 b 206 78 217 24 211 36 b 101 221 190 194 164 221 b 13 128 44 221 13 182 b 226 -17 13 43 78 -17 b 515 325 413 -17 515 143 b 264 617 515 511 424 617 b 104 582 194 617 142 601 l 121 782 l 474 782 l 494 1032 l 474 1032 b 404 963 450 972 440 963 l 94 963 l 46 407 l 67 394 b 179 422 96 410 133 422 b 311 218 272 422 311 353 b 242 24 311 83 283 24 z "},"6":{"ha":643,"x_min":0,"x_max":0,"o":"m 369 939 b 404 869 393 939 399 922 b 499 756 414 786 438 756 b 597 844 561 756 597 789 b 393 979 597 921 533 979 b 19 447 194 979 19 835 b 325 -17 19 110 164 -17 b 629 307 535 -17 629 122 b 424 575 629 494 551 575 b 271 526 351 575 303 547 b 369 939 271 851 313 939 z m 338 24 b 271 367 286 24 271 129 l 271 490 b 315 499 288 496 294 499 b 393 293 367 499 393 456 b 338 24 393 101 378 24 z "},"7":{"ha":524,"x_min":0,"x_max":0,"o":"m 83 0 l 344 0 b 514 838 340 311 365 561 l 514 963 l 31 963 l 15 654 l 39 654 b 128 774 69 757 79 774 l 447 774 b 83 0 256 572 118 318 z "},"8":{"ha":608,"x_min":0,"x_max":0,"o":"m 11 213 b 285 -17 11 74 110 -17 b 599 307 475 -17 599 125 b 414 578 599 442 526 515 l 414 581 b 569 782 493 610 569 671 b 333 979 569 913 458 979 b 42 693 167 979 42 874 b 190 432 42 583 88 494 l 190 428 b 11 213 90 394 11 325 z m 213 807 b 324 940 213 889 254 940 b 417 775 383 940 417 883 b 381 597 417 682 401 632 b 213 807 261 672 213 717 z m 181 218 b 221 411 181 306 199 371 b 422 172 385 313 422 275 b 306 24 422 78 375 24 b 181 218 217 24 181 101 z "},"9":{"ha":643,"x_min":0,"x_max":0,"o":"m 318 979 b 14 657 108 979 14 842 b 229 388 14 465 104 388 b 372 436 292 388 344 414 b 272 24 372 111 329 24 b 228 89 244 24 233 36 b 128 214 219 169 196 214 b 31 124 64 214 31 174 b 249 -17 31 36 106 -17 b 624 515 449 -17 624 128 b 318 979 624 853 479 979 z m 310 939 b 372 596 360 939 372 833 l 372 472 b 328 464 356 467 349 464 b 250 671 276 464 250 508 b 310 939 250 885 267 939 z "},"\r":{"ha":178,"x_min":0,"x_max":0,"o":""}," ":{"ha":178,"x_min":0,"x_max":0,"o":""}," ":{"ha":178,"x_min":0,"x_max":0,"o":""}," ":{"ha":71,"x_min":0,"x_max":0,"o":""},"A":{"ha":703,"x_min":0,"x_max":0,"o":"m -4 0 l 192 0 l 192 22 l 169 32 b 119 97 132 49 119 64 b 142 221 119 131 129 168 l 164 313 l 326 313 l 344 218 b 363 92 353 176 363 117 b 319 32 363 58 349 43 l 293 22 l 293 0 l 694 0 l 694 22 l 682 28 b 614 194 653 40 643 71 l 429 963 l 278 963 l 85 194 b 8 28 50 54 42 43 l -4 22 z m 254 683 l 258 683 l 319 353 l 174 353 z "},"À":{"ha":703,"x_min":0,"x_max":0,"o":"m 478 999 l 483 1011 l 382 1131 b 278 1199 354 1164 325 1199 b 197 1106 225 1199 197 1156 b 300 1017 197 1051 235 1024 z m -4 0 l 192 0 l 192 22 l 169 32 b 119 97 132 49 119 64 b 142 221 119 131 129 168 l 164 313 l 326 313 l 344 218 b 363 92 353 176 363 117 b 319 32 363 58 349 43 l 293 22 l 293 0 l 694 0 l 694 22 l 682 28 b 614 194 653 40 643 71 l 429 963 l 278 963 l 85 194 b 8 28 50 54 42 43 l -4 22 z m 254 683 l 258 683 l 319 353 l 174 353 z "},"Á":{"ha":703,"x_min":0,"x_max":0,"o":"m 240 999 l 418 1017 b 521 1106 483 1024 521 1054 b 440 1199 521 1158 493 1199 b 336 1131 393 1199 364 1164 l 235 1011 z m -4 0 l 192 0 l 192 22 l 169 32 b 119 97 132 49 119 64 b 142 221 119 131 129 168 l 164 313 l 326 313 l 344 218 b 363 92 353 176 363 117 b 319 32 363 58 349 43 l 293 22 l 293 0 l 694 0 l 694 22 l 682 28 b 614 194 653 40 643 71 l 429 963 l 278 963 l 85 194 b 8 28 50 54 42 43 l -4 22 z m 254 683 l 258 683 l 319 353 l 174 353 z "},"Â":{"ha":703,"x_min":0,"x_max":0,"o":"m 192 992 l 358 1044 l 525 992 l 532 1003 l 389 1174 l 326 1174 l 185 1003 z m -4 0 l 192 0 l 192 22 l 169 32 b 119 97 132 49 119 64 b 142 221 119 131 129 168 l 164 313 l 326 313 l 344 218 b 363 92 353 176 363 117 b 319 32 363 58 349 43 l 293 22 l 293 0 l 694 0 l 694 22 l 682 28 b 614 194 653 40 643 71 l 429 963 l 278 963 l 85 194 b 8 28 50 54 42 43 l -4 22 z m 254 683 l 258 683 l 319 353 l 174 353 z "},"Ã":{"ha":703,"x_min":0,"x_max":0,"o":"m 293 1169 b 175 997 238 1169 204 1114 l 193 990 b 257 1042 213 1025 228 1042 b 433 1019 303 1042 390 1019 b 549 1192 493 1019 519 1074 l 531 1200 b 468 1147 511 1163 497 1147 b 293 1169 424 1147 342 1169 z m -4 0 l 192 0 l 192 22 l 169 32 b 119 97 132 49 119 64 b 142 221 119 131 129 168 l 164 313 l 326 313 l 344 218 b 363 92 353 176 363 117 b 319 32 363 58 349 43 l 293 22 l 293 0 l 694 0 l 694 22 l 682 28 b 614 194 653 40 643 71 l 429 963 l 278 963 l 85 194 b 8 28 50 54 42 43 l -4 22 z m 254 683 l 258 683 l 319 353 l 174 353 z "},"Ä":{"ha":703,"x_min":0,"x_max":0,"o":"m 233 1000 b 332 1101 289 1000 332 1038 b 233 1201 332 1163 290 1201 b 136 1101 178 1201 136 1163 b 233 1000 136 1038 178 1000 z m 467 1000 b 565 1101 522 1000 565 1038 b 467 1201 565 1163 524 1201 b 369 1101 411 1201 369 1163 b 467 1000 369 1038 411 1000 z m -4 0 l 192 0 l 192 22 l 169 32 b 119 97 132 49 119 64 b 142 221 119 131 129 168 l 164 313 l 326 313 l 344 218 b 363 92 353 176 363 117 b 319 32 363 58 349 43 l 293 22 l 293 0 l 694 0 l 694 22 l 682 28 b 614 194 653 40 643 71 l 429 963 l 278 963 l 85 194 b 8 28 50 54 42 43 l -4 22 z m 254 683 l 258 683 l 319 353 l 174 353 z "},"Å":{"ha":703,"x_min":0,"x_max":0,"o":"m 240 1117 b 357 999 240 1047 294 999 b 474 1117 424 999 474 1047 b 357 1233 474 1185 421 1233 b 240 1117 294 1233 240 1185 z m 286 1117 b 357 1199 286 1163 313 1199 b 428 1117 403 1199 428 1163 b 357 1033 428 1068 403 1033 b 286 1117 313 1033 286 1068 z m -4 0 l 192 0 l 192 22 l 169 32 b 119 97 132 49 119 64 b 142 221 119 131 129 168 l 164 313 l 326 313 l 344 218 b 363 92 353 176 363 117 b 319 32 363 58 349 43 l 293 22 l 293 0 l 694 0 l 694 22 l 682 28 b 614 194 653 40 643 71 l 429 963 l 278 963 l 85 194 b 8 28 50 54 42 43 l -4 22 z m 254 683 l 258 683 l 319 353 l 174 353 z "},"Ā":{"ha":703,"x_min":0,"x_max":0,"o":"m 210 1049 l 508 1049 l 508 1121 l 210 1121 z m -4 0 l 192 0 l 192 22 l 169 32 b 119 97 132 49 119 64 b 142 221 119 131 129 168 l 164 313 l 326 313 l 344 218 b 363 92 353 176 363 117 b 319 32 363 58 349 43 l 293 22 l 293 0 l 694 0 l 694 22 l 682 28 b 614 194 653 40 643 71 l 429 963 l 278 963 l 85 194 b 8 28 50 54 42 43 l -4 22 z m 254 683 l 258 683 l 319 353 l 174 353 z "},"Ă":{"ha":703,"x_min":0,"x_max":0,"o":"m 351 1006 b 501 1210 436 1006 493 1086 l 492 1213 b 351 1133 465 1160 413 1133 b 211 1213 290 1133 238 1160 l 201 1210 b 351 1006 210 1086 267 1006 z m -4 0 l 192 0 l 192 22 l 169 32 b 119 97 132 49 119 64 b 142 221 119 131 129 168 l 164 313 l 326 313 l 344 218 b 363 92 353 176 363 117 b 319 32 363 58 349 43 l 293 22 l 293 0 l 694 0 l 694 22 l 682 28 b 614 194 653 40 643 71 l 429 963 l 278 963 l 85 194 b 8 28 50 54 42 43 l -4 22 z m 254 683 l 258 683 l 319 353 l 174 353 z "},"Ą":{"ha":703,"x_min":0,"x_max":0,"o":"m 472 -233 l 472 -217 b 442 -222 464 -221 450 -222 b 382 -142 413 -222 382 -211 b 543 0 382 -54 436 0 l 694 0 l 694 22 l 682 28 b 614 194 653 40 643 71 l 429 963 l 278 963 l 85 194 b 8 28 50 54 42 43 l -4 22 l -4 0 l 192 0 l 192 22 l 169 32 b 119 97 132 49 119 64 b 142 221 119 131 129 168 l 164 313 l 326 313 l 389 -24 b 247 -182 306 -58 247 -111 b 357 -285 247 -244 289 -285 b 472 -233 415 -285 456 -258 z m 254 683 l 258 683 l 319 353 l 174 353 z "},"Ǻ":{"ha":703,"x_min":0,"x_max":0,"o":"m 232 1256 l 410 1274 b 513 1363 475 1281 513 1311 b 432 1456 513 1415 485 1456 b 328 1388 385 1456 356 1421 l 226 1268 z m 243 1117 b 360 999 243 1047 297 999 b 476 1117 426 999 476 1047 b 360 1233 476 1185 424 1233 b 243 1117 297 1233 243 1185 z m 289 1117 b 360 1199 289 1163 315 1199 b 431 1117 406 1199 431 1163 b 360 1033 431 1068 406 1033 b 289 1117 315 1033 289 1068 z m -4 0 l 192 0 l 192 22 l 169 32 b 119 97 132 49 119 64 b 142 221 119 131 129 168 l 164 313 l 326 313 l 344 218 b 363 92 353 176 363 117 b 319 32 363 58 349 43 l 293 22 l 293 0 l 694 0 l 694 22 l 682 28 b 614 194 653 40 643 71 l 429 963 l 278 963 l 85 194 b 8 28 50 54 42 43 l -4 22 z m 254 683 l 258 683 l 319 353 l 174 353 z "},"Ạ":{"ha":703,"x_min":0,"x_max":0,"o":"m -4 0 l 192 0 l 192 22 l 169 32 b 119 97 132 49 119 64 b 142 221 119 131 129 168 l 164 313 l 326 313 l 344 218 b 363 92 353 176 363 117 b 319 32 363 58 349 43 l 293 22 l 293 0 l 694 0 l 694 22 l 682 28 b 614 194 653 40 643 71 l 429 963 l 278 963 l 85 194 b 8 28 50 54 42 43 l -4 22 z m 254 683 l 258 683 l 319 353 l 174 353 z m 275 -265 b 379 -162 335 -265 379 -228 b 275 -60 379 -97 335 -60 b 171 -162 215 -60 171 -97 b 275 -265 171 -228 215 -265 z "},"Ả":{"ha":703,"x_min":0,"x_max":0,"o":"m 351 1004 l 351 1010 b 500 1154 351 1047 500 1069 b 363 1246 500 1210 460 1246 b 232 1167 296 1246 232 1218 b 278 1122 232 1140 251 1122 b 333 1176 308 1122 325 1133 b 358 1214 339 1201 342 1214 b 390 1181 376 1214 390 1203 b 318 1051 390 1131 318 1117 b 339 1004 318 1025 329 1014 z m -4 0 l 192 0 l 192 22 l 169 32 b 119 97 132 49 119 64 b 142 221 119 131 129 168 l 164 313 l 326 313 l 344 218 b 363 92 353 176 363 117 b 319 32 363 58 349 43 l 293 22 l 293 0 l 694 0 l 694 22 l 682 28 b 614 194 653 40 643 71 l 429 963 l 278 963 l 85 194 b 8 28 50 54 42 43 l -4 22 z m 254 683 l 258 683 l 319 353 l 174 353 z "},"Ấ":{"ha":703,"x_min":0,"x_max":0,"o":"m 450 1140 l 564 1178 b 624 1243 601 1189 624 1214 b 558 1314 624 1292 583 1314 b 493 1263 525 1314 507 1293 l 442 1147 z m 183 1006 l 350 1058 l 517 1006 l 524 1017 l 381 1188 l 318 1188 l 176 1017 z m -4 0 l 192 0 l 192 22 l 169 32 b 119 97 132 49 119 64 b 142 221 119 131 129 168 l 164 313 l 326 313 l 344 218 b 363 92 353 176 363 117 b 319 32 363 58 349 43 l 293 22 l 293 0 l 694 0 l 694 22 l 682 28 b 614 194 653 40 643 71 l 429 963 l 278 963 l 85 194 b 8 28 50 54 42 43 l -4 22 z m 254 683 l 258 683 l 319 353 l 174 353 z "},"Ầ":{"ha":703,"x_min":0,"x_max":0,"o":"m 575 1140 l 583 1147 l 532 1263 b 467 1314 518 1293 500 1314 b 401 1243 442 1314 401 1292 b 461 1178 401 1214 424 1189 z m 183 1006 l 350 1058 l 517 1006 l 524 1017 l 381 1188 l 318 1188 l 176 1017 z m -4 0 l 192 0 l 192 22 l 169 32 b 119 97 132 49 119 64 b 142 221 119 131 129 168 l 164 313 l 326 313 l 344 218 b 363 92 353 176 363 117 b 319 32 363 58 349 43 l 293 22 l 293 0 l 694 0 l 694 22 l 682 28 b 614 194 653 40 643 71 l 429 963 l 278 963 l 85 194 b 8 28 50 54 42 43 l -4 22 z m 254 683 l 258 683 l 319 353 l 174 353 z "},"Ẩ":{"ha":703,"x_min":0,"x_max":0,"o":"m 500 1138 l 500 1140 b 629 1261 500 1175 629 1189 b 504 1342 629 1308 592 1342 b 388 1271 446 1342 388 1317 b 429 1233 388 1249 406 1233 b 479 1281 457 1233 472 1244 b 503 1313 483 1301 486 1313 b 531 1283 518 1313 531 1303 b 468 1178 531 1240 468 1233 b 488 1138 468 1156 479 1144 z m 183 1006 l 350 1058 l 517 1006 l 524 1017 l 381 1188 l 318 1188 l 176 1017 z m -4 0 l 192 0 l 192 22 l 169 32 b 119 97 132 49 119 64 b 142 221 119 131 129 168 l 164 313 l 326 313 l 344 218 b 363 92 353 176 363 117 b 319 32 363 58 349 43 l 293 22 l 293 0 l 694 0 l 694 22 l 682 28 b 614 194 653 40 643 71 l 429 963 l 278 963 l 85 194 b 8 28 50 54 42 43 l -4 22 z m 254 683 l 258 683 l 319 353 l 174 353 z "},"Ẫ":{"ha":703,"x_min":0,"x_max":0,"o":"m 306 1392 b 188 1219 250 1392 217 1336 l 206 1213 b 269 1264 225 1247 240 1264 b 432 1242 315 1264 389 1242 b 547 1414 492 1242 518 1296 l 529 1422 b 467 1369 510 1385 496 1369 b 306 1392 422 1369 354 1392 z m 183 1006 l 350 1058 l 517 1006 l 524 1017 l 381 1188 l 318 1188 l 176 1017 z m -4 0 l 192 0 l 192 22 l 169 32 b 119 97 132 49 119 64 b 142 221 119 131 129 168 l 164 313 l 326 313 l 344 218 b 363 92 353 176 363 117 b 319 32 363 58 349 43 l 293 22 l 293 0 l 694 0 l 694 22 l 682 28 b 614 194 653 40 643 71 l 429 963 l 278 963 l 85 194 b 8 28 50 54 42 43 l -4 22 z m 254 683 l 258 683 l 319 353 l 174 353 z "},"Ậ":{"ha":703,"x_min":0,"x_max":0,"o":"m 183 1006 l 350 1058 l 517 1006 l 524 1017 l 381 1188 l 318 1188 l 176 1017 z m -4 0 l 192 0 l 192 22 l 169 32 b 119 97 132 49 119 64 b 142 221 119 131 129 168 l 164 313 l 326 313 l 344 218 b 363 92 353 176 363 117 b 319 32 363 58 349 43 l 293 22 l 293 0 l 694 0 l 694 22 l 682 28 b 614 194 653 40 643 71 l 429 963 l 278 963 l 85 194 b 8 28 50 54 42 43 l -4 22 z m 254 683 l 258 683 l 319 353 l 174 353 z m 275 -265 b 379 -162 335 -265 379 -228 b 275 -60 379 -97 335 -60 b 171 -162 215 -60 171 -97 b 275 -265 171 -228 215 -265 z "},"Ắ":{"ha":703,"x_min":0,"x_max":0,"o":"m 301 1189 l 415 1226 b 475 1292 453 1238 475 1263 b 410 1363 475 1340 435 1363 b 344 1311 376 1363 358 1342 l 293 1196 z m 358 1006 b 508 1210 443 1006 500 1086 l 499 1213 b 358 1133 472 1160 419 1133 b 218 1213 297 1133 244 1160 l 208 1210 b 358 1006 217 1086 274 1006 z m -4 0 l 192 0 l 192 22 l 169 32 b 119 97 132 49 119 64 b 142 221 119 131 129 168 l 164 313 l 326 313 l 344 218 b 363 92 353 176 363 117 b 319 32 363 58 349 43 l 293 22 l 293 0 l 694 0 l 694 22 l 682 28 b 614 194 653 40 643 71 l 429 963 l 278 963 l 85 194 b 8 28 50 54 42 43 l -4 22 z m 254 683 l 258 683 l 319 353 l 174 353 z "},"Ằ":{"ha":703,"x_min":0,"x_max":0,"o":"m 426 1189 l 435 1196 l 383 1311 b 318 1363 369 1342 351 1363 b 253 1292 293 1363 253 1340 b 313 1226 253 1263 275 1238 z m 358 1006 b 508 1210 443 1006 500 1086 l 499 1213 b 358 1133 472 1160 419 1133 b 218 1213 297 1133 244 1160 l 208 1210 b 358 1006 217 1086 274 1006 z m -4 0 l 192 0 l 192 22 l 169 32 b 119 97 132 49 119 64 b 142 221 119 131 129 168 l 164 313 l 326 313 l 344 218 b 363 92 353 176 363 117 b 319 32 363 58 349 43 l 293 22 l 293 0 l 694 0 l 694 22 l 682 28 b 614 194 653 40 643 71 l 429 963 l 278 963 l 85 194 b 8 28 50 54 42 43 l -4 22 z m 254 683 l 258 683 l 319 353 l 174 353 z "},"Ẳ":{"ha":703,"x_min":0,"x_max":0,"o":"m 353 1183 l 353 1186 b 482 1307 353 1221 482 1235 b 357 1388 482 1354 444 1388 b 240 1317 299 1388 240 1363 b 282 1279 240 1294 258 1279 b 332 1326 310 1279 325 1290 b 356 1358 336 1347 339 1358 b 383 1329 371 1358 383 1349 b 321 1224 383 1286 321 1279 b 340 1183 321 1201 332 1190 z m 358 1006 b 508 1210 443 1006 500 1086 l 499 1213 b 358 1133 472 1160 419 1133 b 218 1213 297 1133 244 1160 l 208 1210 b 358 1006 217 1086 274 1006 z m -4 0 l 192 0 l 192 22 l 169 32 b 119 97 132 49 119 64 b 142 221 119 131 129 168 l 164 313 l 326 313 l 344 218 b 363 92 353 176 363 117 b 319 32 363 58 349 43 l 293 22 l 293 0 l 694 0 l 694 22 l 682 28 b 614 194 653 40 643 71 l 429 963 l 278 963 l 85 194 b 8 28 50 54 42 43 l -4 22 z m 254 683 l 258 683 l 319 353 l 174 353 z "},"Ẵ":{"ha":703,"x_min":0,"x_max":0,"o":"m 319 1392 b 208 1240 264 1392 231 1336 l 226 1233 b 283 1264 239 1250 254 1264 b 432 1242 324 1264 394 1242 b 547 1414 492 1242 518 1296 l 529 1422 b 467 1369 510 1385 496 1369 b 319 1392 428 1369 363 1392 z m 358 1006 b 508 1210 443 1006 500 1086 l 499 1213 b 358 1133 472 1160 419 1133 b 218 1213 297 1133 244 1160 l 208 1210 b 358 1006 217 1086 274 1006 z m -4 0 l 192 0 l 192 22 l 169 32 b 119 97 132 49 119 64 b 142 221 119 131 129 168 l 164 313 l 326 313 l 344 218 b 363 92 353 176 363 117 b 319 32 363 58 349 43 l 293 22 l 293 0 l 694 0 l 694 22 l 682 28 b 614 194 653 40 643 71 l 429 963 l 278 963 l 85 194 b 8 28 50 54 42 43 l -4 22 z m 254 683 l 258 683 l 319 353 l 174 353 z "},"Ặ":{"ha":703,"x_min":0,"x_max":0,"o":"m 358 1006 b 508 1210 443 1006 500 1086 l 499 1213 b 358 1133 472 1160 419 1133 b 218 1213 297 1133 244 1160 l 208 1210 b 358 1006 217 1086 274 1006 z m -4 0 l 192 0 l 192 22 l 169 32 b 119 97 132 49 119 64 b 142 221 119 131 129 168 l 164 313 l 326 313 l 344 218 b 363 92 353 176 363 117 b 319 32 363 58 349 43 l 293 22 l 293 0 l 694 0 l 694 22 l 682 28 b 614 194 653 40 643 71 l 429 963 l 278 963 l 85 194 b 8 28 50 54 42 43 l -4 22 z m 254 683 l 258 683 l 319 353 l 174 353 z m 275 -265 b 379 -162 335 -265 379 -228 b 275 -60 379 -97 335 -60 b 171 -162 215 -60 171 -97 b 275 -265 171 -228 215 -265 z "},"B":{"ha":694,"x_min":0,"x_max":0,"o":"m 6 0 l 375 0 b 683 267 581 0 683 104 b 467 515 683 419 604 493 l 467 519 b 654 739 593 547 654 618 b 367 963 654 878 574 963 l 6 963 l 6 940 l 26 931 b 67 819 61 914 67 914 l 67 143 b 26 31 67 49 63 44 l 6 22 z m 314 526 l 314 913 b 350 915 322 914 335 915 b 418 726 396 915 418 881 b 339 526 418 567 400 526 z m 358 47 b 314 131 326 47 314 64 l 314 485 l 344 485 b 429 279 407 485 429 450 b 358 47 429 103 410 47 z "},"C":{"ha":632,"x_min":0,"x_max":0,"o":"m 376 -17 b 599 33 472 -17 546 8 l 610 313 l 588 313 b 504 110 564 228 536 161 b 394 22 465 46 436 22 b 279 501 325 22 279 131 b 394 940 279 797 317 940 b 486 861 428 940 451 917 b 581 656 519 806 544 750 l 603 656 l 586 949 b 399 979 543 964 475 979 b 17 474 192 979 17 825 b 376 -17 17 147 158 -17 z "},"Ç":{"ha":632,"x_min":0,"x_max":0,"o":"m 214 -281 b 431 -144 342 -268 431 -228 b 331 -57 431 -97 397 -65 l 351 -15 b 376 -17 360 -17 368 -17 b 599 33 472 -17 546 8 l 610 313 l 588 313 b 504 110 564 228 536 161 b 394 22 465 46 436 22 b 279 501 325 22 279 131 b 394 940 279 797 317 940 b 486 861 428 940 451 917 b 581 656 519 806 544 750 l 603 656 l 586 949 b 399 979 543 964 475 979 b 17 474 192 979 17 825 b 318 -12 17 178 133 15 l 260 -137 l 263 -144 b 319 -181 293 -146 319 -154 b 214 -260 319 -215 278 -243 z "},"Ć":{"ha":632,"x_min":0,"x_max":0,"o":"m 258 999 l 436 1017 b 539 1106 501 1024 539 1054 b 458 1199 539 1158 511 1199 b 354 1131 411 1199 382 1164 l 253 1011 z m 376 -17 b 599 33 472 -17 546 8 l 610 313 l 588 313 b 504 110 564 228 536 161 b 394 22 465 46 436 22 b 279 501 325 22 279 131 b 394 940 279 797 317 940 b 486 861 428 940 451 917 b 581 656 519 806 544 750 l 603 656 l 586 949 b 399 979 543 964 475 979 b 17 474 192 979 17 825 b 376 -17 17 147 158 -17 z "},"Ĉ":{"ha":632,"x_min":0,"x_max":0,"o":"m 214 1006 l 381 1058 l 547 1006 l 554 1017 l 411 1188 l 349 1188 l 207 1017 z m 376 -17 b 599 33 472 -17 546 8 l 610 313 l 588 313 b 504 110 564 228 536 161 b 394 22 465 46 436 22 b 279 501 325 22 279 131 b 394 940 279 797 317 940 b 486 861 428 940 451 917 b 581 656 519 806 544 750 l 603 656 l 586 949 b 399 979 543 964 475 979 b 17 474 192 979 17 825 b 376 -17 17 147 158 -17 z "},"Ċ":{"ha":632,"x_min":0,"x_max":0,"o":"m 388 1006 b 500 1115 453 1006 500 1046 b 388 1226 500 1186 453 1226 b 275 1115 322 1226 275 1186 b 388 1006 275 1046 322 1006 z m 376 -17 b 599 33 472 -17 546 8 l 610 313 l 588 313 b 504 110 564 228 536 161 b 394 22 465 46 436 22 b 279 501 325 22 279 131 b 394 940 279 797 317 940 b 486 861 428 940 451 917 b 581 656 519 806 544 750 l 603 656 l 586 949 b 399 979 543 964 475 979 b 17 474 192 979 17 825 b 376 -17 17 147 158 -17 z "},"Č":{"ha":632,"x_min":0,"x_max":0,"o":"m 224 1189 l 217 1178 l 360 1007 l 422 1007 l 564 1178 l 557 1189 l 390 1136 z m 376 -17 b 599 33 472 -17 546 8 l 610 313 l 588 313 b 504 110 564 228 536 161 b 394 22 465 46 436 22 b 279 501 325 22 279 131 b 394 940 279 797 317 940 b 486 861 428 940 451 917 b 581 656 519 806 544 750 l 603 656 l 586 949 b 399 979 543 964 475 979 b 17 474 192 979 17 825 b 376 -17 17 147 158 -17 z "},"D":{"ha":744,"x_min":0,"x_max":0,"o":"m 6 0 l 364 0 b 729 503 593 0 729 190 b 367 963 729 817 599 963 l 6 963 l 6 940 l 26 931 b 67 819 61 914 67 914 l 67 143 b 26 31 67 49 63 44 l 6 22 z m 360 44 b 314 132 328 44 314 58 l 314 914 b 354 917 325 915 336 917 b 468 467 429 917 468 824 b 360 44 468 179 435 44 z "},"Ď":{"ha":779,"x_min":0,"x_max":0,"o":"m 193 1189 l 186 1178 l 329 1007 l 392 1007 l 533 1178 l 526 1189 l 360 1136 z m 6 0 l 364 0 b 729 503 593 0 729 190 b 367 963 729 817 599 963 l 6 963 l 6 940 l 26 931 b 67 819 61 914 67 914 l 67 143 b 26 31 67 49 63 44 l 6 22 z m 360 44 b 314 132 328 44 314 58 l 314 914 b 354 917 325 915 336 917 b 468 467 429 917 468 824 b 360 44 468 179 435 44 z "},"E":{"ha":619,"x_min":0,"x_max":0,"o":"m 476 324 l 476 665 l 454 665 b 425 563 443 618 438 594 b 338 521 413 531 393 521 l 314 521 l 314 910 b 381 917 325 913 349 917 b 486 850 431 917 457 901 b 557 682 510 808 531 761 l 579 682 l 571 963 l 6 963 l 6 940 l 26 931 b 67 819 61 914 67 914 l 67 143 b 26 31 67 49 63 44 l 6 22 l 6 0 l 589 0 l 603 333 l 581 333 b 510 126 554 235 539 186 b 386 46 481 67 453 46 b 314 140 326 46 314 61 l 314 478 l 338 478 b 424 433 393 478 413 468 b 454 324 436 396 443 369 z "},"È":{"ha":619,"x_min":0,"x_max":0,"o":"m 450 999 l 456 1011 l 354 1131 b 250 1199 326 1164 297 1199 b 169 1106 197 1199 169 1156 b 272 1017 169 1051 207 1024 z m 476 324 l 476 665 l 454 665 b 425 563 443 618 438 594 b 338 521 413 531 393 521 l 314 521 l 314 910 b 381 917 325 913 349 917 b 486 850 431 917 457 901 b 557 682 510 808 531 761 l 579 682 l 571 963 l 6 963 l 6 940 l 26 931 b 67 819 61 914 67 914 l 67 143 b 26 31 67 49 63 44 l 6 22 l 6 0 l 589 0 l 603 333 l 581 333 b 510 126 554 235 539 186 b 386 46 481 67 453 46 b 314 140 326 46 314 61 l 314 478 l 338 478 b 424 433 393 478 413 468 b 454 324 436 396 443 369 z "},"É":{"ha":619,"x_min":0,"x_max":0,"o":"m 226 999 l 404 1017 b 507 1106 469 1024 507 1054 b 426 1199 507 1158 479 1199 b 322 1131 379 1199 350 1164 l 221 1011 z m 476 324 l 476 665 l 454 665 b 425 563 443 618 438 594 b 338 521 413 531 393 521 l 314 521 l 314 910 b 381 917 325 913 349 917 b 486 850 431 917 457 901 b 557 682 510 808 531 761 l 579 682 l 571 963 l 6 963 l 6 940 l 26 931 b 67 819 61 914 67 914 l 67 143 b 26 31 67 49 63 44 l 6 22 l 6 0 l 589 0 l 603 333 l 581 333 b 510 126 554 235 539 186 b 386 46 481 67 453 46 b 314 140 326 46 314 61 l 314 478 l 338 478 b 424 433 393 478 413 468 b 454 324 436 396 443 369 z "},"Ê":{"ha":619,"x_min":0,"x_max":0,"o":"m 154 1006 l 321 1058 l 488 1006 l 494 1017 l 351 1188 l 289 1188 l 147 1017 z m 476 324 l 476 665 l 454 665 b 425 563 443 618 438 594 b 338 521 413 531 393 521 l 314 521 l 314 910 b 381 917 325 913 349 917 b 486 850 431 917 457 901 b 557 682 510 808 531 761 l 579 682 l 571 963 l 6 963 l 6 940 l 26 931 b 67 819 61 914 67 914 l 67 143 b 26 31 67 49 63 44 l 6 22 l 6 0 l 589 0 l 603 333 l 581 333 b 510 126 554 235 539 186 b 386 46 481 67 453 46 b 314 140 326 46 314 61 l 314 478 l 338 478 b 424 433 393 478 413 468 b 454 324 436 396 443 369 z "},"Ë":{"ha":619,"x_min":0,"x_max":0,"o":"m 203 1000 b 301 1101 258 1000 301 1038 b 203 1201 301 1163 260 1201 b 106 1101 147 1201 106 1163 b 203 1000 106 1038 147 1000 z m 436 1000 b 535 1101 492 1000 535 1038 b 436 1201 535 1163 493 1201 b 339 1101 381 1201 339 1163 b 436 1000 339 1038 381 1000 z m 476 324 l 476 665 l 454 665 b 425 563 443 618 438 594 b 338 521 413 531 393 521 l 314 521 l 314 910 b 381 917 325 913 349 917 b 486 850 431 917 457 901 b 557 682 510 808 531 761 l 579 682 l 571 963 l 6 963 l 6 940 l 26 931 b 67 819 61 914 67 914 l 67 143 b 26 31 67 49 63 44 l 6 22 l 6 0 l 589 0 l 603 333 l 581 333 b 510 126 554 235 539 186 b 386 46 481 67 453 46 b 314 140 326 46 314 61 l 314 478 l 338 478 b 424 433 393 478 413 468 b 454 324 436 396 443 369 z "},"Ē":{"ha":619,"x_min":0,"x_max":0,"o":"m 192 1049 l 490 1049 l 490 1121 l 192 1121 z m 476 324 l 476 665 l 454 665 b 425 563 443 618 438 594 b 338 521 413 531 393 521 l 314 521 l 314 910 b 381 917 325 913 349 917 b 486 850 431 917 457 901 b 557 682 510 808 531 761 l 579 682 l 571 963 l 6 963 l 6 940 l 26 931 b 67 819 61 914 67 914 l 67 143 b 26 31 67 49 63 44 l 6 22 l 6 0 l 589 0 l 603 333 l 581 333 b 510 126 554 235 539 186 b 386 46 481 67 453 46 b 314 140 326 46 314 61 l 314 478 l 338 478 b 424 433 393 478 413 468 b 454 324 436 396 443 369 z "},"Ĕ":{"ha":619,"x_min":0,"x_max":0,"o":"m 335 1006 b 485 1210 419 1006 476 1086 l 475 1213 b 335 1133 449 1160 396 1133 b 194 1213 274 1133 221 1160 l 185 1210 b 335 1006 193 1086 250 1006 z m 476 324 l 476 665 l 454 665 b 425 563 443 618 438 594 b 338 521 413 531 393 521 l 314 521 l 314 910 b 381 917 325 913 349 917 b 486 850 431 917 457 901 b 557 682 510 808 531 761 l 579 682 l 571 963 l 6 963 l 6 940 l 26 931 b 67 819 61 914 67 914 l 67 143 b 26 31 67 49 63 44 l 6 22 l 6 0 l 589 0 l 603 333 l 581 333 b 510 126 554 235 539 186 b 386 46 481 67 453 46 b 314 140 326 46 314 61 l 314 478 l 338 478 b 424 433 393 478 413 468 b 454 324 436 396 443 369 z "},"Ė":{"ha":619,"x_min":0,"x_max":0,"o":"m 333 1006 b 446 1115 399 1006 446 1046 b 333 1226 446 1186 399 1226 b 221 1115 268 1226 221 1186 b 333 1006 221 1046 268 1006 z m 476 324 l 476 665 l 454 665 b 425 563 443 618 438 594 b 338 521 413 531 393 521 l 314 521 l 314 910 b 381 917 325 913 349 917 b 486 850 431 917 457 901 b 557 682 510 808 531 761 l 579 682 l 571 963 l 6 963 l 6 940 l 26 931 b 67 819 61 914 67 914 l 67 143 b 26 31 67 49 63 44 l 6 22 l 6 0 l 589 0 l 603 333 l 581 333 b 510 126 554 235 539 186 b 386 46 481 67 453 46 b 314 140 326 46 314 61 l 314 478 l 338 478 b 424 433 393 478 413 468 b 454 324 436 396 443 369 z "},"Ę":{"ha":619,"x_min":0,"x_max":0,"o":"m 465 0 b 296 -185 374 -43 296 -96 b 406 -285 296 -247 338 -285 b 519 -232 467 -285 503 -258 l 519 -214 b 486 -218 511 -217 499 -218 b 436 -156 454 -218 436 -197 b 488 0 436 -99 460 -39 l 589 0 l 603 333 l 581 333 b 510 126 554 235 539 186 b 386 46 481 67 453 46 b 314 140 326 46 314 61 l 314 478 l 338 478 b 424 433 393 478 413 468 b 454 324 436 396 443 369 l 476 324 l 476 665 l 454 665 b 425 563 443 618 438 594 b 338 521 413 531 393 521 l 314 521 l 314 910 b 381 917 325 913 349 917 b 486 850 431 917 457 901 b 557 682 510 808 531 761 l 579 682 l 571 963 l 6 963 l 6 940 l 26 931 b 67 819 61 914 67 914 l 67 143 b 26 31 67 49 63 44 l 6 22 l 6 0 z "},"Ě":{"ha":619,"x_min":0,"x_max":0,"o":"m 181 1189 l 174 1178 l 317 1007 l 379 1007 l 521 1178 l 514 1189 l 347 1136 z m 476 324 l 476 665 l 454 665 b 425 563 443 618 438 594 b 338 521 413 531 393 521 l 314 521 l 314 910 b 381 917 325 913 349 917 b 486 850 431 917 457 901 b 557 682 510 808 531 761 l 579 682 l 571 963 l 6 963 l 6 940 l 26 931 b 67 819 61 914 67 914 l 67 143 b 26 31 67 49 63 44 l 6 22 l 6 0 l 589 0 l 603 333 l 581 333 b 510 126 554 235 539 186 b 386 46 481 67 453 46 b 314 140 326 46 314 61 l 314 478 l 338 478 b 424 433 393 478 413 468 b 454 324 436 396 443 369 z "},"Ẹ":{"ha":619,"x_min":0,"x_max":0,"o":"m 476 324 l 476 665 l 454 665 b 425 563 443 618 438 594 b 338 521 413 531 393 521 l 314 521 l 314 910 b 381 917 325 913 349 917 b 486 850 431 917 457 901 b 557 682 510 808 531 761 l 579 682 l 571 963 l 6 963 l 6 940 l 26 931 b 67 819 61 914 67 914 l 67 143 b 26 31 67 49 63 44 l 6 22 l 6 0 l 589 0 l 603 333 l 581 333 b 510 126 554 235 539 186 b 386 46 481 67 453 46 b 314 140 326 46 314 61 l 314 478 l 338 478 b 424 433 393 478 413 468 b 454 324 436 396 443 369 z m 324 -265 b 428 -162 383 -265 428 -228 b 324 -60 428 -97 383 -60 b 219 -162 264 -60 219 -97 b 324 -265 219 -228 264 -265 z "},"Ẻ":{"ha":619,"x_min":0,"x_max":0,"o":"m 315 1004 l 315 1010 b 464 1154 315 1047 464 1069 b 326 1246 464 1210 424 1246 b 196 1167 260 1246 196 1218 b 242 1122 196 1140 215 1122 b 297 1176 272 1122 289 1133 b 322 1214 303 1201 306 1214 b 354 1181 340 1214 354 1203 b 282 1051 354 1131 282 1117 b 303 1004 282 1025 293 1014 z m 476 324 l 476 665 l 454 665 b 425 563 443 618 438 594 b 338 521 413 531 393 521 l 314 521 l 314 910 b 381 917 325 913 349 917 b 486 850 431 917 457 901 b 557 682 510 808 531 761 l 579 682 l 571 963 l 6 963 l 6 940 l 26 931 b 67 819 61 914 67 914 l 67 143 b 26 31 67 49 63 44 l 6 22 l 6 0 l 589 0 l 603 333 l 581 333 b 510 126 554 235 539 186 b 386 46 481 67 453 46 b 314 140 326 46 314 61 l 314 478 l 338 478 b 424 433 393 478 413 468 b 454 324 436 396 443 369 z "},"Ẽ":{"ha":619,"x_min":0,"x_max":0,"o":"m 236 1169 b 118 997 181 1169 147 1114 l 136 990 b 200 1042 156 1025 171 1042 b 376 1019 246 1042 333 1019 b 492 1192 436 1019 463 1074 l 474 1200 b 411 1147 454 1163 440 1147 b 236 1169 367 1147 285 1169 z m 476 324 l 476 665 l 454 665 b 425 563 443 618 438 594 b 338 521 413 531 393 521 l 314 521 l 314 910 b 381 917 325 913 349 917 b 486 850 431 917 457 901 b 557 682 510 808 531 761 l 579 682 l 571 963 l 6 963 l 6 940 l 26 931 b 67 819 61 914 67 914 l 67 143 b 26 31 67 49 63 44 l 6 22 l 6 0 l 589 0 l 603 333 l 581 333 b 510 126 554 235 539 186 b 386 46 481 67 453 46 b 314 140 326 46 314 61 l 314 478 l 338 478 b 424 433 393 478 413 468 b 454 324 436 396 443 369 z "},"Ế":{"ha":619,"x_min":0,"x_max":0,"o":"m 414 1140 l 528 1178 b 588 1243 565 1189 588 1214 b 522 1314 588 1292 547 1314 b 457 1263 489 1314 471 1293 l 406 1147 z m 147 1006 l 314 1058 l 481 1006 l 488 1017 l 344 1188 l 282 1188 l 140 1017 z m 476 324 l 476 665 l 454 665 b 425 563 443 618 438 594 b 338 521 413 531 393 521 l 314 521 l 314 910 b 381 917 325 913 349 917 b 486 850 431 917 457 901 b 557 682 510 808 531 761 l 579 682 l 571 963 l 6 963 l 6 940 l 26 931 b 67 819 61 914 67 914 l 67 143 b 26 31 67 49 63 44 l 6 22 l 6 0 l 589 0 l 603 333 l 581 333 b 510 126 554 235 539 186 b 386 46 481 67 453 46 b 314 140 326 46 314 61 l 314 478 l 338 478 b 424 433 393 478 413 468 b 454 324 436 396 443 369 z "},"Ề":{"ha":619,"x_min":0,"x_max":0,"o":"m 539 1140 l 547 1147 l 496 1263 b 431 1314 482 1293 464 1314 b 365 1243 406 1314 365 1292 b 425 1178 365 1214 388 1189 z m 147 1006 l 314 1058 l 481 1006 l 488 1017 l 344 1188 l 282 1188 l 140 1017 z m 476 324 l 476 665 l 454 665 b 425 563 443 618 438 594 b 338 521 413 531 393 521 l 314 521 l 314 910 b 381 917 325 913 349 917 b 486 850 431 917 457 901 b 557 682 510 808 531 761 l 579 682 l 571 963 l 6 963 l 6 940 l 26 931 b 67 819 61 914 67 914 l 67 143 b 26 31 67 49 63 44 l 6 22 l 6 0 l 589 0 l 603 333 l 581 333 b 510 126 554 235 539 186 b 386 46 481 67 453 46 b 314 140 326 46 314 61 l 314 478 l 338 478 b 424 433 393 478 413 468 b 454 324 436 396 443 369 z "},"Ể":{"ha":619,"x_min":0,"x_max":0,"o":"m 464 1138 l 464 1140 b 593 1261 464 1175 593 1189 b 468 1342 593 1308 556 1342 b 351 1271 410 1342 351 1317 b 393 1233 351 1249 369 1233 b 443 1281 421 1233 436 1244 b 467 1313 447 1301 450 1313 b 494 1283 482 1313 494 1303 b 432 1178 494 1240 432 1233 b 451 1138 432 1156 443 1144 z m 147 1006 l 314 1058 l 481 1006 l 488 1017 l 344 1188 l 282 1188 l 140 1017 z m 476 324 l 476 665 l 454 665 b 425 563 443 618 438 594 b 338 521 413 531 393 521 l 314 521 l 314 910 b 381 917 325 913 349 917 b 486 850 431 917 457 901 b 557 682 510 808 531 761 l 579 682 l 571 963 l 6 963 l 6 940 l 26 931 b 67 819 61 914 67 914 l 67 143 b 26 31 67 49 63 44 l 6 22 l 6 0 l 589 0 l 603 333 l 581 333 b 510 126 554 235 539 186 b 386 46 481 67 453 46 b 314 140 326 46 314 61 l 314 478 l 338 478 b 424 433 393 478 413 468 b 454 324 436 396 443 369 z "},"Ễ":{"ha":619,"x_min":0,"x_max":0,"o":"m 269 1392 b 151 1219 214 1392 181 1336 l 169 1213 b 233 1264 189 1247 204 1264 b 396 1242 279 1264 353 1242 b 511 1414 456 1242 482 1296 l 493 1422 b 431 1369 474 1385 460 1369 b 269 1392 386 1369 318 1392 z m 147 1006 l 314 1058 l 481 1006 l 488 1017 l 344 1188 l 282 1188 l 140 1017 z m 476 324 l 476 665 l 454 665 b 425 563 443 618 438 594 b 338 521 413 531 393 521 l 314 521 l 314 910 b 381 917 325 913 349 917 b 486 850 431 917 457 901 b 557 682 510 808 531 761 l 579 682 l 571 963 l 6 963 l 6 940 l 26 931 b 67 819 61 914 67 914 l 67 143 b 26 31 67 49 63 44 l 6 22 l 6 0 l 589 0 l 603 333 l 581 333 b 510 126 554 235 539 186 b 386 46 481 67 453 46 b 314 140 326 46 314 61 l 314 478 l 338 478 b 424 433 393 478 413 468 b 454 324 436 396 443 369 z "},"Ệ":{"ha":619,"x_min":0,"x_max":0,"o":"m 147 1006 l 314 1058 l 481 1006 l 488 1017 l 344 1188 l 282 1188 l 140 1017 z m 476 324 l 476 665 l 454 665 b 425 563 443 618 438 594 b 338 521 413 531 393 521 l 314 521 l 314 910 b 381 917 325 913 349 917 b 486 850 431 917 457 901 b 557 682 510 808 531 761 l 579 682 l 571 963 l 6 963 l 6 940 l 26 931 b 67 819 61 914 67 914 l 67 143 b 26 31 67 49 63 44 l 6 22 l 6 0 l 589 0 l 603 333 l 581 333 b 510 126 554 235 539 186 b 386 46 481 67 453 46 b 314 140 326 46 314 61 l 314 478 l 338 478 b 424 433 393 478 413 468 b 454 324 436 396 443 369 z m 324 -265 b 428 -162 383 -265 428 -228 b 324 -60 428 -97 383 -60 b 219 -162 264 -60 219 -97 b 324 -265 219 -228 264 -265 z "},"F":{"ha":589,"x_min":0,"x_max":0,"o":"m 314 463 l 340 463 b 424 418 393 463 413 453 b 456 306 435 385 443 354 l 476 306 l 476 658 l 456 658 b 425 547 444 607 438 582 b 340 506 414 515 393 506 l 314 506 l 314 910 b 375 917 331 914 351 917 b 481 850 425 917 451 901 b 551 682 504 808 525 761 l 574 682 l 565 963 l 6 963 l 6 940 l 26 931 b 67 819 63 914 67 914 l 67 143 b 26 31 67 49 63 44 l 6 22 l 6 0 l 392 0 l 392 22 l 364 32 b 314 143 319 47 314 49 z "},"G":{"ha":686,"x_min":0,"x_max":0,"o":"m 644 279 b 674 388 644 371 647 375 l 688 394 l 688 417 l 356 417 l 356 394 l 376 386 b 417 275 413 372 417 368 l 417 40 b 374 22 408 31 393 22 b 282 499 296 22 282 153 b 403 940 282 794 314 940 b 519 840 440 940 474 921 b 599 658 553 782 565 750 l 621 658 l 610 946 b 421 979 574 964 499 979 b 19 479 210 979 19 838 b 389 -17 19 165 139 -17 b 644 42 481 -17 589 11 z "},"Ĝ":{"ha":686,"x_min":0,"x_max":0,"o":"m 239 1006 l 406 1058 l 572 1006 l 579 1017 l 436 1188 l 374 1188 l 232 1017 z m 644 279 b 674 388 644 371 647 375 l 688 394 l 688 417 l 356 417 l 356 394 l 376 386 b 417 275 413 372 417 368 l 417 40 b 374 22 408 31 393 22 b 282 499 296 22 282 153 b 403 940 282 794 314 940 b 519 840 440 940 474 921 b 599 658 553 782 565 750 l 621 658 l 610 946 b 421 979 574 964 499 979 b 19 479 210 979 19 838 b 389 -17 19 165 139 -17 b 644 42 481 -17 589 11 z "},"Ğ":{"ha":686,"x_min":0,"x_max":0,"o":"m 389 1006 b 539 1210 474 1006 531 1086 l 529 1213 b 389 1133 503 1160 450 1133 b 249 1213 328 1133 275 1160 l 239 1210 b 389 1006 247 1086 304 1006 z m 644 279 b 674 388 644 371 647 375 l 688 394 l 688 417 l 356 417 l 356 394 l 376 386 b 417 275 413 372 417 368 l 417 40 b 374 22 408 31 393 22 b 282 499 296 22 282 153 b 403 940 282 794 314 940 b 519 840 440 940 474 921 b 599 658 553 782 565 750 l 621 658 l 610 946 b 421 979 574 964 499 979 b 19 479 210 979 19 838 b 389 -17 19 165 139 -17 b 644 42 481 -17 589 11 z "},"Ġ":{"ha":686,"x_min":0,"x_max":0,"o":"m 392 1006 b 504 1115 457 1006 504 1046 b 392 1226 504 1186 457 1226 b 279 1115 326 1226 279 1186 b 392 1006 279 1046 326 1006 z m 644 279 b 674 388 644 371 647 375 l 688 394 l 688 417 l 356 417 l 356 394 l 376 386 b 417 275 413 372 417 368 l 417 40 b 374 22 408 31 393 22 b 282 499 296 22 282 153 b 403 940 282 794 314 940 b 519 840 440 940 474 921 b 599 658 553 782 565 750 l 621 658 l 610 946 b 421 979 574 964 499 979 b 19 479 210 979 19 838 b 389 -17 19 165 139 -17 b 644 42 481 -17 589 11 z "},"Ģ":{"ha":686,"x_min":0,"x_max":0,"o":"m 644 279 b 674 388 644 371 647 375 l 688 394 l 688 417 l 356 417 l 356 394 l 376 386 b 417 275 413 372 417 368 l 417 40 b 374 22 408 31 393 22 b 282 499 296 22 282 153 b 403 940 282 794 314 940 b 519 840 440 940 474 921 b 599 658 553 782 565 750 l 621 658 l 610 946 b 421 979 574 964 499 979 b 19 479 210 979 19 838 b 389 -17 19 165 139 -17 b 644 42 481 -17 589 11 z m 264 -344 b 482 -168 404 -335 482 -264 b 367 -53 482 -99 439 -53 b 271 -147 310 -53 271 -94 b 346 -222 271 -196 301 -222 b 401 -197 374 -222 392 -211 b 263 -331 400 -257 353 -303 z "},"H":{"ha":769,"x_min":0,"x_max":0,"o":"m 6 0 l 371 0 l 371 22 l 356 29 b 314 143 318 46 314 50 l 314 471 l 457 471 l 457 143 b 417 29 457 50 454 46 l 401 22 l 401 0 l 764 0 l 764 22 l 744 31 b 704 143 708 46 704 49 l 704 819 b 744 931 704 914 708 913 l 764 940 l 764 963 l 401 963 l 401 940 l 417 932 b 457 819 453 913 457 913 l 457 514 l 314 514 l 314 819 b 356 932 314 913 319 913 l 371 940 l 371 963 l 6 963 l 6 940 l 26 931 b 67 819 63 914 67 914 l 67 143 b 26 31 67 49 63 44 l 6 22 z "},"Ĥ":{"ha":769,"x_min":0,"x_max":0,"o":"m 221 1006 l 388 1058 l 554 1006 l 561 1017 l 418 1188 l 356 1188 l 214 1017 z m 6 0 l 371 0 l 371 22 l 356 29 b 314 143 318 46 314 50 l 314 471 l 457 471 l 457 143 b 417 29 457 50 454 46 l 401 22 l 401 0 l 764 0 l 764 22 l 744 31 b 704 143 708 46 704 49 l 704 819 b 744 931 704 914 708 913 l 764 940 l 764 963 l 401 963 l 401 940 l 417 932 b 457 819 453 913 457 913 l 457 514 l 314 514 l 314 819 b 356 932 314 913 319 913 l 371 940 l 371 963 l 6 963 l 6 940 l 26 931 b 67 819 63 914 67 914 l 67 143 b 26 31 67 49 63 44 l 6 22 z "},"Ȟ":{"ha":769,"x_min":0,"x_max":0,"o":"m 219 1189 l 213 1178 l 356 1007 l 418 1007 l 560 1178 l 553 1189 l 386 1136 z m 6 0 l 371 0 l 371 22 l 356 29 b 314 143 318 46 314 50 l 314 471 l 457 471 l 457 143 b 417 29 457 50 454 46 l 401 22 l 401 0 l 764 0 l 764 22 l 744 31 b 704 143 708 46 704 49 l 704 819 b 744 931 704 914 708 913 l 764 940 l 764 963 l 401 963 l 401 940 l 417 932 b 457 819 453 913 457 913 l 457 514 l 314 514 l 314 819 b 356 932 314 913 319 913 l 371 940 l 371 963 l 6 963 l 6 940 l 26 931 b 67 819 63 914 67 914 l 67 143 b 26 31 67 49 63 44 l 6 22 z "},"Ḣ":{"ha":769,"x_min":0,"x_max":0,"o":"m 385 1006 b 497 1115 450 1006 497 1046 b 385 1226 497 1186 450 1226 b 272 1115 319 1226 272 1186 b 385 1006 272 1046 319 1006 z m 6 0 l 371 0 l 371 22 l 356 29 b 314 143 318 46 314 50 l 314 471 l 457 471 l 457 143 b 417 29 457 50 454 46 l 401 22 l 401 0 l 764 0 l 764 22 l 744 31 b 704 143 708 46 704 49 l 704 819 b 744 931 704 914 708 913 l 764 940 l 764 963 l 401 963 l 401 940 l 417 932 b 457 819 453 913 457 913 l 457 514 l 314 514 l 314 819 b 356 932 314 913 319 913 l 371 940 l 371 963 l 6 963 l 6 940 l 26 931 b 67 819 63 914 67 914 l 67 143 b 26 31 67 49 63 44 l 6 22 z "},"I":{"ha":386,"x_min":0,"x_max":0,"o":"m 6 0 l 381 0 l 381 22 l 356 32 b 317 143 319 46 317 49 l 317 819 b 358 931 317 914 322 915 l 381 940 l 381 963 l 6 963 l 6 940 l 28 931 b 69 819 64 915 69 914 l 69 143 b 31 32 69 49 67 46 l 6 22 z "},"Ì":{"ha":386,"x_min":0,"x_max":0,"o":"m 335 999 l 340 1011 l 239 1131 b 135 1199 211 1164 182 1199 b 54 1106 82 1199 54 1156 b 157 1017 54 1051 92 1024 z m 6 0 l 381 0 l 381 22 l 356 32 b 317 143 319 46 317 49 l 317 819 b 358 931 317 914 322 915 l 381 940 l 381 963 l 6 963 l 6 940 l 28 931 b 69 819 64 915 69 914 l 69 143 b 31 32 69 49 67 46 l 6 22 z "},"Í":{"ha":386,"x_min":0,"x_max":0,"o":"m 92 999 l 269 1017 b 372 1106 335 1024 372 1054 b 292 1199 372 1158 344 1199 b 188 1131 244 1199 215 1164 l 86 1011 z m 6 0 l 381 0 l 381 22 l 356 32 b 317 143 319 46 317 49 l 317 819 b 358 931 317 914 322 915 l 381 940 l 381 963 l 6 963 l 6 940 l 28 931 b 69 819 64 915 69 914 l 69 143 b 31 32 69 49 67 46 l 6 22 z "},"Î":{"ha":386,"x_min":0,"x_max":0,"o":"m 22 1006 l 189 1058 l 356 1006 l 363 1017 l 219 1188 l 157 1188 l 15 1017 z m 6 0 l 381 0 l 381 22 l 356 32 b 317 143 319 46 317 49 l 317 819 b 358 931 317 914 322 915 l 381 940 l 381 963 l 6 963 l 6 940 l 28 931 b 69 819 64 915 69 914 l 69 143 b 31 32 69 49 67 46 l 6 22 z "},"Ï":{"ha":386,"x_min":0,"x_max":0,"o":"m 75 1000 b 174 1101 131 1000 174 1038 b 75 1201 174 1163 132 1201 b -22 1101 19 1201 -22 1163 b 75 1000 -22 1038 19 1000 z m 308 1000 b 407 1101 364 1000 407 1038 b 308 1201 407 1163 365 1201 b 211 1101 253 1201 211 1163 b 308 1000 211 1038 253 1000 z m 6 0 l 381 0 l 381 22 l 356 32 b 317 143 319 46 317 49 l 317 819 b 358 931 317 914 322 915 l 381 940 l 381 963 l 6 963 l 6 940 l 28 931 b 69 819 64 915 69 914 l 69 143 b 31 32 69 49 67 46 l 6 22 z "},"Ĩ":{"ha":386,"x_min":0,"x_max":0,"o":"m 132 1169 b 14 997 76 1169 43 1114 l 32 990 b 96 1042 51 1025 67 1042 b 272 1019 142 1042 229 1019 b 388 1192 332 1019 358 1074 l 369 1200 b 307 1147 350 1163 336 1147 b 132 1169 263 1147 181 1169 z m 6 0 l 381 0 l 381 22 l 356 32 b 317 143 319 46 317 49 l 317 819 b 358 931 317 914 322 915 l 381 940 l 381 963 l 6 963 l 6 940 l 28 931 b 69 819 64 915 69 914 l 69 143 b 31 32 69 49 67 46 l 6 22 z "},"Ī":{"ha":386,"x_min":0,"x_max":0,"o":"m 44 1049 l 343 1049 l 343 1121 l 44 1121 z m 6 0 l 381 0 l 381 22 l 356 32 b 317 143 319 46 317 49 l 317 819 b 358 931 317 914 322 915 l 381 940 l 381 963 l 6 963 l 6 940 l 28 931 b 69 819 64 915 69 914 l 69 143 b 31 32 69 49 67 46 l 6 22 z "},"Ĭ":{"ha":386,"x_min":0,"x_max":0,"o":"m 196 1006 b 346 1210 281 1006 338 1086 l 336 1213 b 196 1133 310 1160 257 1133 b 56 1213 135 1133 82 1160 l 46 1210 b 196 1006 54 1086 111 1006 z m 6 0 l 381 0 l 381 22 l 356 32 b 317 143 319 46 317 49 l 317 819 b 358 931 317 914 322 915 l 381 940 l 381 963 l 6 963 l 6 940 l 28 931 b 69 819 64 915 69 914 l 69 143 b 31 32 69 49 67 46 l 6 22 z "},"Į":{"ha":386,"x_min":0,"x_max":0,"o":"m 6 0 l 272 0 b 103 -185 181 -43 103 -96 b 213 -285 103 -247 144 -285 b 326 -232 274 -285 310 -258 l 326 -214 b 293 -218 318 -217 306 -218 b 243 -156 261 -218 243 -197 b 294 0 243 -99 267 -39 l 381 0 l 381 22 l 356 32 b 317 143 319 46 317 49 l 317 819 b 358 931 317 914 322 915 l 381 940 l 381 963 l 6 963 l 6 940 l 28 931 b 69 819 64 915 69 914 l 69 143 b 31 32 69 49 67 46 l 6 22 z "},"İ":{"ha":386,"x_min":0,"x_max":0,"o":"m 203 1006 b 315 1115 268 1006 315 1046 b 203 1226 315 1186 268 1226 b 90 1115 138 1226 90 1186 b 203 1006 90 1046 138 1006 z m 6 0 l 381 0 l 381 22 l 356 32 b 317 143 319 46 317 49 l 317 819 b 358 931 317 914 322 915 l 381 940 l 381 963 l 6 963 l 6 940 l 28 931 b 69 819 64 915 69 914 l 69 143 b 31 32 69 49 67 46 l 6 22 z "},"Ỉ":{"ha":386,"x_min":0,"x_max":0,"o":"m 193 1004 l 193 1010 b 342 1154 193 1047 342 1069 b 204 1246 342 1210 301 1246 b 74 1167 138 1246 74 1218 b 119 1122 74 1140 93 1122 b 175 1176 150 1122 167 1133 b 200 1214 181 1201 183 1214 b 232 1181 218 1214 232 1203 b 160 1051 232 1131 160 1117 b 181 1004 160 1025 171 1014 z m 6 0 l 381 0 l 381 22 l 356 32 b 317 143 319 46 317 49 l 317 819 b 358 931 317 914 322 915 l 381 940 l 381 963 l 6 963 l 6 940 l 28 931 b 69 819 64 915 69 914 l 69 143 b 31 32 69 49 67 46 l 6 22 z "},"Ị":{"ha":386,"x_min":0,"x_max":0,"o":"m 6 0 l 381 0 l 381 22 l 356 32 b 317 143 319 46 317 49 l 317 819 b 358 931 317 914 322 915 l 381 940 l 381 963 l 6 963 l 6 940 l 28 931 b 69 819 64 915 69 914 l 69 143 b 31 32 69 49 67 46 l 6 22 z m 193 -265 b 297 -162 253 -265 297 -228 b 193 -60 297 -97 253 -60 b 89 -162 133 -60 89 -97 b 193 -265 89 -228 133 -265 z "},"J":{"ha":538,"x_min":0,"x_max":0,"o":"m 225 133 b 199 31 225 51 217 31 b 181 60 186 31 183 36 b 78 214 164 183 135 214 b -10 125 19 214 -10 178 b 188 -14 -10 50 49 -14 b 472 349 365 -14 472 135 l 472 819 b 513 931 472 914 476 913 l 532 940 l 532 963 l 160 963 l 160 940 l 183 931 b 225 819 221 915 225 914 z "},"Ĵ":{"ha":538,"x_min":0,"x_max":0,"o":"m 182 1006 l 349 1058 l 515 1006 l 522 1017 l 379 1188 l 317 1188 l 175 1017 z m 225 133 b 199 31 225 51 217 31 b 181 60 186 31 183 36 b 78 214 164 183 135 214 b -10 125 19 214 -10 178 b 188 -14 -10 50 49 -14 b 472 349 365 -14 472 135 l 472 819 b 513 931 472 914 476 913 l 532 940 l 532 963 l 160 963 l 160 940 l 183 931 b 225 819 221 915 225 914 z "},"K":{"ha":750,"x_min":0,"x_max":0,"o":"m 474 0 l 761 0 l 761 22 l 750 28 b 715 65 732 36 728 40 b 501 675 649 199 571 444 l 581 808 b 701 933 626 886 654 913 l 717 940 l 717 963 l 481 963 l 481 940 l 503 931 b 547 875 535 917 547 901 b 497 753 547 844 528 806 l 328 467 l 328 440 b 474 0 368 275 421 121 z m 6 963 l 6 940 l 26 931 b 67 819 63 914 67 914 l 67 143 b 28 32 67 49 64 47 l 6 22 l 6 0 l 372 0 l 372 22 l 353 31 b 314 143 317 46 314 50 l 314 819 b 354 931 314 913 318 913 l 374 940 l 374 963 z "},"Ķ":{"ha":750,"x_min":0,"x_max":0,"o":"m 474 0 l 761 0 l 761 22 l 750 28 b 715 65 732 36 728 40 b 501 675 649 199 571 444 l 581 808 b 701 933 626 886 654 913 l 717 940 l 717 963 l 481 963 l 481 940 l 503 931 b 547 875 535 917 547 901 b 497 753 547 844 528 806 l 328 467 l 328 440 b 474 0 368 275 421 121 z m 6 963 l 6 940 l 26 931 b 67 819 63 914 67 914 l 67 143 b 28 32 67 49 64 47 l 6 22 l 6 0 l 372 0 l 372 22 l 353 31 b 314 143 317 46 314 50 l 314 819 b 354 931 314 913 318 913 l 374 940 l 374 963 z m 278 -344 b 496 -168 418 -335 496 -264 b 381 -53 496 -99 453 -53 b 285 -147 324 -53 285 -94 b 360 -222 285 -196 315 -222 b 415 -197 388 -222 406 -211 b 276 -331 414 -257 367 -303 z "},"Ḳ":{"ha":750,"x_min":0,"x_max":0,"o":"m 474 0 l 761 0 l 761 22 l 750 28 b 715 65 732 36 728 40 b 501 675 649 199 571 444 l 581 808 b 701 933 626 886 654 913 l 717 940 l 717 963 l 481 963 l 481 940 l 503 931 b 547 875 535 917 547 901 b 497 753 547 844 528 806 l 328 467 l 328 440 b 474 0 368 275 421 121 z m 6 963 l 6 940 l 26 931 b 67 819 63 914 67 914 l 67 143 b 28 32 67 49 64 47 l 6 22 l 6 0 l 372 0 l 372 22 l 353 31 b 314 143 317 46 314 50 l 314 819 b 354 931 314 913 318 913 l 374 940 l 374 963 z m 396 -265 b 500 -162 456 -265 500 -228 b 396 -60 500 -97 456 -60 b 292 -162 336 -60 292 -97 b 396 -265 292 -228 336 -265 z "},"L":{"ha":600,"x_min":0,"x_max":0,"o":"m 6 0 l 575 0 l 594 351 l 572 351 b 496 129 544 251 524 186 b 378 44 460 56 436 44 b 314 135 325 44 314 61 l 314 819 b 363 931 314 914 319 914 l 388 940 l 388 963 l 6 963 l 6 940 l 26 931 b 67 819 61 914 67 914 l 67 143 b 26 31 67 49 63 44 l 6 22 z "},"Ĺ":{"ha":600,"x_min":0,"x_max":0,"o":"m 86 999 l 264 1017 b 367 1106 329 1024 367 1054 b 286 1199 367 1158 339 1199 b 182 1131 239 1199 210 1164 l 81 1011 z m 6 0 l 575 0 l 594 351 l 572 351 b 496 129 544 251 524 186 b 378 44 460 56 436 44 b 314 135 325 44 314 61 l 314 819 b 363 931 314 914 319 914 l 388 940 l 388 963 l 6 963 l 6 940 l 26 931 b 67 819 61 914 67 914 l 67 143 b 26 31 67 49 63 44 l 6 22 z "},"Ļ":{"ha":600,"x_min":0,"x_max":0,"o":"m 6 0 l 575 0 l 594 351 l 572 351 b 496 129 544 251 524 186 b 378 44 460 56 436 44 b 314 135 325 44 314 61 l 314 819 b 363 931 314 914 319 914 l 388 940 l 388 963 l 6 963 l 6 940 l 26 931 b 67 819 61 914 67 914 l 67 143 b 26 31 67 49 63 44 l 6 22 z m 207 -344 b 425 -168 347 -335 425 -264 b 310 -53 425 -99 382 -53 b 214 -147 253 -53 214 -94 b 289 -222 214 -196 244 -222 b 344 -197 317 -222 335 -211 b 206 -331 343 -257 296 -303 z "},"Ľ":{"ha":600,"x_min":0,"x_max":0,"o":"m 424 706 l 519 847 b 549 922 539 876 549 900 b 478 976 549 960 511 976 b 417 885 433 976 418 942 l 413 710 z m 6 0 l 575 0 l 594 351 l 572 351 b 496 129 544 251 524 186 b 378 44 460 56 436 44 b 314 135 325 44 314 61 l 314 819 b 363 931 314 914 319 914 l 388 940 l 388 963 l 6 963 l 6 940 l 26 931 b 67 819 61 914 67 914 l 67 143 b 26 31 67 49 63 44 l 6 22 z "},"M":{"ha":858,"x_min":0,"x_max":0,"o":"m 531 963 l 425 485 l 422 485 l 322 963 l 6 963 l 6 940 l 26 931 b 68 819 64 914 68 913 l 68 167 b 26 31 68 60 63 44 l 6 22 l 6 0 l 181 0 l 181 22 l 156 31 b 113 176 115 44 113 63 l 113 800 l 117 800 l 286 38 l 367 38 l 540 799 l 544 799 l 544 143 b 504 32 544 49 540 47 l 482 22 l 482 0 l 853 0 l 853 22 l 832 32 b 792 143 796 49 792 49 l 792 819 b 832 931 792 914 796 914 l 853 940 l 853 963 z "},"N":{"ha":663,"x_min":0,"x_max":0,"o":"m 6 963 l 6 940 l 28 929 b 67 819 61 913 67 896 l 67 169 b 28 33 67 63 63 50 l 6 22 l 6 0 l 185 0 l 185 22 l 157 33 b 111 179 114 50 111 65 l 111 803 l 114 803 l 493 0 l 594 0 l 594 793 b 636 931 594 899 601 914 l 657 940 l 657 963 l 475 963 l 475 940 l 503 929 b 550 783 547 911 550 897 l 550 464 l 547 464 l 306 963 z "},"Ñ":{"ha":663,"x_min":0,"x_max":0,"o":"m 296 1169 b 178 997 240 1169 207 1114 l 196 990 b 260 1042 215 1025 231 1042 b 436 1019 306 1042 393 1019 b 551 1192 496 1019 522 1074 l 533 1200 b 471 1147 514 1163 500 1147 b 296 1169 426 1147 344 1169 z m 6 963 l 6 940 l 28 929 b 67 819 61 913 67 896 l 67 169 b 28 33 67 63 63 50 l 6 22 l 6 0 l 185 0 l 185 22 l 157 33 b 111 179 114 50 111 65 l 111 803 l 114 803 l 493 0 l 594 0 l 594 793 b 636 931 594 899 601 914 l 657 940 l 657 963 l 475 963 l 475 940 l 503 929 b 550 783 547 911 550 897 l 550 464 l 547 464 l 306 963 z "},"Ń":{"ha":663,"x_min":0,"x_max":0,"o":"m 254 999 l 432 1017 b 535 1106 497 1024 535 1054 b 454 1199 535 1158 507 1199 b 350 1131 407 1199 378 1164 l 249 1011 z m 6 963 l 6 940 l 28 929 b 67 819 61 913 67 896 l 67 169 b 28 33 67 63 63 50 l 6 22 l 6 0 l 185 0 l 185 22 l 157 33 b 111 179 114 50 111 65 l 111 803 l 114 803 l 493 0 l 594 0 l 594 793 b 636 931 594 899 601 914 l 657 940 l 657 963 l 475 963 l 475 940 l 503 929 b 550 783 547 911 550 897 l 550 464 l 547 464 l 306 963 z "},"Ņ":{"ha":663,"x_min":0,"x_max":0,"o":"m 6 963 l 6 940 l 28 929 b 67 819 61 913 67 896 l 67 169 b 28 33 67 63 63 50 l 6 22 l 6 0 l 185 0 l 185 22 l 157 33 b 111 179 114 50 111 65 l 111 803 l 114 803 l 493 0 l 594 0 l 594 793 b 636 931 594 899 601 914 l 657 940 l 657 963 l 475 963 l 475 940 l 503 929 b 550 783 547 911 550 897 l 550 464 l 547 464 l 306 963 z m 222 -344 b 440 -168 363 -335 440 -264 b 325 -53 440 -99 397 -53 b 229 -147 268 -53 229 -94 b 304 -222 229 -196 260 -222 b 360 -197 332 -222 350 -211 b 221 -331 358 -257 311 -303 z "},"Ň":{"ha":663,"x_min":0,"x_max":0,"o":"m 192 1189 l 185 1178 l 328 1007 l 390 1007 l 532 1178 l 525 1189 l 358 1136 z m 6 963 l 6 940 l 28 929 b 67 819 61 913 67 896 l 67 169 b 28 33 67 63 63 50 l 6 22 l 6 0 l 185 0 l 185 22 l 157 33 b 111 179 114 50 111 65 l 111 803 l 114 803 l 493 0 l 594 0 l 594 793 b 636 931 594 899 601 914 l 657 940 l 657 963 l 475 963 l 475 940 l 503 929 b 550 783 547 911 550 897 l 550 464 l 547 464 l 306 963 z "},"O":{"ha":739,"x_min":0,"x_max":0,"o":"m 367 -17 b 722 493 521 -17 722 113 b 372 979 722 860 539 979 b 17 469 217 979 17 847 b 367 -17 17 121 200 -17 z m 371 22 b 279 501 304 22 279 124 b 369 940 279 844 308 940 b 460 460 433 940 460 840 b 371 22 460 118 433 22 z "},"Ò":{"ha":739,"x_min":0,"x_max":0,"o":"m 524 999 l 529 1011 l 428 1131 b 324 1199 400 1164 371 1199 b 243 1106 271 1199 243 1156 b 346 1017 243 1051 281 1024 z m 367 -17 b 722 493 521 -17 722 113 b 372 979 722 860 539 979 b 17 469 217 979 17 847 b 367 -17 17 121 200 -17 z m 371 22 b 279 501 304 22 279 124 b 369 940 279 844 308 940 b 460 460 433 940 460 840 b 371 22 460 118 433 22 z "},"Ó":{"ha":739,"x_min":0,"x_max":0,"o":"m 264 999 l 442 1017 b 544 1106 507 1024 544 1054 b 464 1199 544 1158 517 1199 b 360 1131 417 1199 388 1164 l 258 1011 z m 367 -17 b 722 493 521 -17 722 113 b 372 979 722 860 539 979 b 17 469 217 979 17 847 b 367 -17 17 121 200 -17 z m 371 22 b 279 501 304 22 279 124 b 369 940 279 844 308 940 b 460 460 433 940 460 840 b 371 22 460 118 433 22 z "},"Ô":{"ha":739,"x_min":0,"x_max":0,"o":"m 201 1006 l 368 1058 l 535 1006 l 542 1017 l 399 1188 l 336 1188 l 194 1017 z m 367 -17 b 722 493 521 -17 722 113 b 372 979 722 860 539 979 b 17 469 217 979 17 847 b 367 -17 17 121 200 -17 z m 371 22 b 279 501 304 22 279 124 b 369 940 279 844 308 940 b 460 460 433 940 460 840 b 371 22 460 118 433 22 z "},"Õ":{"ha":739,"x_min":0,"x_max":0,"o":"m 315 1169 b 197 997 260 1169 226 1114 l 215 990 b 279 1042 235 1025 250 1042 b 456 1019 325 1042 413 1019 b 571 1192 515 1019 542 1074 l 553 1200 b 490 1147 533 1163 519 1147 b 315 1169 446 1147 364 1169 z m 367 -17 b 722 493 521 -17 722 113 b 372 979 722 860 539 979 b 17 469 217 979 17 847 b 367 -17 17 121 200 -17 z m 371 22 b 279 501 304 22 279 124 b 369 940 279 844 308 940 b 460 460 433 940 460 840 b 371 22 460 118 433 22 z "},"Ö":{"ha":739,"x_min":0,"x_max":0,"o":"m 256 1000 b 354 1101 311 1000 354 1038 b 256 1201 354 1163 313 1201 b 158 1101 200 1201 158 1163 b 256 1000 158 1038 200 1000 z m 489 1000 b 588 1101 544 1000 588 1038 b 489 1201 588 1163 546 1201 b 392 1101 433 1201 392 1163 b 489 1000 392 1038 433 1000 z m 367 -17 b 722 493 521 -17 722 113 b 372 979 722 860 539 979 b 17 469 217 979 17 847 b 367 -17 17 121 200 -17 z m 371 22 b 279 501 304 22 279 124 b 369 940 279 844 308 940 b 460 460 433 940 460 840 b 371 22 460 118 433 22 z "},"Ō":{"ha":739,"x_min":0,"x_max":0,"o":"m 236 1049 l 535 1049 l 535 1121 l 236 1121 z m 367 -17 b 722 493 521 -17 722 113 b 372 979 722 860 539 979 b 17 469 217 979 17 847 b 367 -17 17 121 200 -17 z m 371 22 b 279 501 304 22 279 124 b 369 940 279 844 308 940 b 460 460 433 940 460 840 b 371 22 460 118 433 22 z "},"Ŏ":{"ha":739,"x_min":0,"x_max":0,"o":"m 376 1006 b 526 1210 461 1006 518 1086 l 517 1213 b 376 1133 490 1160 438 1133 b 236 1213 315 1133 263 1160 l 226 1210 b 376 1006 235 1086 292 1006 z m 367 -17 b 722 493 521 -17 722 113 b 372 979 722 860 539 979 b 17 469 217 979 17 847 b 367 -17 17 121 200 -17 z m 371 22 b 279 501 304 22 279 124 b 369 940 279 844 308 940 b 460 460 433 940 460 840 b 371 22 460 118 433 22 z "},"Ő":{"ha":739,"x_min":0,"x_max":0,"o":"m 265 1015 l 388 1072 b 449 1160 428 1090 449 1122 b 369 1238 449 1199 410 1238 b 296 1157 332 1238 310 1207 l 257 1022 z m 447 1015 l 569 1072 b 631 1161 610 1090 631 1124 b 553 1238 631 1200 593 1238 b 478 1157 515 1238 492 1207 l 439 1022 z m 367 -17 b 722 493 521 -17 722 113 b 372 979 722 860 539 979 b 17 469 217 979 17 847 b 367 -17 17 121 200 -17 z m 371 22 b 279 501 304 22 279 124 b 369 940 279 844 308 940 b 460 460 433 940 460 840 b 371 22 460 118 433 22 z "},"Ơ":{"ha":739,"x_min":0,"x_max":0,"o":"m 367 -17 b 722 493 521 -17 722 113 b 574 908 722 708 660 838 b 742 1089 692 929 742 1001 b 653 1196 742 1163 704 1196 b 572 1117 606 1196 572 1167 b 646 999 572 1056 646 1036 b 522 943 646 971 618 944 b 372 979 474 968 422 979 b 17 469 217 979 17 847 b 367 -17 17 121 200 -17 z m 371 22 b 279 501 304 22 279 124 b 369 940 279 844 308 940 b 460 460 433 940 460 840 b 371 22 460 118 433 22 z "},"Ọ":{"ha":739,"x_min":0,"x_max":0,"o":"m 367 -17 b 722 493 521 -17 722 113 b 372 979 722 860 539 979 b 17 469 217 979 17 847 b 367 -17 17 121 200 -17 z m 371 22 b 279 501 304 22 279 124 b 369 940 279 844 308 940 b 460 460 433 940 460 840 b 371 22 460 118 433 22 z m 371 -265 b 475 -162 431 -265 475 -228 b 371 -60 475 -97 431 -60 b 267 -162 311 -60 267 -97 b 371 -265 267 -228 311 -265 z "},"Ỏ":{"ha":739,"x_min":0,"x_max":0,"o":"m 369 1004 l 369 1010 b 518 1154 369 1047 518 1069 b 381 1246 518 1210 478 1246 b 250 1167 314 1246 250 1218 b 296 1122 250 1140 269 1122 b 351 1176 326 1122 343 1133 b 376 1214 357 1201 360 1214 b 408 1181 394 1214 408 1203 b 336 1051 408 1131 336 1117 b 357 1004 336 1025 347 1014 z m 367 -17 b 722 493 521 -17 722 113 b 372 979 722 860 539 979 b 17 469 217 979 17 847 b 367 -17 17 121 200 -17 z m 371 22 b 279 501 304 22 279 124 b 369 940 279 844 308 940 b 460 460 433 940 460 840 b 371 22 460 118 433 22 z "},"Ố":{"ha":739,"x_min":0,"x_max":0,"o":"m 468 1140 l 582 1178 b 642 1243 619 1189 642 1214 b 576 1314 642 1292 601 1314 b 511 1263 543 1314 525 1293 l 460 1147 z m 201 1006 l 368 1058 l 535 1006 l 542 1017 l 399 1188 l 336 1188 l 194 1017 z m 367 -17 b 722 493 521 -17 722 113 b 372 979 722 860 539 979 b 17 469 217 979 17 847 b 367 -17 17 121 200 -17 z m 371 22 b 279 501 304 22 279 124 b 369 940 279 844 308 940 b 460 460 433 940 460 840 b 371 22 460 118 433 22 z "},"Ồ":{"ha":739,"x_min":0,"x_max":0,"o":"m 593 1140 l 601 1147 l 550 1263 b 485 1314 536 1293 518 1314 b 419 1243 460 1314 419 1292 b 479 1178 419 1214 442 1189 z m 201 1006 l 368 1058 l 535 1006 l 542 1017 l 399 1188 l 336 1188 l 194 1017 z m 367 -17 b 722 493 521 -17 722 113 b 372 979 722 860 539 979 b 17 469 217 979 17 847 b 367 -17 17 121 200 -17 z m 371 22 b 279 501 304 22 279 124 b 369 940 279 844 308 940 b 460 460 433 940 460 840 b 371 22 460 118 433 22 z "},"Ổ":{"ha":739,"x_min":0,"x_max":0,"o":"m 518 1138 l 518 1140 b 647 1261 518 1175 647 1189 b 522 1342 647 1308 610 1342 b 406 1271 464 1342 406 1317 b 447 1233 406 1249 424 1233 b 497 1281 475 1233 490 1244 b 521 1313 501 1301 504 1313 b 549 1283 536 1313 549 1303 b 486 1178 549 1240 486 1233 b 506 1138 486 1156 497 1144 z m 201 1006 l 368 1058 l 535 1006 l 542 1017 l 399 1188 l 336 1188 l 194 1017 z m 367 -17 b 722 493 521 -17 722 113 b 372 979 722 860 539 979 b 17 469 217 979 17 847 b 367 -17 17 121 200 -17 z m 371 22 b 279 501 304 22 279 124 b 369 940 279 844 308 940 b 460 460 433 940 460 840 b 371 22 460 118 433 22 z "},"Ỗ":{"ha":739,"x_min":0,"x_max":0,"o":"m 324 1392 b 206 1219 268 1392 235 1336 l 224 1213 b 288 1264 243 1247 258 1264 b 450 1242 333 1264 407 1242 b 565 1414 510 1242 536 1296 l 547 1422 b 485 1369 528 1385 514 1369 b 324 1392 440 1369 372 1392 z m 201 1006 l 368 1058 l 535 1006 l 542 1017 l 399 1188 l 336 1188 l 194 1017 z m 367 -17 b 722 493 521 -17 722 113 b 372 979 722 860 539 979 b 17 469 217 979 17 847 b 367 -17 17 121 200 -17 z m 371 22 b 279 501 304 22 279 124 b 369 940 279 844 308 940 b 460 460 433 940 460 840 b 371 22 460 118 433 22 z "},"Ộ":{"ha":739,"x_min":0,"x_max":0,"o":"m 201 1006 l 368 1058 l 535 1006 l 542 1017 l 399 1188 l 336 1188 l 194 1017 z m 367 -17 b 722 493 521 -17 722 113 b 372 979 722 860 539 979 b 17 469 217 979 17 847 b 367 -17 17 121 200 -17 z m 371 22 b 279 501 304 22 279 124 b 369 940 279 844 308 940 b 460 460 433 940 460 840 b 371 22 460 118 433 22 z m 371 -265 b 475 -162 431 -265 475 -228 b 371 -60 475 -97 431 -60 b 267 -162 311 -60 267 -97 b 371 -265 267 -228 311 -265 z "},"Ớ":{"ha":739,"x_min":0,"x_max":0,"o":"m 250 999 l 428 1017 b 531 1106 493 1024 531 1054 b 450 1199 531 1158 503 1199 b 346 1131 403 1199 374 1164 l 244 1011 z m 367 -17 b 722 493 521 -17 722 113 b 574 908 722 708 660 838 b 742 1089 692 929 742 1001 b 653 1196 742 1163 704 1196 b 572 1117 606 1196 572 1167 b 646 999 572 1056 646 1036 b 522 943 646 971 618 944 b 372 979 474 968 422 979 b 17 469 217 979 17 847 b 367 -17 17 121 200 -17 z m 371 22 b 279 501 304 22 279 124 b 369 940 279 844 308 940 b 460 460 433 940 460 840 b 371 22 460 118 433 22 z "},"Ờ":{"ha":739,"x_min":0,"x_max":0,"o":"m 496 999 l 501 1011 l 400 1131 b 296 1199 372 1164 343 1199 b 215 1106 243 1199 215 1156 b 318 1017 215 1051 253 1024 z m 367 -17 b 722 493 521 -17 722 113 b 574 908 722 708 660 838 b 742 1089 692 929 742 1001 b 653 1196 742 1163 704 1196 b 572 1117 606 1196 572 1167 b 646 999 572 1056 646 1036 b 522 943 646 971 618 944 b 372 979 474 968 422 979 b 17 469 217 979 17 847 b 367 -17 17 121 200 -17 z m 371 22 b 279 501 304 22 279 124 b 369 940 279 844 308 940 b 460 460 433 940 460 840 b 371 22 460 118 433 22 z "},"Ở":{"ha":739,"x_min":0,"x_max":0,"o":"m 369 1004 l 369 1010 b 518 1154 369 1047 518 1069 b 381 1246 518 1210 478 1246 b 250 1167 314 1246 250 1218 b 296 1122 250 1140 269 1122 b 351 1176 326 1122 343 1133 b 376 1214 357 1201 360 1214 b 408 1181 394 1214 408 1203 b 336 1051 408 1131 336 1117 b 357 1004 336 1025 347 1014 z m 367 -17 b 722 493 521 -17 722 113 b 574 908 722 708 660 838 b 742 1089 692 929 742 1001 b 653 1196 742 1163 704 1196 b 572 1117 606 1196 572 1167 b 646 999 572 1056 646 1036 b 522 943 646 971 618 944 b 372 979 474 968 422 979 b 17 469 217 979 17 847 b 367 -17 17 121 200 -17 z m 371 22 b 279 501 304 22 279 124 b 369 940 279 844 308 940 b 460 460 433 940 460 840 b 371 22 460 118 433 22 z "},"Ỡ":{"ha":739,"x_min":0,"x_max":0,"o":"m 290 1169 b 172 997 235 1169 201 1114 l 190 990 b 254 1042 210 1025 225 1042 b 431 1019 300 1042 388 1019 b 546 1192 490 1019 517 1074 l 528 1200 b 465 1147 508 1163 494 1147 b 290 1169 421 1147 339 1169 z m 367 -17 b 722 493 521 -17 722 113 b 574 908 722 708 660 838 b 742 1089 692 929 742 1001 b 653 1196 742 1163 704 1196 b 572 1117 606 1196 572 1167 b 646 999 572 1056 646 1036 b 522 943 646 971 618 944 b 372 979 474 968 422 979 b 17 469 217 979 17 847 b 367 -17 17 121 200 -17 z m 371 22 b 279 501 304 22 279 124 b 369 940 279 844 308 940 b 460 460 433 940 460 840 b 371 22 460 118 433 22 z "},"Ợ":{"ha":739,"x_min":0,"x_max":0,"o":"m 367 -17 b 722 493 521 -17 722 113 b 574 908 722 708 660 838 b 742 1089 692 929 742 1001 b 653 1196 742 1163 704 1196 b 572 1117 606 1196 572 1167 b 646 999 572 1056 646 1036 b 522 943 646 971 618 944 b 372 979 474 968 422 979 b 17 469 217 979 17 847 b 367 -17 17 121 200 -17 z m 371 22 b 279 501 304 22 279 124 b 369 940 279 844 308 940 b 460 460 433 940 460 840 b 371 22 460 118 433 22 z m 371 -265 b 475 -162 431 -265 475 -228 b 371 -60 475 -97 431 -60 b 267 -162 311 -60 267 -97 b 371 -265 267 -228 311 -265 z "},"P":{"ha":689,"x_min":0,"x_max":0,"o":"m 6 0 l 392 0 l 392 22 l 364 32 b 314 143 319 47 314 49 l 314 915 b 350 918 322 917 338 918 b 426 689 403 918 426 876 b 338 450 426 511 410 458 l 338 421 b 415 408 351 415 379 408 b 675 694 567 408 675 500 b 360 963 675 882 571 963 l 6 963 l 6 940 l 26 931 b 67 819 61 914 67 914 l 67 143 b 26 31 67 49 63 44 l 6 22 z "},"Q":{"ha":739,"x_min":0,"x_max":0,"o":"m 758 -110 l 758 -89 b 689 -103 732 -99 713 -103 b 581 -58 651 -103 617 -92 b 511 38 547 -26 526 4 l 511 40 b 722 493 629 96 722 215 b 372 979 722 853 544 979 b 17 469 217 979 17 847 b 232 13 17 211 117 65 b 361 -150 269 -50 308 -107 b 543 -210 414 -193 471 -210 b 758 -110 642 -210 714 -168 z m 371 18 b 279 501 306 18 279 125 b 369 940 279 844 308 940 b 460 460 433 940 460 840 b 371 18 460 119 433 18 z "},"R":{"ha":743,"x_min":0,"x_max":0,"o":"m 6 0 l 372 0 l 372 22 l 353 31 b 314 143 317 46 314 50 l 314 432 b 335 429 319 431 332 429 b 458 0 371 286 419 118 l 760 0 l 760 22 l 746 29 b 707 72 729 38 719 44 b 553 481 661 174 593 367 l 553 485 b 682 714 636 519 682 590 b 371 963 682 889 582 963 l 6 963 l 6 940 l 26 931 b 67 819 61 914 67 914 l 67 143 b 26 31 67 49 63 44 l 6 22 z m 346 468 b 314 474 335 468 319 471 l 314 913 b 349 915 321 914 333 915 b 431 699 408 915 431 861 b 346 468 431 521 406 468 z "},"Ŕ":{"ha":743,"x_min":0,"x_max":0,"o":"m 271 999 l 449 1017 b 551 1106 514 1024 551 1054 b 471 1199 551 1158 524 1199 b 367 1131 424 1199 394 1164 l 265 1011 z m 6 0 l 372 0 l 372 22 l 353 31 b 314 143 317 46 314 50 l 314 432 b 335 429 319 431 332 429 b 458 0 371 286 419 118 l 760 0 l 760 22 l 746 29 b 707 72 729 38 719 44 b 553 481 661 174 593 367 l 553 485 b 682 714 636 519 682 590 b 371 963 682 889 582 963 l 6 963 l 6 940 l 26 931 b 67 819 61 914 67 914 l 67 143 b 26 31 67 49 63 44 l 6 22 z m 346 468 b 314 474 335 468 319 471 l 314 913 b 349 915 321 914 333 915 b 431 699 408 915 431 861 b 346 468 431 521 406 468 z "},"Ŗ":{"ha":743,"x_min":0,"x_max":0,"o":"m 6 0 l 372 0 l 372 22 l 353 31 b 314 143 317 46 314 50 l 314 432 b 335 429 319 431 332 429 b 458 0 371 286 419 118 l 760 0 l 760 22 l 746 29 b 707 72 729 38 719 44 b 553 481 661 174 593 367 l 553 485 b 682 714 636 519 682 590 b 371 963 682 889 582 963 l 6 963 l 6 940 l 26 931 b 67 819 61 914 67 914 l 67 143 b 26 31 67 49 63 44 l 6 22 z m 346 468 b 314 474 335 468 319 471 l 314 913 b 349 915 321 914 333 915 b 431 699 408 915 431 861 b 346 468 431 521 406 468 z m 264 -344 b 482 -168 404 -335 482 -264 b 367 -53 482 -99 439 -53 b 271 -147 310 -53 271 -94 b 346 -222 271 -196 301 -222 b 401 -197 374 -222 392 -211 b 263 -331 400 -257 353 -303 z "},"Ř":{"ha":743,"x_min":0,"x_max":0,"o":"m 206 1189 l 199 1178 l 342 1007 l 404 1007 l 546 1178 l 539 1189 l 372 1136 z m 6 0 l 372 0 l 372 22 l 353 31 b 314 143 317 46 314 50 l 314 432 b 335 429 319 431 332 429 b 458 0 371 286 419 118 l 760 0 l 760 22 l 746 29 b 707 72 729 38 719 44 b 553 481 661 174 593 367 l 553 485 b 682 714 636 519 682 590 b 371 963 682 889 582 963 l 6 963 l 6 940 l 26 931 b 67 819 61 914 67 914 l 67 143 b 26 31 67 49 63 44 l 6 22 z m 346 468 b 314 474 335 468 319 471 l 314 913 b 349 915 321 914 333 915 b 431 699 408 915 431 861 b 346 468 431 521 406 468 z "},"S":{"ha":579,"x_min":0,"x_max":0,"o":"m 257 -17 b 569 311 451 -17 569 136 b 347 621 569 476 489 540 b 206 808 243 681 206 721 b 299 940 206 879 238 940 b 404 876 339 940 371 921 b 489 704 442 828 464 775 l 511 704 l 503 940 b 310 979 461 963 383 979 b 19 667 144 979 19 861 b 215 360 19 515 94 426 b 364 163 332 296 364 251 b 261 22 364 71 324 22 b 140 101 210 22 176 44 b 49 292 106 156 81 206 l 26 292 l 39 25 b 257 -17 81 -1 169 -17 z "},"Ś":{"ha":579,"x_min":0,"x_max":0,"o":"m 188 999 l 365 1017 b 468 1106 431 1024 468 1054 b 388 1199 468 1158 440 1199 b 283 1131 340 1199 311 1164 l 182 1011 z m 257 -17 b 569 311 451 -17 569 136 b 347 621 569 476 489 540 b 206 808 243 681 206 721 b 299 940 206 879 238 940 b 404 876 339 940 371 921 b 489 704 442 828 464 775 l 511 704 l 503 940 b 310 979 461 963 383 979 b 19 667 144 979 19 861 b 215 360 19 515 94 426 b 364 163 332 296 364 251 b 261 22 364 71 324 22 b 140 101 210 22 176 44 b 49 292 106 156 81 206 l 26 292 l 39 25 b 257 -17 81 -1 169 -17 z "},"Ŝ":{"ha":579,"x_min":0,"x_max":0,"o":"m 146 1006 l 313 1058 l 479 1006 l 486 1017 l 343 1188 l 281 1188 l 139 1017 z m 257 -17 b 569 311 451 -17 569 136 b 347 621 569 476 489 540 b 206 808 243 681 206 721 b 299 940 206 879 238 940 b 404 876 339 940 371 921 b 489 704 442 828 464 775 l 511 704 l 503 940 b 310 979 461 963 383 979 b 19 667 144 979 19 861 b 215 360 19 515 94 426 b 364 163 332 296 364 251 b 261 22 364 71 324 22 b 140 101 210 22 176 44 b 49 292 106 156 81 206 l 26 292 l 39 25 b 257 -17 81 -1 169 -17 z "},"Ş":{"ha":579,"x_min":0,"x_max":0,"o":"m 139 -281 b 356 -144 267 -268 356 -228 b 256 -57 356 -97 322 -65 l 276 -17 b 569 311 460 -7 569 142 b 347 621 569 476 489 540 b 206 808 243 681 206 721 b 299 940 206 879 238 940 b 404 876 339 940 371 921 b 489 704 442 828 464 775 l 511 704 l 503 940 b 310 979 461 963 383 979 b 19 667 144 979 19 861 b 215 360 19 515 94 426 b 364 163 332 296 364 251 b 261 22 364 71 324 22 b 140 101 210 22 176 44 b 49 292 106 156 81 206 l 26 292 l 39 25 b 240 -17 78 0 158 -15 l 185 -137 l 188 -144 b 244 -181 218 -146 244 -154 b 139 -260 244 -215 203 -243 z "},"Š":{"ha":579,"x_min":0,"x_max":0,"o":"m 135 1189 l 128 1178 l 271 1007 l 333 1007 l 475 1178 l 468 1189 l 301 1136 z m 257 -17 b 569 311 451 -17 569 136 b 347 621 569 476 489 540 b 206 808 243 681 206 721 b 299 940 206 879 238 940 b 404 876 339 940 371 921 b 489 704 442 828 464 775 l 511 704 l 503 940 b 310 979 461 963 383 979 b 19 667 144 979 19 861 b 215 360 19 515 94 426 b 364 163 332 296 364 251 b 261 22 364 71 324 22 b 140 101 210 22 176 44 b 49 292 106 156 81 206 l 26 292 l 39 25 b 257 -17 81 -1 169 -17 z "},"Ș":{"ha":579,"x_min":0,"x_max":0,"o":"m 257 -17 b 569 311 451 -17 569 136 b 347 621 569 476 489 540 b 206 808 243 681 206 721 b 299 940 206 879 238 940 b 404 876 339 940 371 921 b 489 704 442 828 464 775 l 511 704 l 503 940 b 310 979 461 963 383 979 b 19 667 144 979 19 861 b 215 360 19 515 94 426 b 364 163 332 296 364 251 b 261 22 364 71 324 22 b 140 101 210 22 176 44 b 49 292 106 156 81 206 l 26 292 l 39 25 b 257 -17 81 -1 169 -17 z m 149 -344 b 367 -168 289 -335 367 -264 b 251 -53 367 -99 324 -53 b 156 -147 194 -53 156 -94 b 231 -222 156 -196 186 -222 b 286 -197 258 -222 276 -211 b 147 -331 285 -257 238 -303 z "},"T":{"ha":675,"x_min":0,"x_max":0,"o":"m 461 918 l 476 918 b 557 849 508 918 531 899 b 638 635 582 801 607 736 l 661 635 l 653 963 l 22 963 l 14 635 l 38 635 b 118 849 68 736 93 801 b 199 918 144 899 167 918 l 214 918 l 214 143 b 164 32 214 49 208 47 l 136 22 l 136 0 l 539 0 l 539 22 l 511 32 b 461 143 467 47 461 49 z "},"Ţ":{"ha":675,"x_min":0,"x_max":0,"o":"m 210 -281 b 426 -144 338 -268 426 -228 b 326 -57 426 -97 393 -65 l 356 0 l 539 0 l 539 22 l 511 32 b 461 143 467 47 461 49 l 461 918 l 476 918 b 557 849 508 918 531 899 b 638 635 582 801 607 736 l 661 635 l 653 963 l 22 963 l 14 635 l 38 635 b 118 849 68 736 93 801 b 199 918 144 899 167 918 l 214 918 l 214 143 b 164 32 214 49 208 47 l 136 22 l 136 0 l 319 0 l 256 -137 l 258 -144 b 315 -181 289 -146 315 -154 b 210 -260 315 -215 274 -243 z "},"Ť":{"ha":675,"x_min":0,"x_max":0,"o":"m 185 1189 l 178 1178 l 321 1007 l 383 1007 l 525 1178 l 518 1189 l 351 1136 z m 461 918 l 476 918 b 557 849 508 918 531 899 b 638 635 582 801 607 736 l 661 635 l 653 963 l 22 963 l 14 635 l 38 635 b 118 849 68 736 93 801 b 199 918 144 899 167 918 l 214 918 l 214 143 b 164 32 214 49 208 47 l 136 22 l 136 0 l 539 0 l 539 22 l 511 32 b 461 143 467 47 461 49 z "},"Ț":{"ha":675,"x_min":0,"x_max":0,"o":"m 461 918 l 476 918 b 557 849 508 918 531 899 b 638 635 582 801 607 736 l 661 635 l 653 963 l 22 963 l 14 635 l 38 635 b 118 849 68 736 93 801 b 199 918 144 899 167 918 l 214 918 l 214 143 b 164 32 214 49 208 47 l 136 22 l 136 0 l 539 0 l 539 22 l 511 32 b 461 143 467 47 461 49 z m 231 -344 b 449 -168 371 -335 449 -264 b 333 -53 449 -99 406 -53 b 238 -147 276 -53 238 -94 b 313 -222 238 -196 268 -222 b 368 -197 340 -222 358 -211 b 229 -331 367 -257 319 -303 z "},"Ṭ":{"ha":675,"x_min":0,"x_max":0,"o":"m 461 918 l 476 918 b 557 849 508 918 531 899 b 638 635 582 801 607 736 l 661 635 l 653 963 l 22 963 l 14 635 l 38 635 b 118 849 68 736 93 801 b 199 918 144 899 167 918 l 214 918 l 214 143 b 164 32 214 49 208 47 l 136 22 l 136 0 l 539 0 l 539 22 l 511 32 b 461 143 467 47 461 49 z m 338 -265 b 442 -162 397 -265 442 -228 b 338 -60 442 -97 397 -60 b 233 -162 278 -60 233 -97 b 338 -265 233 -228 278 -265 z "},"U":{"ha":681,"x_min":0,"x_max":0,"o":"m 315 819 b 357 931 315 914 321 915 l 379 940 l 379 963 l 4 963 l 4 940 l 26 931 b 68 819 63 915 68 914 l 68 289 b 349 -17 68 43 176 -17 b 614 261 547 -17 614 89 l 614 793 b 657 931 614 900 624 914 l 676 940 l 676 963 l 494 963 l 494 940 l 521 929 b 569 783 564 911 569 896 l 569 275 b 443 65 569 135 532 65 b 315 261 354 65 315 114 z "},"Ù":{"ha":681,"x_min":0,"x_max":0,"o":"m 542 999 l 547 1011 l 446 1131 b 342 1199 418 1164 389 1199 b 261 1106 289 1199 261 1156 b 364 1017 261 1051 299 1024 z m 315 819 b 357 931 315 914 321 915 l 379 940 l 379 963 l 4 963 l 4 940 l 26 931 b 68 819 63 915 68 914 l 68 289 b 349 -17 68 43 176 -17 b 614 261 547 -17 614 89 l 614 793 b 657 931 614 900 624 914 l 676 940 l 676 963 l 494 963 l 494 940 l 521 929 b 569 783 564 911 569 896 l 569 275 b 443 65 569 135 532 65 b 315 261 354 65 315 114 z "},"Ú":{"ha":681,"x_min":0,"x_max":0,"o":"m 307 999 l 485 1017 b 588 1106 550 1024 588 1054 b 507 1199 588 1158 560 1199 b 403 1131 460 1199 431 1164 l 301 1011 z m 315 819 b 357 931 315 914 321 915 l 379 940 l 379 963 l 4 963 l 4 940 l 26 931 b 68 819 63 915 68 914 l 68 289 b 349 -17 68 43 176 -17 b 614 261 547 -17 614 89 l 614 793 b 657 931 614 900 624 914 l 676 940 l 676 963 l 494 963 l 494 940 l 521 929 b 569 783 564 911 569 896 l 569 275 b 443 65 569 135 532 65 b 315 261 354 65 315 114 z "},"Û":{"ha":681,"x_min":0,"x_max":0,"o":"m 226 1006 l 393 1058 l 560 1006 l 567 1017 l 424 1188 l 361 1188 l 219 1017 z m 315 819 b 357 931 315 914 321 915 l 379 940 l 379 963 l 4 963 l 4 940 l 26 931 b 68 819 63 915 68 914 l 68 289 b 349 -17 68 43 176 -17 b 614 261 547 -17 614 89 l 614 793 b 657 931 614 900 624 914 l 676 940 l 676 963 l 494 963 l 494 940 l 521 929 b 569 783 564 911 569 896 l 569 275 b 443 65 569 135 532 65 b 315 261 354 65 315 114 z "},"Ü":{"ha":681,"x_min":0,"x_max":0,"o":"m 290 1000 b 389 1101 346 1000 389 1038 b 290 1201 389 1163 347 1201 b 193 1101 235 1201 193 1163 b 290 1000 193 1038 235 1000 z m 524 1000 b 622 1101 579 1000 622 1038 b 524 1201 622 1163 581 1201 b 426 1101 468 1201 426 1163 b 524 1000 426 1038 468 1000 z m 315 819 b 357 931 315 914 321 915 l 379 940 l 379 963 l 4 963 l 4 940 l 26 931 b 68 819 63 915 68 914 l 68 289 b 349 -17 68 43 176 -17 b 614 261 547 -17 614 89 l 614 793 b 657 931 614 900 624 914 l 676 940 l 676 963 l 494 963 l 494 940 l 521 929 b 569 783 564 911 569 896 l 569 275 b 443 65 569 135 532 65 b 315 261 354 65 315 114 z "},"Ũ":{"ha":681,"x_min":0,"x_max":0,"o":"m 349 1169 b 231 997 293 1169 260 1114 l 249 990 b 313 1042 268 1025 283 1042 b 489 1019 358 1042 446 1019 b 604 1192 549 1019 575 1074 l 586 1200 b 524 1147 567 1163 553 1147 b 349 1169 479 1147 397 1169 z m 315 819 b 357 931 315 914 321 915 l 379 940 l 379 963 l 4 963 l 4 940 l 26 931 b 68 819 63 915 68 914 l 68 289 b 349 -17 68 43 176 -17 b 614 261 547 -17 614 89 l 614 793 b 657 931 614 900 624 914 l 676 940 l 676 963 l 494 963 l 494 940 l 521 929 b 569 783 564 911 569 896 l 569 275 b 443 65 569 135 532 65 b 315 261 354 65 315 114 z "},"Ū":{"ha":681,"x_min":0,"x_max":0,"o":"m 263 1049 l 561 1049 l 561 1121 l 263 1121 z m 315 819 b 357 931 315 914 321 915 l 379 940 l 379 963 l 4 963 l 4 940 l 26 931 b 68 819 63 915 68 914 l 68 289 b 349 -17 68 43 176 -17 b 614 261 547 -17 614 89 l 614 793 b 657 931 614 900 624 914 l 676 940 l 676 963 l 494 963 l 494 940 l 521 929 b 569 783 564 911 569 896 l 569 275 b 443 65 569 135 532 65 b 315 261 354 65 315 114 z "},"Ŭ":{"ha":681,"x_min":0,"x_max":0,"o":"m 421 1006 b 571 1210 506 1006 563 1086 l 561 1213 b 421 1133 535 1160 482 1133 b 281 1213 360 1133 307 1160 l 271 1210 b 421 1006 279 1086 336 1006 z m 315 819 b 357 931 315 914 321 915 l 379 940 l 379 963 l 4 963 l 4 940 l 26 931 b 68 819 63 915 68 914 l 68 289 b 349 -17 68 43 176 -17 b 614 261 547 -17 614 89 l 614 793 b 657 931 614 900 624 914 l 676 940 l 676 963 l 494 963 l 494 940 l 521 929 b 569 783 564 911 569 896 l 569 275 b 443 65 569 135 532 65 b 315 261 354 65 315 114 z "},"Ů":{"ha":681,"x_min":0,"x_max":0,"o":"m 313 1115 b 429 997 313 1046 367 997 b 546 1115 496 997 546 1046 b 429 1232 546 1183 493 1232 b 313 1115 367 1232 313 1183 z m 358 1115 b 429 1197 358 1161 385 1197 b 500 1115 475 1197 500 1161 b 429 1032 500 1067 475 1032 b 358 1115 385 1032 358 1067 z m 315 819 b 357 931 315 914 321 915 l 379 940 l 379 963 l 4 963 l 4 940 l 26 931 b 68 819 63 915 68 914 l 68 289 b 349 -17 68 43 176 -17 b 614 261 547 -17 614 89 l 614 793 b 657 931 614 900 624 914 l 676 940 l 676 963 l 494 963 l 494 940 l 521 929 b 569 783 564 911 569 896 l 569 275 b 443 65 569 135 532 65 b 315 261 354 65 315 114 z "},"Ű":{"ha":681,"x_min":0,"x_max":0,"o":"m 275 1015 l 397 1072 b 458 1160 438 1090 458 1122 b 379 1238 458 1199 419 1238 b 306 1157 342 1238 319 1207 l 267 1022 z m 457 1015 l 579 1072 b 640 1161 619 1090 640 1124 b 563 1238 640 1200 603 1238 b 488 1157 525 1238 501 1207 l 449 1022 z m 315 819 b 357 931 315 914 321 915 l 379 940 l 379 963 l 4 963 l 4 940 l 26 931 b 68 819 63 915 68 914 l 68 289 b 349 -17 68 43 176 -17 b 614 261 547 -17 614 89 l 614 793 b 657 931 614 900 624 914 l 676 940 l 676 963 l 494 963 l 494 940 l 521 929 b 569 783 564 911 569 896 l 569 275 b 443 65 569 135 532 65 b 315 261 354 65 315 114 z "},"Ų":{"ha":681,"x_min":0,"x_max":0,"o":"m 297 -182 b 406 -285 297 -250 339 -285 b 522 -233 465 -285 506 -258 l 522 -217 b 492 -222 514 -221 500 -222 b 429 -149 463 -222 429 -208 b 510 8 429 -93 456 -46 b 614 261 583 82 614 150 l 614 793 b 657 931 614 900 624 914 l 676 940 l 676 963 l 494 963 l 494 940 l 521 929 b 569 783 564 911 569 896 l 569 275 b 443 65 569 135 532 65 b 315 261 354 65 315 114 l 315 819 b 357 931 315 914 321 915 l 379 940 l 379 963 l 4 963 l 4 940 l 26 931 b 68 819 63 915 68 914 l 68 289 b 349 -17 68 43 176 -17 b 457 -4 392 -17 421 -14 b 297 -182 350 -67 297 -111 z "},"Ư":{"ha":722,"x_min":0,"x_max":0,"o":"m 315 819 b 357 931 315 914 321 915 l 379 940 l 379 963 l 4 963 l 4 940 l 26 931 b 68 819 63 915 68 914 l 68 289 b 349 -17 68 43 176 -17 b 614 261 547 -17 614 89 l 614 925 b 781 1093 722 938 781 1003 b 692 1200 781 1167 743 1200 b 611 1121 644 1200 611 1169 b 685 1001 611 1058 685 1039 b 578 963 685 972 646 963 l 494 963 l 494 940 l 521 929 b 569 783 564 911 569 896 l 569 275 b 443 65 569 135 532 65 b 315 261 354 65 315 114 z "},"Ụ":{"ha":681,"x_min":0,"x_max":0,"o":"m 315 819 b 357 931 315 914 321 915 l 379 940 l 379 963 l 4 963 l 4 940 l 26 931 b 68 819 63 915 68 914 l 68 289 b 349 -17 68 43 176 -17 b 614 261 547 -17 614 89 l 614 793 b 657 931 614 900 624 914 l 676 940 l 676 963 l 494 963 l 494 940 l 521 929 b 569 783 564 911 569 896 l 569 275 b 443 65 569 135 532 65 b 315 261 354 65 315 114 z m 369 -265 b 474 -162 429 -265 474 -228 b 369 -60 474 -97 429 -60 b 265 -162 310 -60 265 -97 b 369 -265 265 -228 310 -265 z "},"Ủ":{"ha":681,"x_min":0,"x_max":0,"o":"m 421 1004 l 421 1010 b 569 1154 421 1047 569 1069 b 432 1246 569 1210 529 1246 b 301 1167 365 1246 301 1218 b 347 1122 301 1140 321 1122 b 403 1176 378 1122 394 1133 b 428 1214 408 1201 411 1214 b 460 1181 446 1214 460 1203 b 388 1051 460 1131 388 1117 b 408 1004 388 1025 399 1014 z m 315 819 b 357 931 315 914 321 915 l 379 940 l 379 963 l 4 963 l 4 940 l 26 931 b 68 819 63 915 68 914 l 68 289 b 349 -17 68 43 176 -17 b 614 261 547 -17 614 89 l 614 793 b 657 931 614 900 624 914 l 676 940 l 676 963 l 494 963 l 494 940 l 521 929 b 569 783 564 911 569 896 l 569 275 b 443 65 569 135 532 65 b 315 261 354 65 315 114 z "},"Ứ":{"ha":722,"x_min":0,"x_max":0,"o":"m 315 819 b 357 931 315 914 321 915 l 379 940 l 379 963 l 4 963 l 4 940 l 26 931 b 68 819 63 915 68 914 l 68 289 b 349 -17 68 43 176 -17 b 614 261 547 -17 614 89 l 614 925 b 781 1093 722 938 781 1003 b 692 1200 781 1167 743 1200 b 611 1121 644 1200 611 1169 b 685 1001 611 1058 685 1039 b 578 963 685 972 646 963 l 494 963 l 494 940 l 521 929 b 569 783 564 911 569 896 l 569 275 b 443 65 569 135 532 65 b 315 261 354 65 315 114 z m 301 999 l 479 1017 b 582 1106 544 1024 582 1054 b 501 1199 582 1158 554 1199 b 397 1131 454 1199 425 1164 l 296 1011 z "},"Ừ":{"ha":722,"x_min":0,"x_max":0,"o":"m 315 819 b 357 931 315 914 321 915 l 379 940 l 379 963 l 4 963 l 4 940 l 26 931 b 68 819 63 915 68 914 l 68 289 b 349 -17 68 43 176 -17 b 614 261 547 -17 614 89 l 614 925 b 781 1093 722 938 781 1003 b 692 1200 781 1167 743 1200 b 611 1121 644 1200 611 1169 b 685 1001 611 1058 685 1039 b 578 963 685 972 646 963 l 494 963 l 494 940 l 521 929 b 569 783 564 911 569 896 l 569 275 b 443 65 569 135 532 65 b 315 261 354 65 315 114 z m 547 999 l 553 1011 l 451 1131 b 347 1199 424 1164 394 1199 b 267 1106 294 1199 267 1156 b 369 1017 267 1051 304 1024 z "},"Ử":{"ha":722,"x_min":0,"x_max":0,"o":"m 421 1004 l 421 1010 b 569 1154 421 1047 569 1069 b 432 1246 569 1210 529 1246 b 301 1167 365 1246 301 1218 b 347 1122 301 1140 321 1122 b 403 1176 378 1122 394 1133 b 428 1214 408 1201 411 1214 b 460 1181 446 1214 460 1203 b 388 1051 460 1131 388 1117 b 408 1004 388 1025 399 1014 z m 315 819 b 357 931 315 914 321 915 l 379 940 l 379 963 l 4 963 l 4 940 l 26 931 b 68 819 63 915 68 914 l 68 289 b 349 -17 68 43 176 -17 b 614 261 547 -17 614 89 l 614 925 b 781 1093 722 938 781 1003 b 692 1200 781 1167 743 1200 b 611 1121 644 1200 611 1169 b 685 1001 611 1058 685 1039 b 578 963 685 972 646 963 l 494 963 l 494 940 l 521 929 b 569 783 564 911 569 896 l 569 275 b 443 65 569 135 532 65 b 315 261 354 65 315 114 z "},"Ữ":{"ha":722,"x_min":0,"x_max":0,"o":"m 315 819 b 357 931 315 914 321 915 l 379 940 l 379 963 l 4 963 l 4 940 l 26 931 b 68 819 63 915 68 914 l 68 289 b 349 -17 68 43 176 -17 b 614 261 547 -17 614 89 l 614 925 b 781 1093 722 938 781 1003 b 692 1200 781 1167 743 1200 b 611 1121 644 1200 611 1169 b 685 1001 611 1058 685 1039 b 578 963 685 972 646 963 l 494 963 l 494 940 l 521 929 b 569 783 564 911 569 896 l 569 275 b 443 65 569 135 532 65 b 315 261 354 65 315 114 z m 342 1169 b 224 997 286 1169 253 1114 l 242 990 b 306 1042 261 1025 276 1042 b 482 1019 351 1042 439 1019 b 597 1192 542 1019 568 1074 l 579 1200 b 517 1147 560 1163 546 1147 b 342 1169 472 1147 390 1169 z "},"Ự":{"ha":722,"x_min":0,"x_max":0,"o":"m 315 819 b 357 931 315 914 321 915 l 379 940 l 379 963 l 4 963 l 4 940 l 26 931 b 68 819 63 915 68 914 l 68 289 b 349 -17 68 43 176 -17 b 614 261 547 -17 614 89 l 614 925 b 781 1093 722 938 781 1003 b 692 1200 781 1167 743 1200 b 611 1121 644 1200 611 1169 b 685 1001 611 1058 685 1039 b 578 963 685 972 646 963 l 494 963 l 494 940 l 521 929 b 569 783 564 911 569 896 l 569 275 b 443 65 569 135 532 65 b 315 261 354 65 315 114 z m 369 -265 b 474 -162 429 -265 474 -228 b 369 -60 474 -97 429 -60 b 265 -162 310 -60 265 -97 b 369 -265 265 -228 310 -265 z "},"V":{"ha":679,"x_min":0,"x_max":0,"o":"m 685 963 l 499 963 l 499 940 l 522 931 b 565 871 553 918 565 903 b 550 764 565 842 560 811 l 456 313 l 453 313 l 346 765 b 328 874 335 814 328 850 b 368 931 328 904 342 919 l 392 940 l 392 963 l -3 963 l -3 940 l 13 933 b 75 792 40 921 51 883 l 281 0 l 432 0 l 603 790 b 671 932 622 878 643 915 l 685 940 z "},"W":{"ha":1022,"x_min":0,"x_max":0,"o":"m 847 963 l 847 940 l 869 931 b 908 871 896 919 908 908 b 894 765 908 839 903 806 l 804 318 l 801 318 l 722 765 b 707 874 714 810 707 846 b 740 931 707 904 715 921 l 764 940 l 764 963 l 388 963 l 388 940 l 400 933 b 460 839 431 917 449 894 l 504 621 l 436 318 l 433 318 l 338 765 b 318 876 328 810 318 847 b 350 933 318 908 329 925 l 367 940 l 367 963 l -7 963 l -7 940 l 10 933 b 67 810 36 922 44 901 l 260 0 l 407 0 l 524 528 l 633 0 l 779 0 l 943 772 b 1014 933 965 879 983 917 l 1026 940 l 1026 963 z "},"Ŵ":{"ha":1022,"x_min":0,"x_max":0,"o":"m 403 1006 l 569 1058 l 736 1006 l 743 1017 l 600 1188 l 538 1188 l 396 1017 z m 847 963 l 847 940 l 869 931 b 908 871 896 919 908 908 b 894 765 908 839 903 806 l 804 318 l 801 318 l 722 765 b 707 874 714 810 707 846 b 740 931 707 904 715 921 l 764 940 l 764 963 l 388 963 l 388 940 l 400 933 b 460 839 431 917 449 894 l 504 621 l 436 318 l 433 318 l 338 765 b 318 876 328 810 318 847 b 350 933 318 908 329 925 l 367 940 l 367 963 l -7 963 l -7 940 l 10 933 b 67 810 36 922 44 901 l 260 0 l 407 0 l 524 528 l 633 0 l 779 0 l 943 772 b 1014 933 965 879 983 917 l 1026 940 l 1026 963 z "},"Ẁ":{"ha":1022,"x_min":0,"x_max":0,"o":"m 697 999 l 703 1011 l 601 1131 b 497 1199 574 1164 544 1199 b 417 1106 444 1199 417 1156 b 519 1017 417 1051 454 1024 z m 847 963 l 847 940 l 869 931 b 908 871 896 919 908 908 b 894 765 908 839 903 806 l 804 318 l 801 318 l 722 765 b 707 874 714 810 707 846 b 740 931 707 904 715 921 l 764 940 l 764 963 l 388 963 l 388 940 l 400 933 b 460 839 431 917 449 894 l 504 621 l 436 318 l 433 318 l 338 765 b 318 876 328 810 318 847 b 350 933 318 908 329 925 l 367 940 l 367 963 l -7 963 l -7 940 l 10 933 b 67 810 36 922 44 901 l 260 0 l 407 0 l 524 528 l 633 0 l 779 0 l 943 772 b 1014 933 965 879 983 917 l 1026 940 l 1026 963 z "},"Ẃ":{"ha":1022,"x_min":0,"x_max":0,"o":"m 483 999 l 661 1017 b 764 1106 726 1024 764 1054 b 683 1199 764 1158 736 1199 b 579 1131 636 1199 607 1164 l 478 1011 z m 847 963 l 847 940 l 869 931 b 908 871 896 919 908 908 b 894 765 908 839 903 806 l 804 318 l 801 318 l 722 765 b 707 874 714 810 707 846 b 740 931 707 904 715 921 l 764 940 l 764 963 l 388 963 l 388 940 l 400 933 b 460 839 431 917 449 894 l 504 621 l 436 318 l 433 318 l 338 765 b 318 876 328 810 318 847 b 350 933 318 908 329 925 l 367 940 l 367 963 l -7 963 l -7 940 l 10 933 b 67 810 36 922 44 901 l 260 0 l 407 0 l 524 528 l 633 0 l 779 0 l 943 772 b 1014 933 965 879 983 917 l 1026 940 l 1026 963 z "},"Ẅ":{"ha":1022,"x_min":0,"x_max":0,"o":"m 439 1000 b 538 1101 494 1000 538 1038 b 439 1201 538 1163 496 1201 b 342 1101 383 1201 342 1163 b 439 1000 342 1038 383 1000 z m 672 1000 b 771 1101 728 1000 771 1038 b 672 1201 771 1163 729 1201 b 575 1101 617 1201 575 1163 b 672 1000 575 1038 617 1000 z m 847 963 l 847 940 l 869 931 b 908 871 896 919 908 908 b 894 765 908 839 903 806 l 804 318 l 801 318 l 722 765 b 707 874 714 810 707 846 b 740 931 707 904 715 921 l 764 940 l 764 963 l 388 963 l 388 940 l 400 933 b 460 839 431 917 449 894 l 504 621 l 436 318 l 433 318 l 338 765 b 318 876 328 810 318 847 b 350 933 318 908 329 925 l 367 940 l 367 963 l -7 963 l -7 940 l 10 933 b 67 810 36 922 44 901 l 260 0 l 407 0 l 524 528 l 633 0 l 779 0 l 943 772 b 1014 933 965 879 983 917 l 1026 940 l 1026 963 z "},"X":{"ha":690,"x_min":0,"x_max":0,"o":"m 350 886 b 386 929 350 908 363 919 l 415 940 l 415 963 l 8 963 l 8 940 l 22 931 b 89 831 51 911 64 894 l 233 451 l 107 156 b 10 28 69 68 51 49 l -1 22 l -1 0 l 211 0 l 211 22 l 183 32 b 144 79 157 42 144 53 b 175 194 144 106 154 143 l 256 397 l 258 397 l 335 178 b 361 81 350 133 361 104 b 324 32 361 56 350 42 l 296 22 l 296 0 l 692 0 l 692 22 l 679 28 b 617 133 657 38 653 40 l 472 514 l 579 799 b 669 933 614 892 635 918 l 685 940 l 685 963 l 481 963 l 481 940 l 504 931 b 547 878 532 919 547 904 b 525 778 547 854 542 825 l 450 567 l 447 567 l 375 783 b 350 886 357 836 350 863 z "},"Y":{"ha":663,"x_min":0,"x_max":0,"o":"m 667 963 l 485 963 l 485 940 l 507 931 b 550 867 539 917 550 897 b 532 775 550 842 544 811 l 446 515 l 443 515 l 344 792 b 326 872 332 828 326 851 b 378 931 326 904 344 918 l 404 940 l 404 963 l -11 963 l -11 940 l 0 935 b 64 817 22 924 28 907 l 221 425 l 221 143 b 182 32 221 49 218 46 l 157 22 l 157 0 l 529 0 l 529 22 l 504 32 b 465 143 468 46 465 49 l 465 443 l 586 801 b 654 933 618 896 632 921 l 667 940 z "},"Ý":{"ha":663,"x_min":0,"x_max":0,"o":"m 307 999 l 485 1017 b 588 1106 550 1024 588 1054 b 507 1199 588 1158 560 1199 b 403 1131 460 1199 431 1164 l 301 1011 z m 667 963 l 485 963 l 485 940 l 507 931 b 550 867 539 917 550 897 b 532 775 550 842 544 811 l 446 515 l 443 515 l 344 792 b 326 872 332 828 326 851 b 378 931 326 904 344 918 l 404 940 l 404 963 l -11 963 l -11 940 l 0 935 b 64 817 22 924 28 907 l 221 425 l 221 143 b 182 32 221 49 218 46 l 157 22 l 157 0 l 529 0 l 529 22 l 504 32 b 465 143 468 46 465 49 l 465 443 l 586 801 b 654 933 618 896 632 921 l 667 940 z "},"Ŷ":{"ha":663,"x_min":0,"x_max":0,"o":"m 226 1006 l 393 1058 l 560 1006 l 567 1017 l 424 1188 l 361 1188 l 219 1017 z m 667 963 l 485 963 l 485 940 l 507 931 b 550 867 539 917 550 897 b 532 775 550 842 544 811 l 446 515 l 443 515 l 344 792 b 326 872 332 828 326 851 b 378 931 326 904 344 918 l 404 940 l 404 963 l -11 963 l -11 940 l 0 935 b 64 817 22 924 28 907 l 221 425 l 221 143 b 182 32 221 49 218 46 l 157 22 l 157 0 l 529 0 l 529 22 l 504 32 b 465 143 468 46 465 49 l 465 443 l 586 801 b 654 933 618 896 632 921 l 667 940 z "},"Ÿ":{"ha":663,"x_min":0,"x_max":0,"o":"m 288 1000 b 386 1101 343 1000 386 1038 b 288 1201 386 1163 344 1201 b 190 1101 232 1201 190 1163 b 288 1000 190 1038 232 1000 z m 521 1000 b 619 1101 576 1000 619 1038 b 521 1201 619 1163 578 1201 b 424 1101 465 1201 424 1163 b 521 1000 424 1038 465 1000 z m 667 963 l 485 963 l 485 940 l 507 931 b 550 867 539 917 550 897 b 532 775 550 842 544 811 l 446 515 l 443 515 l 344 792 b 326 872 332 828 326 851 b 378 931 326 904 344 918 l 404 940 l 404 963 l -11 963 l -11 940 l 0 935 b 64 817 22 924 28 907 l 221 425 l 221 143 b 182 32 221 49 218 46 l 157 22 l 157 0 l 529 0 l 529 22 l 504 32 b 465 143 468 46 465 49 l 465 443 l 586 801 b 654 933 618 896 632 921 l 667 940 z "},"Ỳ":{"ha":663,"x_min":0,"x_max":0,"o":"m 528 999 l 533 1011 l 432 1131 b 328 1199 404 1164 375 1199 b 247 1106 275 1199 247 1156 b 350 1017 247 1051 285 1024 z m 667 963 l 485 963 l 485 940 l 507 931 b 550 867 539 917 550 897 b 532 775 550 842 544 811 l 446 515 l 443 515 l 344 792 b 326 872 332 828 326 851 b 378 931 326 904 344 918 l 404 940 l 404 963 l -11 963 l -11 940 l 0 935 b 64 817 22 924 28 907 l 221 425 l 221 143 b 182 32 221 49 218 46 l 157 22 l 157 0 l 529 0 l 529 22 l 504 32 b 465 143 468 46 465 49 l 465 443 l 586 801 b 654 933 618 896 632 921 l 667 940 z "},"Ỵ":{"ha":663,"x_min":0,"x_max":0,"o":"m 667 963 l 485 963 l 485 940 l 507 931 b 550 867 539 917 550 897 b 532 775 550 842 544 811 l 446 515 l 443 515 l 344 792 b 326 872 332 828 326 851 b 378 931 326 904 344 918 l 404 940 l 404 963 l -11 963 l -11 940 l 0 935 b 64 817 22 924 28 907 l 221 425 l 221 143 b 182 32 221 49 218 46 l 157 22 l 157 0 l 529 0 l 529 22 l 504 32 b 465 143 468 46 465 49 l 465 443 l 586 801 b 654 933 618 896 632 921 l 667 940 z m 343 -265 b 447 -162 403 -265 447 -228 b 343 -60 447 -97 403 -60 b 239 -162 283 -60 239 -97 b 343 -265 239 -228 283 -265 z "},"Ỷ":{"ha":663,"x_min":0,"x_max":0,"o":"m 424 1004 l 424 1010 b 572 1154 424 1047 572 1069 b 435 1246 572 1210 532 1246 b 304 1167 368 1246 304 1218 b 350 1122 304 1140 324 1122 b 406 1176 381 1122 397 1133 b 431 1214 411 1201 414 1214 b 463 1181 449 1214 463 1203 b 390 1051 463 1131 390 1117 b 411 1004 390 1025 401 1014 z m 667 963 l 485 963 l 485 940 l 507 931 b 550 867 539 917 550 897 b 532 775 550 842 544 811 l 446 515 l 443 515 l 344 792 b 326 872 332 828 326 851 b 378 931 326 904 344 918 l 404 940 l 404 963 l -11 963 l -11 940 l 0 935 b 64 817 22 924 28 907 l 221 425 l 221 143 b 182 32 221 49 218 46 l 157 22 l 157 0 l 529 0 l 529 22 l 504 32 b 465 143 468 46 465 49 l 465 443 l 586 801 b 654 933 618 896 632 921 l 667 940 z "},"Ỹ":{"ha":663,"x_min":0,"x_max":0,"o":"m 344 1169 b 226 997 289 1169 256 1114 l 244 990 b 308 1042 264 1025 279 1042 b 485 1019 354 1042 442 1019 b 600 1192 544 1019 571 1074 l 582 1200 b 519 1147 563 1163 549 1147 b 344 1169 475 1147 393 1169 z m 667 963 l 485 963 l 485 940 l 507 931 b 550 867 539 917 550 897 b 532 775 550 842 544 811 l 446 515 l 443 515 l 344 792 b 326 872 332 828 326 851 b 378 931 326 904 344 918 l 404 940 l 404 963 l -11 963 l -11 940 l 0 935 b 64 817 22 924 28 907 l 221 425 l 221 143 b 182 32 221 49 218 46 l 157 22 l 157 0 l 529 0 l 529 22 l 504 32 b 465 143 468 46 465 49 l 465 443 l 586 801 b 654 933 618 896 632 921 l 667 940 z "},"Z":{"ha":636,"x_min":0,"x_max":0,"o":"m 22 0 l 590 0 l 610 343 l 586 343 b 500 124 560 253 533 185 b 310 43 463 54 428 43 l 286 43 l 286 49 l 601 918 l 601 963 l 63 963 l 49 643 l 71 643 b 160 856 107 756 133 814 b 308 919 190 904 218 919 l 338 919 l 338 915 l 22 44 z "},"Ź":{"ha":636,"x_min":0,"x_max":0,"o":"m 260 999 l 438 1017 b 540 1106 503 1024 540 1054 b 460 1199 540 1158 513 1199 b 356 1131 413 1199 383 1164 l 254 1011 z m 22 0 l 590 0 l 610 343 l 586 343 b 500 124 560 253 533 185 b 310 43 463 54 428 43 l 286 43 l 286 49 l 601 918 l 601 963 l 63 963 l 49 643 l 71 643 b 160 856 107 756 133 814 b 308 919 190 904 218 919 l 338 919 l 338 915 l 22 44 z "},"Ż":{"ha":636,"x_min":0,"x_max":0,"o":"m 361 1006 b 474 1115 426 1006 474 1046 b 361 1226 474 1186 426 1226 b 249 1115 296 1226 249 1186 b 361 1006 249 1046 296 1006 z m 22 0 l 590 0 l 610 343 l 586 343 b 500 124 560 253 533 185 b 310 43 463 54 428 43 l 286 43 l 286 49 l 601 918 l 601 963 l 63 963 l 49 643 l 71 643 b 160 856 107 756 133 814 b 308 919 190 904 218 919 l 338 919 l 338 915 l 22 44 z "},"Ž":{"ha":636,"x_min":0,"x_max":0,"o":"m 204 1189 l 197 1178 l 340 1007 l 403 1007 l 544 1178 l 538 1189 l 371 1136 z m 22 0 l 590 0 l 610 343 l 586 343 b 500 124 560 253 533 185 b 310 43 463 54 428 43 l 286 43 l 286 49 l 601 918 l 601 963 l 63 963 l 49 643 l 71 643 b 160 856 107 756 133 814 b 308 919 190 904 218 919 l 338 919 l 338 915 l 22 44 z "},"Æ":{"ha":896,"x_min":0,"x_max":0,"o":"m -10 22 l -10 0 l 194 0 l 194 22 l 172 32 b 129 86 135 49 129 61 b 156 199 129 114 139 146 l 190 306 l 363 306 l 363 143 b 321 32 363 49 357 46 l 300 22 l 300 0 l 865 0 l 879 333 l 857 333 b 786 126 831 235 815 186 b 674 46 757 67 736 46 b 610 140 621 46 610 61 l 610 478 l 619 478 b 700 433 674 478 689 468 b 731 324 713 396 719 369 l 753 324 l 753 665 l 731 665 b 701 563 719 618 714 594 b 619 521 689 531 674 521 l 610 521 l 610 910 b 669 917 621 913 638 917 b 763 850 719 917 733 901 b 833 682 786 808 807 761 l 856 682 l 847 963 l 279 963 l 279 940 l 300 931 b 339 904 317 922 331 914 l 99 188 b 4 29 58 69 44 49 z m 360 824 l 363 824 l 363 353 l 206 353 z "},"Ǽ":{"ha":896,"x_min":0,"x_max":0,"o":"m 478 999 l 656 1017 b 758 1106 721 1024 758 1054 b 678 1199 758 1158 731 1199 b 574 1131 631 1199 601 1164 l 472 1011 z m -10 22 l -10 0 l 194 0 l 194 22 l 172 32 b 129 86 135 49 129 61 b 156 199 129 114 139 146 l 190 306 l 363 306 l 363 143 b 321 32 363 49 357 46 l 300 22 l 300 0 l 865 0 l 879 333 l 857 333 b 786 126 831 235 815 186 b 674 46 757 67 736 46 b 610 140 621 46 610 61 l 610 478 l 619 478 b 700 433 674 478 689 468 b 731 324 713 396 719 369 l 753 324 l 753 665 l 731 665 b 701 563 719 618 714 594 b 619 521 689 531 674 521 l 610 521 l 610 910 b 669 917 621 913 638 917 b 763 850 719 917 733 901 b 833 682 786 808 807 761 l 856 682 l 847 963 l 279 963 l 279 940 l 300 931 b 339 904 317 922 331 914 l 99 188 b 4 29 58 69 44 49 z m 360 824 l 363 824 l 363 353 l 206 353 z "},"Ð":{"ha":744,"x_min":0,"x_max":0,"o":"m 6 0 l 364 0 b 729 503 593 0 729 190 b 367 963 729 817 599 963 l 6 963 l 6 940 l 26 931 b 67 819 61 914 67 914 l 67 503 l 17 503 l 17 460 l 67 460 l 67 143 b 26 31 67 49 63 44 l 6 22 z m 360 44 b 314 132 328 44 314 58 l 314 460 l 404 460 l 404 503 l 314 503 l 314 914 b 354 917 325 915 336 917 b 468 467 429 917 468 824 b 360 44 468 179 435 44 z "},"Ø":{"ha":729,"x_min":0,"x_max":0,"o":"m 67 -72 l 110 -72 l 172 54 b 361 -17 231 6 297 -17 b 713 493 514 -17 713 121 b 589 885 713 683 661 810 l 653 1014 l 610 1014 l 558 913 b 367 979 500 958 432 979 b 17 469 214 979 17 839 b 143 81 17 286 69 158 z m 269 501 b 364 940 269 844 301 940 b 453 699 411 940 440 885 l 272 338 b 269 501 271 386 269 440 z m 365 22 b 275 260 317 22 288 78 l 456 621 b 458 460 457 574 458 519 b 365 22 458 118 429 22 z "},"Ǿ":{"ha":729,"x_min":0,"x_max":0,"o":"m 264 999 l 442 1017 b 544 1106 507 1024 544 1054 b 464 1199 544 1158 517 1199 b 360 1131 417 1199 388 1164 l 258 1011 z m 67 -72 l 110 -72 l 172 54 b 361 -17 231 6 297 -17 b 713 493 514 -17 713 121 b 589 885 713 683 661 810 l 653 1014 l 610 1014 l 558 913 b 367 979 500 958 432 979 b 17 469 214 979 17 839 b 143 81 17 286 69 158 z m 269 501 b 364 940 269 844 301 940 b 453 699 411 940 440 885 l 272 338 b 269 501 271 386 269 440 z m 365 22 b 275 260 317 22 288 78 l 456 621 b 458 460 457 574 458 519 b 365 22 458 118 429 22 z "},"Þ":{"ha":692,"x_min":0,"x_max":0,"o":"m 69 143 b 31 32 69 49 67 46 l 6 22 l 6 0 l 394 0 l 394 22 l 367 32 b 317 143 322 47 317 49 l 317 724 b 351 726 325 725 339 726 b 429 500 404 726 429 688 b 340 261 429 322 413 269 l 340 232 b 418 219 354 226 382 219 b 678 506 569 219 678 311 b 363 774 678 693 574 774 l 317 774 l 317 819 b 358 931 317 914 322 915 l 381 940 l 381 963 l 6 963 l 6 940 l 28 931 b 69 819 64 915 69 914 z "},"Đ":{"ha":744,"x_min":0,"x_max":0,"o":"m 6 0 l 364 0 b 729 503 593 0 729 190 b 367 963 729 817 599 963 l 6 963 l 6 940 l 26 931 b 67 819 61 914 67 914 l 67 503 l 21 503 l 21 460 l 67 460 l 67 143 b 26 31 67 49 63 44 l 6 22 z m 360 44 b 314 132 328 44 314 58 l 314 460 l 404 460 l 404 503 l 314 503 l 314 914 b 354 917 325 915 336 917 b 468 467 429 917 468 824 b 360 44 468 179 435 44 z "},"Ħ":{"ha":768,"x_min":0,"x_max":0,"o":"m 6 0 l 371 0 l 371 22 l 356 29 b 314 143 318 46 314 50 l 314 471 l 457 471 l 457 143 b 417 29 457 50 454 46 l 401 22 l 401 0 l 764 0 l 764 22 l 744 31 b 704 143 708 46 704 49 l 704 692 l 765 692 l 765 733 l 704 733 l 704 819 b 744 931 704 914 708 913 l 764 940 l 764 963 l 401 963 l 401 940 l 417 932 b 457 819 453 913 457 913 l 457 733 l 314 733 l 314 819 b 356 932 314 913 319 913 l 371 940 l 371 963 l 6 963 l 6 940 l 26 931 b 67 819 63 914 67 914 l 67 733 l 11 733 l 11 692 l 67 692 l 67 143 b 26 31 67 49 63 44 l 6 22 z m 314 514 l 314 692 l 457 692 l 457 514 z "},"Ĳ":{"ha":922,"x_min":0,"x_max":0,"o":"m 6 0 l 381 0 l 381 22 l 356 32 b 317 143 319 46 317 49 l 317 819 b 358 931 317 914 322 915 l 381 940 l 381 963 l 6 963 l 6 940 l 28 931 b 69 819 64 915 69 914 l 69 143 b 31 32 69 49 67 46 l 6 22 z m 610 133 b 583 31 610 51 601 31 b 565 60 571 31 568 36 b 463 214 549 183 519 214 b 375 125 404 214 375 178 b 572 -14 375 50 433 -14 b 857 349 750 -14 857 135 l 857 819 b 897 931 857 914 861 913 l 917 940 l 917 963 l 544 963 l 544 940 l 568 931 b 610 819 606 915 610 914 z "},"Ŀ":{"ha":597,"x_min":0,"x_max":0,"o":"m 6 0 l 575 0 l 592 318 l 569 318 b 499 126 546 232 528 181 b 378 44 464 63 436 44 b 314 135 325 44 314 61 l 314 819 b 363 931 314 914 319 914 l 388 940 l 388 963 l 6 963 l 6 940 l 26 931 b 67 819 61 914 67 914 l 67 143 b 26 31 67 49 63 44 l 6 22 z m 482 421 b 594 531 547 421 594 461 b 482 642 594 601 547 642 b 369 531 417 642 369 601 b 482 421 369 461 417 421 z "},"Ł":{"ha":600,"x_min":0,"x_max":0,"o":"m 6 0 l 575 0 l 594 351 l 572 351 b 496 129 544 251 524 186 b 378 42 460 56 436 42 b 314 133 325 42 314 60 l 314 474 l 476 550 l 476 594 l 314 518 l 314 819 b 363 931 314 914 319 914 l 388 940 l 388 963 l 6 963 l 6 940 l 26 931 b 67 819 61 914 67 914 l 67 404 l 6 375 l 6 331 l 67 360 l 67 143 b 26 31 67 49 63 44 l 6 22 z "},"Ŋ":{"ha":651,"x_min":0,"x_max":0,"o":"m 583 -11 l 583 793 b 625 931 583 899 590 914 l 646 940 l 646 963 l 464 963 l 464 940 l 492 929 b 539 783 536 911 539 897 l 539 482 l 536 482 l 306 963 l 6 963 l 6 940 l 28 929 b 67 819 61 913 67 896 l 67 169 b 28 33 67 63 63 50 l 6 22 l 6 0 l 185 0 l 185 22 l 157 33 b 111 179 114 50 111 65 l 111 803 l 114 803 l 535 -74 b 490 -201 532 -165 519 -201 b 458 -168 478 -201 463 -193 b 374 -69 446 -90 419 -69 b 297 -150 322 -69 297 -107 b 438 -260 297 -212 342 -260 b 583 -11 551 -260 583 -171 z "},"Œ":{"ha":996,"x_min":0,"x_max":0,"o":"m 947 963 l 381 963 b 17 469 197 963 17 821 b 374 0 17 122 174 0 l 965 0 l 979 333 l 957 333 b 886 126 931 235 915 186 b 763 46 857 67 829 46 b 690 140 703 46 690 61 l 690 478 l 714 478 b 800 433 769 478 789 468 b 831 324 813 396 819 369 l 853 324 l 853 665 l 831 665 b 801 563 819 618 814 594 b 714 521 789 531 769 521 l 690 521 l 690 910 b 757 917 701 913 725 917 b 863 850 807 917 833 901 b 933 682 886 808 907 761 l 956 682 z m 443 168 b 385 44 443 90 432 44 b 279 503 304 44 279 172 b 381 919 279 806 321 919 b 443 804 426 919 443 886 z "},"Ŧ":{"ha":675,"x_min":0,"x_max":0,"o":"m 589 493 l 589 542 l 461 542 l 461 918 l 476 918 b 557 849 508 918 531 899 b 638 635 582 801 607 736 l 661 635 l 653 963 l 22 963 l 14 635 l 38 635 b 118 849 68 736 93 801 b 199 918 144 899 167 918 l 214 918 l 214 542 l 89 542 l 89 493 l 214 493 l 214 143 b 164 32 214 49 208 47 l 136 22 l 136 0 l 539 0 l 539 22 l 511 32 b 461 143 467 47 461 49 l 461 493 z "},"a":{"ha":590,"x_min":0,"x_max":0,"o":"m 163 -17 b 317 69 243 -17 293 22 l 321 69 b 450 -17 333 15 378 -17 b 594 38 515 -17 564 11 l 594 58 b 561 69 583 60 572 63 b 542 158 543 81 542 93 l 542 549 b 293 746 542 693 446 746 b 36 604 114 746 36 679 b 118 522 36 556 65 522 b 222 647 182 522 211 558 b 264 706 228 692 239 706 b 310 540 303 706 310 667 l 310 400 l 217 371 b 11 158 79 328 11 283 b 163 -17 11 51 69 -17 z m 279 85 b 235 215 247 85 235 117 b 293 343 235 313 257 338 l 310 346 l 310 96 b 279 85 304 90 292 85 z "},"à":{"ha":590,"x_min":0,"x_max":0,"o":"m 403 790 l 408 803 l 307 936 b 208 1004 281 971 256 1004 b 122 911 156 1004 122 961 b 221 822 122 860 156 833 z m 163 -17 b 317 69 243 -17 293 22 l 321 69 b 450 -17 333 15 378 -17 b 594 38 515 -17 564 11 l 594 58 b 561 69 583 60 572 63 b 542 158 543 81 542 93 l 542 549 b 293 746 542 693 446 746 b 36 604 114 746 36 679 b 118 522 36 556 65 522 b 222 647 182 522 211 558 b 264 706 228 692 239 706 b 310 540 303 706 310 667 l 310 400 l 217 371 b 11 158 79 328 11 283 b 163 -17 11 51 69 -17 z m 279 85 b 235 215 247 85 235 117 b 293 343 235 313 257 338 l 310 346 l 310 96 b 279 85 304 90 292 85 z "},"á":{"ha":590,"x_min":0,"x_max":0,"o":"m 172 790 l 354 822 b 453 911 419 833 453 860 b 367 1004 453 961 419 1004 b 268 936 319 1004 294 971 l 167 803 z m 163 -17 b 317 69 243 -17 293 22 l 321 69 b 450 -17 333 15 378 -17 b 594 38 515 -17 564 11 l 594 58 b 561 69 583 60 572 63 b 542 158 543 81 542 93 l 542 549 b 293 746 542 693 446 746 b 36 604 114 746 36 679 b 118 522 36 556 65 522 b 222 647 182 522 211 558 b 264 706 228 692 239 706 b 310 540 303 706 310 667 l 310 400 l 217 371 b 11 158 79 328 11 283 b 163 -17 11 51 69 -17 z m 279 85 b 235 215 247 85 235 117 b 293 343 235 313 257 338 l 310 346 l 310 96 b 279 85 304 90 292 85 z "},"â":{"ha":590,"x_min":0,"x_max":0,"o":"m 322 997 l 243 997 l 124 792 l 133 781 l 283 861 l 433 781 l 443 792 z m 163 -17 b 317 69 243 -17 293 22 l 321 69 b 450 -17 333 15 378 -17 b 594 38 515 -17 564 11 l 594 58 b 561 69 583 60 572 63 b 542 158 543 81 542 93 l 542 549 b 293 746 542 693 446 746 b 36 604 114 746 36 679 b 118 522 36 556 65 522 b 222 647 182 522 211 558 b 264 706 228 692 239 706 b 310 540 303 706 310 667 l 310 400 l 217 371 b 11 158 79 328 11 283 b 163 -17 11 51 69 -17 z m 279 85 b 235 215 247 85 235 117 b 293 343 235 313 257 338 l 310 346 l 310 96 b 279 85 304 90 292 85 z "},"ã":{"ha":590,"x_min":0,"x_max":0,"o":"m 236 963 b 118 790 181 963 147 907 l 136 783 b 200 835 156 818 171 835 b 363 813 246 835 319 813 b 478 985 422 813 449 867 l 460 993 b 397 940 440 956 426 940 b 236 963 353 940 285 963 z m 163 -17 b 317 69 243 -17 293 22 l 321 69 b 450 -17 333 15 378 -17 b 594 38 515 -17 564 11 l 594 58 b 561 69 583 60 572 63 b 542 158 543 81 542 93 l 542 549 b 293 746 542 693 446 746 b 36 604 114 746 36 679 b 118 522 36 556 65 522 b 222 647 182 522 211 558 b 264 706 228 692 239 706 b 310 540 303 706 310 667 l 310 400 l 217 371 b 11 158 79 328 11 283 b 163 -17 11 51 69 -17 z m 279 85 b 235 215 247 85 235 117 b 293 343 235 313 257 338 l 310 346 l 310 96 b 279 85 304 90 292 85 z "},"ä":{"ha":590,"x_min":0,"x_max":0,"o":"m 169 793 b 268 894 225 793 268 831 b 169 994 268 956 226 994 b 72 894 114 994 72 956 b 169 793 72 831 114 793 z m 394 793 b 493 894 450 793 493 831 b 394 994 493 956 451 994 b 297 894 339 994 297 956 b 394 793 297 831 339 793 z m 163 -17 b 317 69 243 -17 293 22 l 321 69 b 450 -17 333 15 378 -17 b 594 38 515 -17 564 11 l 594 58 b 561 69 583 60 572 63 b 542 158 543 81 542 93 l 542 549 b 293 746 542 693 446 746 b 36 604 114 746 36 679 b 118 522 36 556 65 522 b 222 647 182 522 211 558 b 264 706 228 692 239 706 b 310 540 303 706 310 667 l 310 400 l 217 371 b 11 158 79 328 11 283 b 163 -17 11 51 69 -17 z m 279 85 b 235 215 247 85 235 117 b 293 343 235 313 257 338 l 310 346 l 310 96 b 279 85 304 90 292 85 z "},"å":{"ha":590,"x_min":0,"x_max":0,"o":"m 160 901 b 276 783 160 832 214 783 b 393 901 343 783 393 832 b 276 1018 393 969 340 1018 b 160 901 214 1018 160 969 z m 206 901 b 276 983 206 947 232 983 b 347 901 322 983 347 947 b 276 818 347 853 322 818 b 206 901 232 818 206 853 z m 163 -17 b 317 69 243 -17 293 22 l 321 69 b 450 -17 333 15 378 -17 b 594 38 515 -17 564 11 l 594 58 b 561 69 583 60 572 63 b 542 158 543 81 542 93 l 542 549 b 293 746 542 693 446 746 b 36 604 114 746 36 679 b 118 522 36 556 65 522 b 222 647 182 522 211 558 b 264 706 228 692 239 706 b 310 540 303 706 310 667 l 310 400 l 217 371 b 11 158 79 328 11 283 b 163 -17 11 51 69 -17 z m 279 85 b 235 215 247 85 235 117 b 293 343 235 313 257 338 l 310 346 l 310 96 b 279 85 304 90 292 85 z "},"ā":{"ha":590,"x_min":0,"x_max":0,"o":"m 140 832 l 432 832 l 432 914 l 140 914 z m 163 -17 b 317 69 243 -17 293 22 l 321 69 b 450 -17 333 15 378 -17 b 594 38 515 -17 564 11 l 594 58 b 561 69 583 60 572 63 b 542 158 543 81 542 93 l 542 549 b 293 746 542 693 446 746 b 36 604 114 746 36 679 b 118 522 36 556 65 522 b 222 647 182 522 211 558 b 264 706 228 692 239 706 b 310 540 303 706 310 667 l 310 400 l 217 371 b 11 158 79 328 11 283 b 163 -17 11 51 69 -17 z m 279 85 b 235 215 247 85 235 117 b 293 343 235 313 257 338 l 310 346 l 310 96 b 279 85 304 90 292 85 z "},"ă":{"ha":590,"x_min":0,"x_max":0,"o":"m 288 785 b 424 989 365 785 415 865 l 414 992 b 288 913 388 939 349 913 b 161 992 226 913 188 939 l 151 989 b 288 785 160 865 210 785 z m 163 -17 b 317 69 243 -17 293 22 l 321 69 b 450 -17 333 15 378 -17 b 594 38 515 -17 564 11 l 594 58 b 561 69 583 60 572 63 b 542 158 543 81 542 93 l 542 549 b 293 746 542 693 446 746 b 36 604 114 746 36 679 b 118 522 36 556 65 522 b 222 647 182 522 211 558 b 264 706 228 692 239 706 b 310 540 303 706 310 667 l 310 400 l 217 371 b 11 158 79 328 11 283 b 163 -17 11 51 69 -17 z m 279 85 b 235 215 247 85 235 117 b 293 343 235 313 257 338 l 310 346 l 310 96 b 279 85 304 90 292 85 z "},"ą":{"ha":590,"x_min":0,"x_max":0,"o":"m 163 -17 b 317 69 243 -17 293 22 l 321 69 b 450 -17 333 15 378 -17 b 521 -6 474 -17 500 -11 b 356 -185 415 -57 356 -101 b 464 -285 356 -247 396 -285 b 574 -236 519 -285 554 -262 l 574 -217 b 546 -221 564 -219 556 -221 b 490 -156 511 -221 490 -203 b 594 38 490 -96 521 -33 l 594 58 b 561 69 583 60 572 63 b 542 158 543 81 542 93 l 542 550 b 293 747 542 694 446 747 b 36 606 114 747 36 681 b 118 524 36 557 65 524 b 222 649 182 524 211 560 b 264 707 228 693 239 707 b 310 542 303 707 310 668 l 310 400 l 217 371 b 11 158 79 328 11 283 b 163 -17 11 51 69 -17 z m 279 85 b 235 215 247 85 235 117 b 293 343 235 313 257 338 l 310 346 l 310 96 b 279 85 304 90 292 85 z "},"ǻ":{"ha":590,"x_min":0,"x_max":0,"o":"m 146 1051 l 324 1069 b 426 1158 389 1076 426 1107 b 346 1251 426 1211 399 1251 b 242 1183 299 1251 269 1217 l 140 1064 z m 158 907 b 275 789 158 838 213 789 b 392 907 342 789 392 838 b 275 1024 392 975 339 1024 b 158 907 213 1024 158 975 z m 204 907 b 275 989 204 953 231 989 b 346 907 321 989 346 953 b 275 824 346 858 321 824 b 204 907 231 824 204 858 z m 163 -17 b 317 69 243 -17 293 22 l 321 69 b 450 -17 333 15 378 -17 b 594 38 515 -17 564 11 l 594 58 b 561 69 583 60 572 63 b 542 158 543 81 542 93 l 542 549 b 293 746 542 693 446 746 b 36 604 114 746 36 679 b 118 522 36 556 65 522 b 222 647 182 522 211 558 b 264 706 228 692 239 706 b 310 540 303 706 310 667 l 310 400 l 217 371 b 11 158 79 328 11 283 b 163 -17 11 51 69 -17 z m 279 85 b 235 215 247 85 235 117 b 293 343 235 313 257 338 l 310 346 l 310 96 b 279 85 304 90 292 85 z "},"ạ":{"ha":590,"x_min":0,"x_max":0,"o":"m 163 -17 b 317 69 243 -17 293 22 l 321 69 b 450 -17 333 15 378 -17 b 594 38 515 -17 564 11 l 594 58 b 561 69 583 60 572 63 b 542 158 543 81 542 93 l 542 549 b 293 746 542 693 446 746 b 36 604 114 746 36 679 b 118 522 36 556 65 522 b 222 647 182 522 211 558 b 264 706 228 692 239 706 b 310 540 303 706 310 667 l 310 400 l 217 371 b 11 158 79 328 11 283 b 163 -17 11 51 69 -17 z m 279 85 b 235 215 247 85 235 117 b 293 343 235 313 257 338 l 310 346 l 310 96 b 279 85 304 90 292 85 z m 314 -265 b 418 -162 374 -265 418 -228 b 314 -60 418 -97 374 -60 b 210 -162 254 -60 210 -97 b 314 -265 210 -228 254 -265 z "},"ả":{"ha":590,"x_min":0,"x_max":0,"o":"m 299 792 l 299 797 b 444 942 299 835 444 857 b 307 1033 444 997 404 1033 b 176 954 240 1033 176 1006 b 222 910 176 928 196 910 b 278 964 253 910 269 921 b 303 1001 283 989 286 1001 b 335 968 321 1001 335 990 b 265 839 335 918 265 904 b 286 792 265 813 276 801 z m 163 -17 b 317 69 243 -17 293 22 l 321 69 b 450 -17 333 15 378 -17 b 594 38 515 -17 564 11 l 594 58 b 561 69 583 60 572 63 b 542 158 543 81 542 93 l 542 549 b 293 746 542 693 446 746 b 36 604 114 746 36 679 b 118 522 36 556 65 522 b 222 647 182 522 211 558 b 264 706 228 692 239 706 b 310 540 303 706 310 667 l 310 400 l 217 371 b 11 158 79 328 11 283 b 163 -17 11 51 69 -17 z m 279 85 b 235 215 247 85 235 117 b 293 343 235 313 257 338 l 310 346 l 310 96 b 279 85 304 90 292 85 z "},"ấ":{"ha":590,"x_min":0,"x_max":0,"o":"m 406 960 l 518 1031 b 564 1097 549 1050 564 1071 b 493 1161 564 1139 524 1161 b 433 1100 458 1161 444 1138 l 396 967 z m 339 997 l 260 997 l 140 792 l 150 781 l 300 861 l 450 781 l 460 792 z m 163 -17 b 317 69 243 -17 293 22 l 321 69 b 450 -17 333 15 378 -17 b 594 38 515 -17 564 11 l 594 58 b 561 69 583 60 572 63 b 542 158 543 81 542 93 l 542 549 b 293 746 542 693 446 746 b 36 604 114 746 36 679 b 118 522 36 556 65 522 b 222 647 182 522 211 558 b 264 706 228 692 239 706 b 310 540 303 706 310 667 l 310 400 l 217 371 b 11 158 79 328 11 283 b 163 -17 11 51 69 -17 z m 279 85 b 235 215 247 85 235 117 b 293 343 235 313 257 338 l 310 346 l 310 96 b 279 85 304 90 292 85 z "},"ầ":{"ha":590,"x_min":0,"x_max":0,"o":"m 474 960 l 483 967 l 450 1100 b 390 1161 440 1138 425 1161 b 319 1097 360 1161 319 1139 b 365 1031 319 1071 335 1050 z m 339 997 l 260 997 l 140 792 l 150 781 l 300 861 l 450 781 l 460 792 z m 163 -17 b 317 69 243 -17 293 22 l 321 69 b 450 -17 333 15 378 -17 b 594 38 515 -17 564 11 l 594 58 b 561 69 583 60 572 63 b 542 158 543 81 542 93 l 542 549 b 293 746 542 693 446 746 b 36 604 114 746 36 679 b 118 522 36 556 65 522 b 222 647 182 522 211 558 b 264 706 228 692 239 706 b 310 540 303 706 310 667 l 310 400 l 217 371 b 11 158 79 328 11 283 b 163 -17 11 51 69 -17 z m 279 85 b 235 215 247 85 235 117 b 293 343 235 313 257 338 l 310 346 l 310 96 b 279 85 304 90 292 85 z "},"ẩ":{"ha":590,"x_min":0,"x_max":0,"o":"m 433 963 l 433 965 b 563 1086 433 1000 563 1014 b 438 1167 563 1133 525 1167 b 321 1096 379 1167 321 1142 b 363 1058 321 1074 339 1058 b 413 1106 390 1058 406 1069 b 436 1138 417 1126 419 1138 b 464 1108 451 1138 464 1128 b 401 1003 464 1065 401 1058 b 421 963 401 981 413 969 z m 339 997 l 260 997 l 140 792 l 150 781 l 300 861 l 450 781 l 460 792 z m 163 -17 b 317 69 243 -17 293 22 l 321 69 b 450 -17 333 15 378 -17 b 594 38 515 -17 564 11 l 594 58 b 561 69 583 60 572 63 b 542 158 543 81 542 93 l 542 549 b 293 746 542 693 446 746 b 36 604 114 746 36 679 b 118 522 36 556 65 522 b 222 647 182 522 211 558 b 264 706 228 692 239 706 b 310 540 303 706 310 667 l 310 400 l 217 371 b 11 158 79 328 11 283 b 163 -17 11 51 69 -17 z m 279 85 b 235 215 247 85 235 117 b 293 343 235 313 257 338 l 310 346 l 310 96 b 279 85 304 90 292 85 z "},"ẫ":{"ha":590,"x_min":0,"x_max":0,"o":"m 258 1194 b 140 1022 203 1194 169 1139 l 158 1015 b 222 1067 178 1050 193 1067 b 365 1044 264 1067 326 1044 b 481 1217 425 1044 451 1099 l 463 1225 b 400 1172 443 1188 429 1172 b 258 1194 360 1172 303 1194 z m 339 997 l 260 997 l 140 792 l 150 781 l 300 861 l 450 781 l 460 792 z m 163 -17 b 317 69 243 -17 293 22 l 321 69 b 450 -17 333 15 378 -17 b 594 38 515 -17 564 11 l 594 58 b 561 69 583 60 572 63 b 542 158 543 81 542 93 l 542 549 b 293 746 542 693 446 746 b 36 604 114 746 36 679 b 118 522 36 556 65 522 b 222 647 182 522 211 558 b 264 706 228 692 239 706 b 310 540 303 706 310 667 l 310 400 l 217 371 b 11 158 79 328 11 283 b 163 -17 11 51 69 -17 z m 279 85 b 235 215 247 85 235 117 b 293 343 235 313 257 338 l 310 346 l 310 96 b 279 85 304 90 292 85 z "},"ậ":{"ha":590,"x_min":0,"x_max":0,"o":"m 339 997 l 260 997 l 140 792 l 150 781 l 300 861 l 450 781 l 460 792 z m 163 -17 b 317 69 243 -17 293 22 l 321 69 b 450 -17 333 15 378 -17 b 594 38 515 -17 564 11 l 594 58 b 561 69 583 60 572 63 b 542 158 543 81 542 93 l 542 549 b 293 746 542 693 446 746 b 36 604 114 746 36 679 b 118 522 36 556 65 522 b 222 647 182 522 211 558 b 264 706 228 692 239 706 b 310 540 303 706 310 667 l 310 400 l 217 371 b 11 158 79 328 11 283 b 163 -17 11 51 69 -17 z m 279 85 b 235 215 247 85 235 117 b 293 343 235 313 257 338 l 310 346 l 310 96 b 279 85 304 90 292 85 z m 314 -265 b 418 -162 374 -265 418 -228 b 314 -60 418 -97 374 -60 b 210 -162 254 -60 210 -97 b 314 -265 210 -228 254 -265 z "},"ắ":{"ha":590,"x_min":0,"x_max":0,"o":"m 256 975 l 374 1038 b 422 1104 404 1053 422 1074 b 354 1169 422 1140 388 1169 b 293 1113 321 1169 307 1150 l 246 982 z m 300 785 b 436 989 378 785 428 865 l 426 992 b 300 913 400 939 361 913 b 174 992 239 913 200 939 l 164 989 b 300 785 172 865 222 785 z m 163 -17 b 317 69 243 -17 293 22 l 321 69 b 450 -17 333 15 378 -17 b 594 38 515 -17 564 11 l 594 58 b 561 69 583 60 572 63 b 542 158 543 81 542 93 l 542 549 b 293 746 542 693 446 746 b 36 604 114 746 36 679 b 118 522 36 556 65 522 b 222 647 182 522 211 558 b 264 706 228 692 239 706 b 310 540 303 706 310 667 l 310 400 l 217 371 b 11 158 79 328 11 283 b 163 -17 11 51 69 -17 z m 279 85 b 235 215 247 85 235 117 b 293 343 235 313 257 338 l 310 346 l 310 96 b 279 85 304 90 292 85 z "},"ằ":{"ha":590,"x_min":0,"x_max":0,"o":"m 357 975 l 365 982 l 319 1113 b 258 1169 307 1150 290 1169 b 189 1104 224 1169 189 1140 b 238 1038 189 1074 208 1053 z m 300 785 b 436 989 378 785 428 865 l 426 992 b 300 913 400 939 361 913 b 174 992 239 913 200 939 l 164 989 b 300 785 172 865 222 785 z m 163 -17 b 317 69 243 -17 293 22 l 321 69 b 450 -17 333 15 378 -17 b 594 38 515 -17 564 11 l 594 58 b 561 69 583 60 572 63 b 542 158 543 81 542 93 l 542 549 b 293 746 542 693 446 746 b 36 604 114 746 36 679 b 118 522 36 556 65 522 b 222 647 182 522 211 558 b 264 706 228 692 239 706 b 310 540 303 706 310 667 l 310 400 l 217 371 b 11 158 79 328 11 283 b 163 -17 11 51 69 -17 z m 279 85 b 235 215 247 85 235 117 b 293 343 235 313 257 338 l 310 346 l 310 96 b 279 85 304 90 292 85 z "},"ẳ":{"ha":590,"x_min":0,"x_max":0,"o":"m 290 981 l 290 983 b 424 1104 290 1018 424 1032 b 299 1185 424 1151 386 1185 b 182 1114 240 1185 182 1160 b 224 1076 182 1092 200 1076 b 274 1124 251 1076 267 1088 b 297 1156 278 1144 281 1156 b 325 1126 313 1156 325 1146 b 260 1021 325 1083 260 1076 b 279 981 260 999 271 988 z m 300 785 b 436 989 378 785 428 865 l 426 992 b 300 913 400 939 361 913 b 174 992 239 913 200 939 l 164 989 b 300 785 172 865 222 785 z m 163 -17 b 317 69 243 -17 293 22 l 321 69 b 450 -17 333 15 378 -17 b 594 38 515 -17 564 11 l 594 58 b 561 69 583 60 572 63 b 542 158 543 81 542 93 l 542 549 b 293 746 542 693 446 746 b 36 604 114 746 36 679 b 118 522 36 556 65 522 b 222 647 182 522 211 558 b 264 706 228 692 239 706 b 310 540 303 706 310 667 l 310 400 l 217 371 b 11 158 79 328 11 283 b 163 -17 11 51 69 -17 z m 279 85 b 235 215 247 85 235 117 b 293 343 235 313 257 338 l 310 346 l 310 96 b 279 85 304 90 292 85 z "},"ẵ":{"ha":590,"x_min":0,"x_max":0,"o":"m 267 1194 b 151 1022 211 1194 181 1139 l 169 1015 b 233 1067 189 1050 204 1067 b 371 1044 274 1067 333 1044 b 483 1217 431 1044 454 1099 l 465 1225 b 403 1172 446 1188 432 1172 b 267 1194 364 1172 310 1194 z m 300 785 b 436 989 378 785 428 865 l 426 992 b 300 913 400 939 361 913 b 174 992 239 913 200 939 l 164 989 b 300 785 172 865 222 785 z m 163 -17 b 317 69 243 -17 293 22 l 321 69 b 450 -17 333 15 378 -17 b 594 38 515 -17 564 11 l 594 58 b 561 69 583 60 572 63 b 542 158 543 81 542 93 l 542 549 b 293 746 542 693 446 746 b 36 604 114 746 36 679 b 118 522 36 556 65 522 b 222 647 182 522 211 558 b 264 706 228 692 239 706 b 310 540 303 706 310 667 l 310 400 l 217 371 b 11 158 79 328 11 283 b 163 -17 11 51 69 -17 z m 279 85 b 235 215 247 85 235 117 b 293 343 235 313 257 338 l 310 346 l 310 96 b 279 85 304 90 292 85 z "},"ặ":{"ha":590,"x_min":0,"x_max":0,"o":"m 300 785 b 436 989 378 785 428 865 l 426 992 b 300 913 400 939 361 913 b 174 992 239 913 200 939 l 164 989 b 300 785 172 865 222 785 z m 163 -17 b 317 69 243 -17 293 22 l 321 69 b 450 -17 333 15 378 -17 b 594 38 515 -17 564 11 l 594 58 b 561 69 583 60 572 63 b 542 158 543 81 542 93 l 542 549 b 293 746 542 693 446 746 b 36 604 114 746 36 679 b 118 522 36 556 65 522 b 222 647 182 522 211 558 b 264 706 228 692 239 706 b 310 540 303 706 310 667 l 310 400 l 217 371 b 11 158 79 328 11 283 b 163 -17 11 51 69 -17 z m 279 85 b 235 215 247 85 235 117 b 293 343 235 313 257 338 l 310 346 l 310 96 b 279 85 304 90 292 85 z m 314 -265 b 418 -162 374 -265 418 -228 b 314 -60 418 -97 374 -60 b 210 -162 254 -60 210 -97 b 314 -265 210 -228 254 -265 z "},"b":{"ha":657,"x_min":0,"x_max":0,"o":"m 278 875 b 282 1043 278 968 282 1043 l 272 1051 l -12 1019 l -12 1003 l 19 982 b 46 876 47 964 46 950 l 46 75 b 325 -17 108 18 206 -17 b 642 408 507 -17 642 104 b 447 746 642 653 554 746 b 281 642 375 746 318 694 l 278 642 z m 333 22 b 278 72 304 22 288 47 l 278 603 b 319 614 286 608 301 614 b 406 349 375 614 406 560 b 333 22 406 72 378 22 z "},"c":{"ha":543,"x_min":0,"x_max":0,"o":"m 290 -17 b 531 113 408 -17 490 40 l 531 136 b 415 106 496 115 457 106 b 253 424 292 106 253 200 b 326 704 253 667 294 704 b 360 643 346 704 354 693 b 453 522 369 560 390 522 b 539 607 499 522 539 551 b 353 746 539 689 476 746 b 17 351 181 746 17 631 b 290 -17 17 119 114 -17 z "},"ç":{"ha":543,"x_min":0,"x_max":0,"o":"m 163 -281 b 379 -144 290 -268 379 -228 b 279 -57 379 -97 346 -65 l 300 -17 b 531 113 413 -14 492 42 l 531 136 b 415 106 496 115 457 106 b 253 424 292 106 253 200 b 326 704 253 667 294 704 b 360 643 346 704 354 693 b 453 522 369 560 390 522 b 539 607 499 522 539 551 b 353 746 539 689 476 746 b 17 351 181 746 17 631 b 265 -15 17 131 104 -3 l 208 -137 l 211 -144 b 268 -181 242 -146 268 -154 b 163 -260 268 -215 226 -243 z "},"ć":{"ha":543,"x_min":0,"x_max":0,"o":"m 197 790 l 379 822 b 478 911 444 833 478 860 b 392 1004 478 961 444 1004 b 293 936 344 1004 319 971 l 192 803 z m 290 -17 b 531 113 408 -17 490 40 l 531 136 b 415 106 496 115 457 106 b 253 424 292 106 253 200 b 326 704 253 667 294 704 b 360 643 346 704 354 693 b 453 522 369 560 390 522 b 539 607 499 522 539 551 b 353 746 539 689 476 746 b 17 351 181 746 17 631 b 290 -17 17 119 114 -17 z "},"ĉ":{"ha":543,"x_min":0,"x_max":0,"o":"m 360 997 l 281 997 l 161 792 l 171 781 l 321 861 l 471 781 l 481 792 z m 290 -17 b 531 113 408 -17 490 40 l 531 136 b 415 106 496 115 457 106 b 253 424 292 106 253 200 b 326 704 253 667 294 704 b 360 643 346 704 354 693 b 453 522 369 560 390 522 b 539 607 499 522 539 551 b 353 746 539 689 476 746 b 17 351 181 746 17 631 b 290 -17 17 119 114 -17 z "},"ċ":{"ha":543,"x_min":0,"x_max":0,"o":"m 333 778 b 446 888 399 778 446 818 b 333 999 446 958 399 999 b 221 888 268 999 221 958 b 333 778 221 818 268 778 z m 290 -17 b 531 113 408 -17 490 40 l 531 136 b 415 106 496 115 457 106 b 253 424 292 106 253 200 b 326 704 253 667 294 704 b 360 643 346 704 354 693 b 453 522 369 560 390 522 b 539 607 499 522 539 551 b 353 746 539 689 476 746 b 17 351 181 746 17 631 b 290 -17 17 119 114 -17 z "},"č":{"ha":543,"x_min":0,"x_max":0,"o":"m 353 789 l 472 994 l 463 1006 l 313 925 l 163 1006 l 153 994 l 274 789 z m 290 -17 b 531 113 408 -17 490 40 l 531 136 b 415 106 496 115 457 106 b 253 424 292 106 253 200 b 326 704 253 667 294 704 b 360 643 346 704 354 693 b 453 522 369 560 390 522 b 539 607 499 522 539 551 b 353 746 539 689 476 746 b 17 351 181 746 17 631 b 290 -17 17 119 114 -17 z "},"d":{"ha":669,"x_min":0,"x_max":0,"o":"m 379 883 l 379 739 b 319 746 364 743 347 746 b 15 329 157 746 15 628 b 213 -17 15 94 100 -17 b 379 85 294 -17 350 35 l 382 85 l 381 -4 l 393 -17 l 667 29 l 667 50 l 640 63 b 611 154 613 75 611 82 l 611 875 b 615 1043 611 969 615 1043 l 607 1051 l 311 1019 l 311 1003 l 343 982 b 379 883 376 960 379 950 z m 338 107 b 253 393 278 107 253 176 b 329 707 253 635 285 707 b 379 654 354 707 368 686 l 379 122 b 338 107 371 114 357 107 z "},"ď":{"ha":665,"x_min":0,"x_max":0,"o":"m 653 786 l 749 928 b 778 1003 768 957 778 981 b 707 1057 778 1040 740 1057 b 646 965 663 1057 647 1022 l 642 790 z m 379 883 l 379 739 b 319 746 364 743 347 746 b 15 329 157 746 15 628 b 213 -17 15 94 100 -17 b 379 85 294 -17 350 35 l 382 85 l 381 -4 l 393 -17 l 667 29 l 667 50 l 640 63 b 611 154 613 75 611 82 l 611 875 b 615 1043 611 969 615 1043 l 607 1051 l 311 1019 l 311 1003 l 343 982 b 379 883 376 960 379 950 z m 338 107 b 253 393 278 107 253 176 b 329 707 253 635 285 707 b 379 654 354 707 368 686 l 379 122 b 338 107 371 114 357 107 z "},"e":{"ha":576,"x_min":0,"x_max":0,"o":"m 297 -17 b 543 114 426 -17 508 53 l 543 139 b 415 106 508 117 461 106 b 244 407 303 106 247 167 l 565 407 b 310 746 560 647 463 746 b 17 347 153 746 17 621 b 297 -17 17 114 114 -17 z m 306 707 b 347 454 342 707 347 654 l 244 446 b 306 707 246 656 272 707 z "},"è":{"ha":576,"x_min":0,"x_max":0,"o":"m 419 790 l 425 803 l 324 936 b 225 1004 297 971 272 1004 b 139 911 172 1004 139 961 b 238 822 139 860 172 833 z m 297 -17 b 543 114 426 -17 508 53 l 543 139 b 415 106 508 117 461 106 b 244 407 303 106 247 167 l 565 407 b 310 746 560 647 463 746 b 17 347 153 746 17 621 b 297 -17 17 114 114 -17 z m 306 707 b 347 454 342 707 347 654 l 244 446 b 306 707 246 656 272 707 z "},"é":{"ha":576,"x_min":0,"x_max":0,"o":"m 179 790 l 361 822 b 460 911 426 833 460 860 b 374 1004 460 961 426 1004 b 275 936 326 1004 301 971 l 174 803 z m 297 -17 b 543 114 426 -17 508 53 l 543 139 b 415 106 508 117 461 106 b 244 407 303 106 247 167 l 565 407 b 310 746 560 647 463 746 b 17 347 153 746 17 621 b 297 -17 17 114 114 -17 z m 306 707 b 347 454 342 707 347 654 l 244 446 b 306 707 246 656 272 707 z "},"ê":{"ha":576,"x_min":0,"x_max":0,"o":"m 335 997 l 256 997 l 136 792 l 146 781 l 296 861 l 446 781 l 456 792 z m 297 -17 b 543 114 426 -17 508 53 l 543 139 b 415 106 508 117 461 106 b 244 407 303 106 247 167 l 565 407 b 310 746 560 647 463 746 b 17 347 153 746 17 621 b 297 -17 17 114 114 -17 z m 306 707 b 347 454 342 707 347 654 l 244 446 b 306 707 246 656 272 707 z "},"ë":{"ha":576,"x_min":0,"x_max":0,"o":"m 182 793 b 281 894 238 793 281 831 b 182 994 281 956 239 994 b 85 894 126 994 85 956 b 182 793 85 831 126 793 z m 407 793 b 506 894 463 793 506 831 b 407 994 506 956 464 994 b 310 894 351 994 310 956 b 407 793 310 831 351 793 z m 297 -17 b 543 114 426 -17 508 53 l 543 139 b 415 106 508 117 461 106 b 244 407 303 106 247 167 l 565 407 b 310 746 560 647 463 746 b 17 347 153 746 17 621 b 297 -17 17 114 114 -17 z m 306 707 b 347 454 342 707 347 654 l 244 446 b 306 707 246 656 272 707 z "},"ē":{"ha":576,"x_min":0,"x_max":0,"o":"m 143 832 l 435 832 l 435 914 l 143 914 z m 297 -17 b 543 114 426 -17 508 53 l 543 139 b 415 106 508 117 461 106 b 244 407 303 106 247 167 l 565 407 b 310 746 560 647 463 746 b 17 347 153 746 17 621 b 297 -17 17 114 114 -17 z m 306 707 b 347 454 342 707 347 654 l 244 446 b 306 707 246 656 272 707 z "},"ĕ":{"ha":576,"x_min":0,"x_max":0,"o":"m 292 785 b 428 989 369 785 419 865 l 418 992 b 292 913 392 939 353 913 b 165 992 231 913 192 939 l 156 989 b 292 785 164 865 214 785 z m 297 -17 b 543 114 426 -17 508 53 l 543 139 b 415 106 508 117 461 106 b 244 407 303 106 247 167 l 565 407 b 310 746 560 647 463 746 b 17 347 153 746 17 621 b 297 -17 17 114 114 -17 z m 306 707 b 347 454 342 707 347 654 l 244 446 b 306 707 246 656 272 707 z "},"ė":{"ha":576,"x_min":0,"x_max":0,"o":"m 289 778 b 401 888 354 778 401 818 b 289 999 401 958 354 999 b 176 888 224 999 176 958 b 289 778 176 818 224 778 z m 297 -17 b 543 114 426 -17 508 53 l 543 139 b 415 106 508 117 461 106 b 244 407 303 106 247 167 l 565 407 b 310 746 560 647 463 746 b 17 347 153 746 17 621 b 297 -17 17 114 114 -17 z m 306 707 b 347 454 342 707 347 654 l 244 446 b 306 707 246 656 272 707 z "},"ę":{"ha":576,"x_min":0,"x_max":0,"o":"m 543 114 l 543 139 b 415 106 508 117 461 106 b 244 407 303 106 247 167 l 565 407 b 310 746 560 647 463 746 b 17 347 153 746 17 621 b 297 -17 17 114 114 -17 b 415 3 342 -17 382 -10 b 246 -185 310 -58 246 -107 b 356 -285 246 -244 286 -285 b 467 -236 413 -285 447 -262 l 467 -217 b 439 -221 457 -219 449 -221 b 379 -150 404 -221 379 -203 b 450 -1 379 -100 397 -60 b 543 114 483 35 519 75 z m 306 707 b 347 454 342 707 347 654 l 244 446 b 306 707 246 656 272 707 z "},"ě":{"ha":576,"x_min":0,"x_max":0,"o":"m 328 789 l 447 994 l 438 1006 l 288 925 l 138 1006 l 128 994 l 249 789 z m 297 -17 b 543 114 426 -17 508 53 l 543 139 b 415 106 508 117 461 106 b 244 407 303 106 247 167 l 565 407 b 310 746 560 647 463 746 b 17 347 153 746 17 621 b 297 -17 17 114 114 -17 z m 306 707 b 347 454 342 707 347 654 l 244 446 b 306 707 246 656 272 707 z "},"ẹ":{"ha":576,"x_min":0,"x_max":0,"o":"m 297 -17 b 543 114 426 -17 508 53 l 543 139 b 415 106 508 117 461 106 b 244 407 303 106 247 167 l 565 407 b 310 746 560 647 463 746 b 17 347 153 746 17 621 b 297 -17 17 114 114 -17 z m 306 707 b 347 454 342 707 347 654 l 244 446 b 306 707 246 656 272 707 z m 296 -265 b 400 -162 356 -265 400 -228 b 296 -60 400 -97 356 -60 b 192 -162 236 -60 192 -97 b 296 -265 192 -228 236 -265 z "},"ẻ":{"ha":576,"x_min":0,"x_max":0,"o":"m 301 792 l 301 797 b 447 942 301 835 447 857 b 310 1033 447 997 407 1033 b 179 954 243 1033 179 1006 b 225 910 179 928 199 910 b 281 964 256 910 272 921 b 306 1001 286 989 289 1001 b 338 968 324 1001 338 990 b 268 839 338 918 268 904 b 289 792 268 813 279 801 z m 297 -17 b 543 114 426 -17 508 53 l 543 139 b 415 106 508 117 461 106 b 244 407 303 106 247 167 l 565 407 b 310 746 560 647 463 746 b 17 347 153 746 17 621 b 297 -17 17 114 114 -17 z m 306 707 b 347 454 342 707 347 654 l 244 446 b 306 707 246 656 272 707 z "},"ẽ":{"ha":576,"x_min":0,"x_max":0,"o":"m 242 963 b 124 790 186 963 153 907 l 142 783 b 206 835 161 818 176 835 b 368 813 251 835 325 813 b 483 985 428 813 454 867 l 465 993 b 403 940 446 956 432 940 b 242 963 358 940 290 963 z m 297 -17 b 543 114 426 -17 508 53 l 543 139 b 415 106 508 117 461 106 b 244 407 303 106 247 167 l 565 407 b 310 746 560 647 463 746 b 17 347 153 746 17 621 b 297 -17 17 114 114 -17 z m 306 707 b 347 454 342 707 347 654 l 244 446 b 306 707 246 656 272 707 z "},"ế":{"ha":576,"x_min":0,"x_max":0,"o":"m 408 960 l 521 1031 b 567 1097 551 1050 567 1071 b 496 1161 567 1139 526 1161 b 436 1100 461 1161 447 1138 l 399 967 z m 342 997 l 263 997 l 143 792 l 153 781 l 303 861 l 453 781 l 463 792 z m 297 -17 b 543 114 426 -17 508 53 l 543 139 b 415 106 508 117 461 106 b 244 407 303 106 247 167 l 565 407 b 310 746 560 647 463 746 b 17 347 153 746 17 621 b 297 -17 17 114 114 -17 z m 306 707 b 347 454 342 707 347 654 l 244 446 b 306 707 246 656 272 707 z "},"ề":{"ha":576,"x_min":0,"x_max":0,"o":"m 476 960 l 486 967 l 453 1100 b 393 1161 443 1138 428 1161 b 322 1097 363 1161 322 1139 b 368 1031 322 1071 338 1050 z m 342 997 l 263 997 l 143 792 l 153 781 l 303 861 l 453 781 l 463 792 z m 297 -17 b 543 114 426 -17 508 53 l 543 139 b 415 106 508 117 461 106 b 244 407 303 106 247 167 l 565 407 b 310 746 560 647 463 746 b 17 347 153 746 17 621 b 297 -17 17 114 114 -17 z m 306 707 b 347 454 342 707 347 654 l 244 446 b 306 707 246 656 272 707 z "},"ể":{"ha":576,"x_min":0,"x_max":0,"o":"m 436 963 l 436 965 b 565 1086 436 1000 565 1014 b 440 1167 565 1133 528 1167 b 324 1096 382 1167 324 1142 b 365 1058 324 1074 342 1058 b 415 1106 393 1058 408 1069 b 439 1138 419 1126 422 1138 b 467 1108 454 1138 467 1128 b 404 1003 467 1065 404 1058 b 424 963 404 981 415 969 z m 342 997 l 263 997 l 143 792 l 153 781 l 303 861 l 453 781 l 463 792 z m 297 -17 b 543 114 426 -17 508 53 l 543 139 b 415 106 508 117 461 106 b 244 407 303 106 247 167 l 565 407 b 310 746 560 647 463 746 b 17 347 153 746 17 621 b 297 -17 17 114 114 -17 z m 306 707 b 347 454 342 707 347 654 l 244 446 b 306 707 246 656 272 707 z "},"ễ":{"ha":576,"x_min":0,"x_max":0,"o":"m 261 1194 b 143 1022 206 1194 172 1139 l 161 1015 b 225 1067 181 1050 196 1067 b 368 1044 267 1067 329 1044 b 483 1217 428 1044 454 1099 l 465 1225 b 403 1172 446 1188 432 1172 b 261 1194 363 1172 306 1194 z m 342 997 l 263 997 l 143 792 l 153 781 l 303 861 l 453 781 l 463 792 z m 297 -17 b 543 114 426 -17 508 53 l 543 139 b 415 106 508 117 461 106 b 244 407 303 106 247 167 l 565 407 b 310 746 560 647 463 746 b 17 347 153 746 17 621 b 297 -17 17 114 114 -17 z m 306 707 b 347 454 342 707 347 654 l 244 446 b 306 707 246 656 272 707 z "},"ệ":{"ha":576,"x_min":0,"x_max":0,"o":"m 342 997 l 263 997 l 143 792 l 153 781 l 303 861 l 453 781 l 463 792 z m 297 -17 b 543 114 426 -17 508 53 l 543 139 b 415 106 508 117 461 106 b 244 407 303 106 247 167 l 565 407 b 310 746 560 647 463 746 b 17 347 153 746 17 621 b 297 -17 17 114 114 -17 z m 306 707 b 347 454 342 707 347 654 l 244 446 b 306 707 246 656 272 707 z m 296 -265 b 400 -162 356 -265 400 -228 b 296 -60 400 -97 356 -60 b 192 -162 236 -60 192 -97 b 296 -265 192 -228 236 -265 z "},"f":{"ha":394,"x_min":0,"x_max":0,"o":"m 292 656 l 372 656 l 382 729 l 292 729 l 292 886 b 331 1018 292 989 304 1018 b 349 968 344 1018 344 1007 b 426 869 357 900 376 869 b 513 947 478 869 513 900 b 335 1060 513 1022 443 1060 b 60 767 150 1060 60 940 l 60 729 l -10 672 l -10 656 l 60 656 l 60 110 b 17 26 60 46 57 40 l 4 22 l 4 0 l 351 0 l 351 24 l 333 28 b 292 110 296 36 292 42 z "},"g":{"ha":589,"x_min":0,"x_max":0,"o":"m 268 281 b 526 522 418 281 526 367 b 446 690 526 578 503 644 l 446 692 b 501 686 469 713 483 715 b 561 642 514 667 531 642 b 619 708 596 642 619 664 b 546 783 619 757 589 783 b 422 707 497 783 460 751 b 268 746 383 731 333 746 b 11 503 122 746 11 658 b 108 321 11 422 46 358 l 108 318 b 14 151 63 290 14 236 b 132 0 14 67 58 17 l 132 -4 b -10 -131 40 -18 -10 -69 b 244 -283 -10 -222 74 -283 b 576 7 438 -283 576 -171 b 344 210 576 161 486 210 l 178 210 b 117 242 135 210 117 214 b 135 307 117 265 125 286 b 268 281 172 290 217 281 z m 315 510 b 268 318 315 343 303 318 b 222 515 235 318 222 347 b 268 708 222 686 233 708 b 315 510 301 708 315 686 z m 138 -111 b 158 -10 138 -71 146 -37 l 313 -10 b 428 -110 396 -10 428 -40 b 272 -243 428 -190 371 -243 b 138 -111 178 -243 138 -187 z "},"ĝ":{"ha":589,"x_min":0,"x_max":0,"o":"m 306 997 l 226 997 l 107 792 l 117 781 l 267 861 l 417 781 l 426 792 z m 268 281 b 526 522 418 281 526 367 b 446 690 526 578 503 644 l 446 692 b 501 686 469 713 483 715 b 561 642 514 667 531 642 b 619 708 596 642 619 664 b 546 783 619 757 589 783 b 422 707 497 783 460 751 b 268 746 383 731 333 746 b 11 503 122 746 11 658 b 108 321 11 422 46 358 l 108 318 b 14 151 63 290 14 236 b 132 0 14 67 58 17 l 132 -4 b -10 -131 40 -18 -10 -69 b 244 -283 -10 -222 74 -283 b 576 7 438 -283 576 -171 b 344 210 576 161 486 210 l 178 210 b 117 242 135 210 117 214 b 135 307 117 265 125 286 b 268 281 172 290 217 281 z m 315 510 b 268 318 315 343 303 318 b 222 515 235 318 222 347 b 268 708 222 686 233 708 b 315 510 301 708 315 686 z m 138 -111 b 158 -10 138 -71 146 -37 l 313 -10 b 428 -110 396 -10 428 -40 b 272 -243 428 -190 371 -243 b 138 -111 178 -243 138 -187 z "},"ğ":{"ha":589,"x_min":0,"x_max":0,"o":"m 268 785 b 404 989 346 785 396 865 l 394 992 b 268 913 368 939 329 913 b 142 992 207 913 168 939 l 132 989 b 268 785 140 865 190 785 z m 268 281 b 526 522 418 281 526 367 b 446 690 526 578 503 644 l 446 692 b 501 686 469 713 483 715 b 561 642 514 667 531 642 b 619 708 596 642 619 664 b 546 783 619 757 589 783 b 422 707 497 783 460 751 b 268 746 383 731 333 746 b 11 503 122 746 11 658 b 108 321 11 422 46 358 l 108 318 b 14 151 63 290 14 236 b 132 0 14 67 58 17 l 132 -4 b -10 -131 40 -18 -10 -69 b 244 -283 -10 -222 74 -283 b 576 7 438 -283 576 -171 b 344 210 576 161 486 210 l 178 210 b 117 242 135 210 117 214 b 135 307 117 265 125 286 b 268 281 172 290 217 281 z m 315 510 b 268 318 315 343 303 318 b 222 515 235 318 222 347 b 268 708 222 686 233 708 b 315 510 301 708 315 686 z m 138 -111 b 158 -10 138 -71 146 -37 l 313 -10 b 428 -110 396 -10 428 -40 b 272 -243 428 -190 371 -243 b 138 -111 178 -243 138 -187 z "},"ġ":{"ha":588,"x_min":0,"x_max":0,"o":"m 263 778 b 375 888 328 778 375 818 b 263 999 375 958 328 999 b 150 888 197 999 150 958 b 263 778 150 818 197 778 z m 267 281 b 525 522 417 281 525 367 b 444 690 525 578 501 644 l 444 692 b 500 686 468 713 482 715 b 560 642 513 667 529 642 b 618 708 594 642 618 664 b 544 783 618 757 588 783 b 421 707 496 783 458 751 b 267 746 382 731 332 746 b 10 503 121 746 10 658 b 107 321 10 422 44 358 l 107 318 b 13 151 61 290 13 236 b 131 0 13 67 57 17 l 131 -4 b -11 -131 39 -18 -11 -69 b 243 -283 -11 -222 72 -283 b 575 7 436 -283 575 -171 b 343 210 575 161 485 210 l 176 210 b 115 242 133 210 115 214 b 133 307 115 265 124 286 b 267 281 171 290 215 281 z m 314 510 b 267 318 314 343 301 318 b 221 515 233 318 221 347 b 267 708 221 686 232 708 b 314 510 300 708 314 686 z m 136 -111 b 157 -10 136 -71 144 -37 l 311 -10 b 426 -110 394 -10 426 -40 b 271 -243 426 -190 369 -243 b 136 -111 176 -243 136 -187 z "},"ģ":{"ha":589,"x_min":0,"x_max":0,"o":"m 381 1072 b 163 896 240 1063 163 992 b 278 781 163 826 206 781 b 374 875 335 781 374 822 b 299 950 374 924 343 950 b 243 925 271 950 253 939 b 382 1058 244 985 292 1031 z m 268 281 b 526 522 418 281 526 367 b 446 690 526 578 503 644 l 446 692 b 501 686 469 713 483 715 b 561 642 514 667 531 642 b 619 708 596 642 619 664 b 546 783 619 757 589 783 b 422 707 497 783 460 751 b 268 746 383 731 333 746 b 11 503 122 746 11 658 b 108 321 11 422 46 358 l 108 318 b 14 151 63 290 14 236 b 132 0 14 67 58 17 l 132 -4 b -10 -131 40 -18 -10 -69 b 244 -283 -10 -222 74 -283 b 576 7 438 -283 576 -171 b 344 210 576 161 486 210 l 178 210 b 117 242 135 210 117 214 b 135 307 117 265 125 286 b 268 281 172 290 217 281 z m 315 510 b 268 318 315 343 303 318 b 222 515 235 318 222 347 b 268 708 222 686 233 708 b 315 510 301 708 315 686 z m 138 -111 b 158 -10 138 -71 146 -37 l 313 -10 b 428 -110 396 -10 428 -40 b 272 -243 428 -190 371 -243 b 138 -111 178 -243 138 -187 z "},"h":{"ha":682,"x_min":0,"x_max":0,"o":"m 286 633 l 286 875 b 290 1043 286 968 290 1043 l 281 1051 l -4 1019 l -4 1003 l 28 982 b 54 876 56 964 54 950 l 54 110 b 14 26 54 46 51 39 l 1 22 l 1 0 l 329 0 l 329 22 l 317 26 b 286 110 286 36 286 39 l 286 599 b 336 607 304 604 318 607 b 392 510 376 607 392 586 l 392 110 b 363 28 392 42 392 39 l 349 22 l 349 0 l 676 0 l 676 22 l 664 26 b 624 110 626 39 624 46 l 624 571 b 478 746 624 693 567 746 b 289 633 397 746 338 692 z "},"ĥ":{"ha":682,"x_min":0,"x_max":0,"o":"m -6 1090 l 161 1143 l 328 1090 l 335 1101 l 192 1272 l 129 1272 l -12 1101 z m 286 633 l 286 875 b 290 1043 286 968 290 1043 l 281 1051 l -4 1019 l -4 1003 l 28 982 b 54 876 56 964 54 950 l 54 110 b 14 26 54 46 51 39 l 1 22 l 1 0 l 329 0 l 329 22 l 317 26 b 286 110 286 36 286 39 l 286 599 b 336 607 304 604 318 607 b 392 510 376 607 392 586 l 392 110 b 363 28 392 42 392 39 l 349 22 l 349 0 l 676 0 l 676 22 l 664 26 b 624 110 626 39 624 46 l 624 571 b 478 746 624 693 567 746 b 289 633 397 746 338 692 z "},"ȟ":{"ha":682,"x_min":0,"x_max":0,"o":"m 197 1258 l 190 1247 l 333 1076 l 396 1076 l 538 1247 l 531 1258 l 364 1206 z m 286 633 l 286 875 b 290 1043 286 968 290 1043 l 281 1051 l -4 1019 l -4 1003 l 28 982 b 54 876 56 964 54 950 l 54 110 b 14 26 54 46 51 39 l 1 22 l 1 0 l 329 0 l 329 22 l 317 26 b 286 110 286 36 286 39 l 286 599 b 336 607 304 604 318 607 b 392 510 376 607 392 586 l 392 110 b 363 28 392 42 392 39 l 349 22 l 349 0 l 676 0 l 676 22 l 664 26 b 624 110 626 39 624 46 l 624 571 b 478 746 624 693 567 746 b 289 633 397 746 338 692 z "},"ḣ":{"ha":682,"x_min":0,"x_max":0,"o":"m 363 1075 b 475 1185 428 1075 475 1115 b 363 1296 475 1256 428 1296 b 250 1185 297 1296 250 1256 b 363 1075 250 1115 297 1075 z m 286 633 l 286 875 b 290 1043 286 968 290 1043 l 281 1051 l -4 1019 l -4 1003 l 28 982 b 54 876 56 964 54 950 l 54 110 b 14 26 54 46 51 39 l 1 22 l 1 0 l 329 0 l 329 22 l 317 26 b 286 110 286 36 286 39 l 286 599 b 336 607 304 604 318 607 b 392 510 376 607 392 586 l 392 110 b 363 28 392 42 392 39 l 349 22 l 349 0 l 676 0 l 676 22 l 664 26 b 624 110 626 39 624 46 l 624 571 b 478 746 624 693 567 746 b 289 633 397 746 338 692 z "},"i":{"ha":346,"x_min":0,"x_max":0,"o":"m 171 789 b 283 899 236 789 283 829 b 171 1010 283 969 236 1010 b 58 899 106 1010 58 969 b 171 789 58 829 106 789 z m -1 710 l -1 696 l 25 674 b 54 574 54 650 54 639 l 54 110 b 14 26 54 46 51 39 l 1 22 l 1 0 l 339 0 l 339 22 l 326 26 b 286 110 289 39 286 46 l 286 561 b 290 738 286 625 288 674 l 282 746 z "},"ì":{"ha":346,"x_min":0,"x_max":0,"o":"m 286 790 l 292 803 l 190 936 b 92 1004 164 971 139 1004 b 6 911 39 1004 6 961 b 104 822 6 860 39 833 z m -1 710 l -1 696 l 25 674 b 54 574 54 650 54 639 l 54 110 b 14 26 54 46 51 39 l 1 22 l 1 0 l 339 0 l 339 22 l 326 26 b 286 110 289 39 286 46 l 286 561 b 290 738 286 625 288 674 l 282 746 z "},"í":{"ha":346,"x_min":0,"x_max":0,"o":"m 39 790 l 221 822 b 319 911 286 833 319 860 b 233 1004 319 961 286 1004 b 135 936 186 1004 161 971 l 33 803 z m -1 710 l -1 696 l 25 674 b 54 574 54 650 54 639 l 54 110 b 14 26 54 46 51 39 l 1 22 l 1 0 l 339 0 l 339 22 l 326 26 b 286 110 289 39 286 46 l 286 561 b 290 738 286 625 288 674 l 282 746 z "},"î":{"ha":346,"x_min":0,"x_max":0,"o":"m 200 997 l 121 997 l 1 792 l 11 781 l 161 861 l 311 781 l 321 792 z m -1 710 l -1 696 l 25 674 b 54 574 54 650 54 639 l 54 110 b 14 26 54 46 51 39 l 1 22 l 1 0 l 339 0 l 339 22 l 326 26 b 286 110 289 39 286 46 l 286 561 b 290 738 286 625 288 674 l 282 746 z "},"ï":{"ha":346,"x_min":0,"x_max":0,"o":"m 50 793 b 149 894 106 793 149 831 b 50 994 149 956 107 994 b -47 894 -6 994 -47 956 b 50 793 -47 831 -6 793 z m 275 793 b 374 894 331 793 374 831 b 275 994 374 956 332 994 b 178 894 219 994 178 956 b 275 793 178 831 219 793 z m -1 710 l -1 696 l 25 674 b 54 574 54 650 54 639 l 54 110 b 14 26 54 46 51 39 l 1 22 l 1 0 l 339 0 l 339 22 l 326 26 b 286 110 289 39 286 46 l 286 561 b 290 738 286 625 288 674 l 282 746 z "},"ĩ":{"ha":346,"x_min":0,"x_max":0,"o":"m 107 963 b -11 790 51 963 18 907 l 7 783 b 71 835 26 818 42 835 b 233 813 117 835 190 813 b 349 985 293 813 319 867 l 331 993 b 268 940 311 956 297 940 b 107 963 224 940 156 963 z m -1 710 l -1 696 l 25 674 b 54 574 54 650 54 639 l 54 110 b 14 26 54 46 51 39 l 1 22 l 1 0 l 339 0 l 339 22 l 326 26 b 286 110 289 39 286 46 l 286 561 b 290 738 286 625 288 674 l 282 746 z "},"ī":{"ha":346,"x_min":0,"x_max":0,"o":"m 15 851 l 307 851 l 307 944 l 15 944 z m -1 711 l -1 697 l 25 675 b 54 575 54 651 54 640 l 54 110 b 14 26 54 46 51 39 l 1 22 l 1 0 l 339 0 l 339 22 l 326 26 b 286 110 289 39 286 46 l 286 563 b 290 739 286 626 288 675 l 282 747 z "},"ĭ":{"ha":346,"x_min":0,"x_max":0,"o":"m 167 785 b 303 989 244 785 294 865 l 293 992 b 167 913 267 939 228 913 b 40 992 106 913 67 939 l 31 989 b 167 785 39 865 89 785 z m -1 710 l -1 696 l 25 674 b 54 574 54 650 54 639 l 54 110 b 14 26 54 46 51 39 l 1 22 l 1 0 l 339 0 l 339 22 l 326 26 b 286 110 289 39 286 46 l 286 561 b 290 738 286 625 288 674 l 282 746 z "},"į":{"ha":346,"x_min":0,"x_max":0,"o":"m 171 790 b 283 900 236 790 283 831 b 171 1011 283 971 236 1011 b 58 900 106 1011 58 971 b 171 790 58 831 106 790 z m 339 0 l 339 22 l 326 26 b 286 110 289 39 286 46 l 286 563 b 290 739 286 626 288 675 l 282 747 l -1 711 l -1 697 l 25 675 b 54 575 54 651 54 640 l 54 110 b 14 26 54 46 51 39 l 1 22 l 1 0 l 239 0 b 69 -185 147 -43 69 -96 b 179 -285 69 -247 111 -285 b 293 -232 240 -285 276 -258 l 293 -214 b 260 -218 285 -217 272 -218 b 210 -156 228 -218 210 -197 b 261 0 210 -99 233 -39 z "},"ỉ":{"ha":346,"x_min":0,"x_max":0,"o":"m 168 792 l 168 797 b 314 942 168 835 314 857 b 176 1033 314 997 274 1033 b 46 954 110 1033 46 1006 b 92 910 46 928 65 910 b 147 964 122 910 139 921 b 172 1001 153 989 156 1001 b 204 968 190 1001 204 990 b 135 839 204 918 135 904 b 156 792 135 813 146 801 z m -1 710 l -1 696 l 25 674 b 54 574 54 650 54 639 l 54 110 b 14 26 54 46 51 39 l 1 22 l 1 0 l 339 0 l 339 22 l 326 26 b 286 110 289 39 286 46 l 286 561 b 290 738 286 625 288 674 l 282 746 z "},"ị":{"ha":346,"x_min":0,"x_max":0,"o":"m 171 789 b 283 899 236 789 283 829 b 171 1010 283 969 236 1010 b 58 899 106 1010 58 969 b 171 789 58 829 106 789 z m -1 710 l -1 696 l 25 674 b 54 574 54 650 54 639 l 54 110 b 14 26 54 46 51 39 l 1 22 l 1 0 l 339 0 l 339 22 l 326 26 b 286 110 289 39 286 46 l 286 561 b 290 738 286 625 288 674 l 282 746 z m 168 -265 b 272 -162 228 -265 272 -228 b 168 -60 272 -97 228 -60 b 64 -162 108 -60 64 -97 b 168 -265 64 -228 108 -265 z "},"j":{"ha":333,"x_min":0,"x_max":0,"o":"m 163 789 b 275 899 228 789 275 829 b 163 1010 275 969 228 1010 b 50 899 97 1010 50 969 b 163 789 50 829 97 789 z m 283 561 b 288 738 283 625 285 674 l 279 746 l -4 710 l -4 696 l 22 674 b 51 574 51 650 51 639 l 51 -150 b 31 -240 51 -226 47 -240 b 10 -196 17 -240 14 -224 b -82 -78 -3 -107 -29 -78 b -160 -160 -131 -78 -160 -110 b 19 -283 -160 -232 -97 -283 b 283 31 172 -283 283 -156 z "},"ĵ":{"ha":333,"x_min":0,"x_max":0,"o":"m 193 997 l 114 997 l -6 792 l 4 781 l 154 861 l 304 781 l 314 792 z m 283 563 b 288 739 283 626 285 675 l 279 747 l -4 711 l -4 697 l 22 675 b 51 575 51 651 51 640 l 51 -150 b 31 -240 51 -226 47 -240 b 10 -196 17 -240 14 -224 b -82 -78 -3 -107 -29 -78 b -160 -160 -131 -78 -160 -110 b 19 -283 -160 -232 -97 -283 b 283 31 172 -283 283 -156 z "},"k":{"ha":672,"x_min":0,"x_max":0,"o":"m 289 110 l 289 875 b 293 1043 289 968 293 1043 l 283 1051 l -1 1019 l -1 1003 l 31 982 b 57 876 58 964 57 950 l 57 110 b 17 26 57 46 54 39 l 4 22 l 4 0 l 332 0 l 332 22 l 319 26 b 289 110 289 36 289 39 z m 421 0 l 692 0 l 692 22 l 681 28 b 644 68 665 35 658 43 b 463 533 601 149 504 396 l 521 614 b 643 703 558 665 601 688 l 654 707 l 654 729 l 401 729 l 401 707 l 421 700 b 471 650 460 686 471 674 b 411 529 471 621 447 586 l 301 358 l 301 343 b 421 0 324 250 374 104 z "},"ķ":{"ha":672,"x_min":0,"x_max":0,"o":"m 289 110 l 289 875 b 293 1043 289 968 293 1043 l 283 1051 l -1 1019 l -1 1003 l 31 982 b 57 876 58 964 57 950 l 57 110 b 17 26 57 46 54 39 l 4 22 l 4 0 l 332 0 l 332 22 l 319 26 b 289 110 289 36 289 39 z m 421 0 l 692 0 l 692 22 l 681 28 b 644 68 665 35 658 43 b 463 533 601 149 504 396 l 521 614 b 643 703 558 665 601 688 l 654 707 l 654 729 l 401 729 l 401 707 l 421 700 b 471 650 460 686 471 674 b 411 529 471 621 447 586 l 301 358 l 301 343 b 421 0 324 250 374 104 z m 215 -344 b 433 -168 356 -335 433 -264 b 318 -53 433 -99 390 -53 b 222 -147 261 -53 222 -94 b 297 -222 222 -196 253 -222 b 353 -197 325 -222 343 -211 b 214 -331 351 -257 304 -303 z "},"ḳ":{"ha":672,"x_min":0,"x_max":0,"o":"m 289 110 l 289 875 b 293 1043 289 968 293 1043 l 283 1051 l -1 1019 l -1 1003 l 31 982 b 57 876 58 964 57 950 l 57 110 b 17 26 57 46 54 39 l 4 22 l 4 0 l 332 0 l 332 22 l 319 26 b 289 110 289 36 289 39 z m 421 0 l 692 0 l 692 22 l 681 28 b 644 68 665 35 658 43 b 463 533 601 149 504 396 l 521 614 b 643 703 558 665 601 688 l 654 707 l 654 729 l 401 729 l 401 707 l 421 700 b 471 650 460 686 471 674 b 411 529 471 621 447 586 l 301 358 l 301 343 b 421 0 324 250 374 104 z m 343 -265 b 447 -162 403 -265 447 -228 b 343 -60 447 -97 403 -60 b 239 -162 283 -60 239 -97 b 343 -265 239 -228 283 -265 z "},"l":{"ha":347,"x_min":0,"x_max":0,"o":"m 342 0 l 342 22 l 329 26 b 289 110 292 39 289 46 l 289 875 b 293 1043 289 968 293 1043 l 283 1051 l -1 1019 l -1 1003 l 31 982 b 57 876 58 964 57 950 l 57 110 b 17 26 57 46 54 39 l 4 22 l 4 0 z "},"ĺ":{"ha":347,"x_min":0,"x_max":0,"o":"m 42 1083 l 219 1101 b 322 1190 285 1108 322 1139 b 242 1283 322 1243 294 1283 b 138 1215 194 1283 165 1249 l 36 1096 z m 342 0 l 342 22 l 329 26 b 289 110 292 39 289 46 l 289 875 b 293 1043 289 968 293 1043 l 283 1051 l -1 1019 l -1 1003 l 31 982 b 57 876 58 964 57 950 l 57 110 b 17 26 57 46 54 39 l 4 22 l 4 0 z "},"ļ":{"ha":347,"x_min":0,"x_max":0,"o":"m 342 0 l 342 22 l 329 26 b 289 110 292 39 289 46 l 289 875 b 293 1043 289 968 293 1043 l 283 1051 l -1 1019 l -1 1003 l 31 982 b 57 876 58 964 57 950 l 57 110 b 17 26 57 46 54 39 l 4 22 l 4 0 z m 54 -344 b 272 -168 194 -335 272 -264 b 157 -53 272 -99 229 -53 b 61 -147 100 -53 61 -94 b 136 -222 61 -196 92 -222 b 192 -197 164 -222 182 -211 b 53 -331 190 -257 143 -303 z "},"ľ":{"ha":347,"x_min":0,"x_max":0,"o":"m 331 786 l 426 928 b 456 1003 446 957 456 981 b 385 1057 456 1040 418 1057 b 324 965 340 1057 325 1022 l 319 790 z m 342 0 l 342 22 l 329 26 b 289 110 292 39 289 46 l 289 875 b 293 1043 289 968 293 1043 l 283 1051 l -1 1019 l -1 1003 l 31 982 b 57 876 58 964 57 950 l 57 110 b 17 26 57 46 54 39 l 4 22 l 4 0 z "},"m":{"ha":1006,"x_min":0,"x_max":0,"o":"m 617 110 l 617 544 b 615 599 617 560 617 582 b 661 607 626 603 644 607 b 715 510 697 607 715 588 l 715 110 b 688 26 715 42 714 36 l 676 22 l 676 0 l 1000 0 l 1000 22 l 988 26 b 947 110 950 39 947 46 l 947 572 b 806 746 947 694 886 746 b 611 633 729 746 663 694 l 608 633 b 483 746 597 710 549 746 b 285 633 400 746 336 693 l 282 633 l 282 738 l 275 746 l -1 710 l -1 696 l 25 674 b 54 574 54 650 54 639 l 54 110 b 14 26 54 46 51 39 l 1 22 l 1 0 l 325 0 l 325 22 l 314 26 b 286 110 288 36 286 42 l 286 599 b 331 607 299 603 314 607 b 385 511 367 607 385 588 l 385 110 b 357 26 385 42 383 36 l 346 22 l 346 0 l 656 0 l 656 22 l 644 26 b 617 110 618 36 617 42 z "},"n":{"ha":682,"x_min":0,"x_max":0,"o":"m 329 0 l 329 22 l 317 26 b 286 110 286 36 286 39 l 286 599 b 336 607 304 604 318 607 b 392 510 375 607 392 586 l 392 110 b 363 28 392 42 392 39 l 349 22 l 349 0 l 676 0 l 676 22 l 664 26 b 624 110 626 39 624 46 l 624 571 b 478 746 624 693 569 746 b 285 633 397 746 336 692 l 282 633 l 282 738 l 275 746 l -1 710 l -1 696 l 25 674 b 54 574 54 650 54 639 l 54 110 b 14 26 54 46 51 39 l 1 22 l 1 0 z "},"ñ":{"ha":682,"x_min":0,"x_max":0,"o":"m 290 963 b 172 790 235 963 201 907 l 190 783 b 254 835 210 818 225 835 b 417 813 300 835 374 813 b 532 985 476 813 503 867 l 514 993 b 451 940 494 956 481 940 b 290 963 407 940 339 963 z m 329 0 l 329 22 l 317 26 b 286 110 286 36 286 39 l 286 599 b 336 607 304 604 318 607 b 392 510 375 607 392 586 l 392 110 b 363 28 392 42 392 39 l 349 22 l 349 0 l 676 0 l 676 22 l 664 26 b 624 110 626 39 624 46 l 624 571 b 478 746 624 693 569 746 b 285 633 397 746 336 692 l 282 633 l 282 738 l 275 746 l -1 710 l -1 696 l 25 674 b 54 574 54 650 54 639 l 54 110 b 14 26 54 46 51 39 l 1 22 l 1 0 z "},"ń":{"ha":682,"x_min":0,"x_max":0,"o":"m 233 790 l 415 822 b 514 911 481 833 514 860 b 428 1004 514 961 481 1004 b 329 936 381 1004 356 971 l 228 803 z m 329 0 l 329 22 l 317 26 b 286 110 286 36 286 39 l 286 599 b 336 607 304 604 318 607 b 392 510 375 607 392 586 l 392 110 b 363 28 392 42 392 39 l 349 22 l 349 0 l 676 0 l 676 22 l 664 26 b 624 110 626 39 624 46 l 624 571 b 478 746 624 693 569 746 b 285 633 397 746 336 692 l 282 633 l 282 738 l 275 746 l -1 710 l -1 696 l 25 674 b 54 574 54 650 54 639 l 54 110 b 14 26 54 46 51 39 l 1 22 l 1 0 z "},"ņ":{"ha":682,"x_min":0,"x_max":0,"o":"m 329 0 l 329 22 l 317 26 b 286 110 286 36 286 39 l 286 599 b 336 607 304 604 318 607 b 392 510 375 607 392 586 l 392 110 b 363 28 392 42 392 39 l 349 22 l 349 0 l 676 0 l 676 22 l 664 26 b 624 110 626 39 624 46 l 624 571 b 478 746 624 693 569 746 b 285 633 397 746 336 692 l 282 633 l 282 738 l 275 746 l -1 710 l -1 696 l 25 674 b 54 574 54 650 54 639 l 54 110 b 14 26 54 46 51 39 l 1 22 l 1 0 z m 214 -344 b 432 -168 354 -335 432 -264 b 317 -53 432 -99 389 -53 b 221 -147 260 -53 221 -94 b 296 -222 221 -196 251 -222 b 351 -197 324 -222 342 -211 b 213 -331 350 -257 303 -303 z "},"ň":{"ha":682,"x_min":0,"x_max":0,"o":"m 375 789 l 494 994 l 485 1006 l 335 925 l 185 1006 l 175 994 l 296 789 z m 329 0 l 329 22 l 317 26 b 286 110 286 36 286 39 l 286 599 b 336 607 304 604 318 607 b 392 510 375 607 392 586 l 392 110 b 363 28 392 42 392 39 l 349 22 l 349 0 l 676 0 l 676 22 l 664 26 b 624 110 626 39 624 46 l 624 571 b 478 746 624 693 569 746 b 285 633 397 746 336 692 l 282 633 l 282 738 l 275 746 l -1 710 l -1 696 l 25 674 b 54 574 54 650 54 639 l 54 110 b 14 26 54 46 51 39 l 1 22 l 1 0 z "},"o":{"ha":626,"x_min":0,"x_max":0,"o":"m 313 -17 b 611 368 461 -17 611 76 b 313 746 611 639 464 746 b 15 363 168 746 15 653 b 313 -17 15 90 158 -17 z m 246 381 b 311 707 246 656 269 707 b 381 356 356 707 381 667 b 315 22 381 61 360 22 b 246 381 265 22 246 67 z "},"ò":{"ha":626,"x_min":0,"x_max":0,"o":"m 433 790 l 439 803 l 338 936 b 239 1004 311 971 286 1004 b 153 911 186 1004 153 961 b 251 822 153 860 186 833 z m 313 -17 b 611 368 461 -17 611 76 b 313 746 611 639 464 746 b 15 363 168 746 15 653 b 313 -17 15 90 158 -17 z m 246 381 b 311 707 246 656 269 707 b 381 356 356 707 381 667 b 315 22 381 61 360 22 b 246 381 265 22 246 67 z "},"ó":{"ha":626,"x_min":0,"x_max":0,"o":"m 189 790 l 371 822 b 469 911 436 833 469 860 b 383 1004 469 961 436 1004 b 285 936 336 1004 311 971 l 183 803 z m 313 -17 b 611 368 461 -17 611 76 b 313 746 611 639 464 746 b 15 363 168 746 15 653 b 313 -17 15 90 158 -17 z m 246 381 b 311 707 246 656 269 707 b 381 356 356 707 381 667 b 315 22 381 61 360 22 b 246 381 265 22 246 67 z "},"ô":{"ha":626,"x_min":0,"x_max":0,"o":"m 351 997 l 272 997 l 153 792 l 163 781 l 313 861 l 463 781 l 472 792 z m 313 -17 b 611 368 461 -17 611 76 b 313 746 611 639 464 746 b 15 363 168 746 15 653 b 313 -17 15 90 158 -17 z m 246 381 b 311 707 246 656 269 707 b 381 356 356 707 381 667 b 315 22 381 61 360 22 b 246 381 265 22 246 67 z "},"õ":{"ha":626,"x_min":0,"x_max":0,"o":"m 256 963 b 138 790 200 963 167 907 l 156 783 b 219 835 175 818 190 835 b 382 813 265 835 339 813 b 497 985 442 813 468 867 l 479 993 b 417 940 460 956 446 940 b 256 963 372 940 304 963 z m 313 -17 b 611 368 461 -17 611 76 b 313 746 611 639 464 746 b 15 363 168 746 15 653 b 313 -17 15 90 158 -17 z m 246 381 b 311 707 246 656 269 707 b 381 356 356 707 381 667 b 315 22 381 61 360 22 b 246 381 265 22 246 67 z "},"ö":{"ha":626,"x_min":0,"x_max":0,"o":"m 200 793 b 299 894 256 793 299 831 b 200 994 299 956 257 994 b 103 894 144 994 103 956 b 200 793 103 831 144 793 z m 425 793 b 524 894 481 793 524 831 b 425 994 524 956 482 994 b 328 894 369 994 328 956 b 425 793 328 831 369 793 z m 313 -17 b 611 368 461 -17 611 76 b 313 746 611 639 464 746 b 15 363 168 746 15 653 b 313 -17 15 90 158 -17 z m 246 381 b 311 707 246 656 269 707 b 381 356 356 707 381 667 b 315 22 381 61 360 22 b 246 381 265 22 246 67 z "},"ō":{"ha":626,"x_min":0,"x_max":0,"o":"m 165 832 l 457 832 l 457 914 l 165 914 z m 313 -17 b 611 368 461 -17 611 76 b 313 746 611 639 464 746 b 15 363 168 746 15 653 b 313 -17 15 90 158 -17 z m 246 381 b 311 707 246 656 269 707 b 381 356 356 707 381 667 b 315 22 381 61 360 22 b 246 381 265 22 246 67 z "},"ŏ":{"ha":626,"x_min":0,"x_max":0,"o":"m 307 785 b 443 989 385 785 435 865 l 433 992 b 307 913 407 939 368 913 b 181 992 246 913 207 939 l 171 989 b 307 785 179 865 229 785 z m 313 -17 b 611 368 461 -17 611 76 b 313 746 611 639 464 746 b 15 363 168 746 15 653 b 313 -17 15 90 158 -17 z m 246 381 b 311 707 246 656 269 707 b 381 356 356 707 381 667 b 315 22 381 61 360 22 b 246 381 265 22 246 67 z "},"ő":{"ha":626,"x_min":0,"x_max":0,"o":"m 178 786 l 300 853 b 361 946 340 875 361 908 b 282 1018 361 985 322 1018 b 208 938 244 1018 222 988 l 169 793 z m 360 786 l 482 853 b 543 946 522 875 543 908 b 465 1018 543 985 506 1018 b 390 938 428 1018 404 988 l 351 793 z m 313 -17 b 611 368 461 -17 611 76 b 313 746 611 639 464 746 b 15 363 168 746 15 653 b 313 -17 15 90 158 -17 z m 246 381 b 311 707 246 656 269 707 b 381 356 356 707 381 667 b 315 22 381 61 360 22 b 246 381 265 22 246 67 z "},"ơ":{"ha":626,"x_min":0,"x_max":0,"o":"m 313 -17 b 611 368 461 -17 611 76 b 511 665 611 508 571 606 b 632 821 592 688 632 746 b 549 922 632 889 599 922 b 474 847 506 922 474 894 b 542 735 474 789 542 769 b 474 697 542 713 517 701 b 313 746 426 731 369 746 b 15 363 168 746 15 653 b 313 -17 15 90 158 -17 z m 246 381 b 311 707 246 656 269 707 b 381 356 356 707 381 667 b 315 22 381 61 360 22 b 246 381 265 22 246 67 z "},"ọ":{"ha":626,"x_min":0,"x_max":0,"o":"m 313 -17 b 611 368 461 -17 611 76 b 313 746 611 639 464 746 b 15 363 168 746 15 653 b 313 -17 15 90 158 -17 z m 246 381 b 311 707 246 656 269 707 b 381 356 356 707 381 667 b 315 22 381 61 360 22 b 246 381 265 22 246 67 z m 315 -265 b 419 -162 375 -265 419 -228 b 315 -60 419 -97 375 -60 b 211 -162 256 -60 211 -97 b 315 -265 211 -228 256 -265 z "},"ỏ":{"ha":626,"x_min":0,"x_max":0,"o":"m 313 792 l 313 797 b 458 942 313 835 458 857 b 321 1033 458 997 418 1033 b 190 954 254 1033 190 1006 b 236 910 190 928 210 910 b 292 964 267 910 283 921 b 317 1001 297 989 300 1001 b 349 968 335 1001 349 990 b 279 839 349 918 279 904 b 300 792 279 813 290 801 z m 313 -17 b 611 368 461 -17 611 76 b 313 746 611 639 464 746 b 15 363 168 746 15 653 b 313 -17 15 90 158 -17 z m 246 381 b 311 707 246 656 269 707 b 381 356 356 707 381 667 b 315 22 381 61 360 22 b 246 381 265 22 246 67 z "},"ố":{"ha":626,"x_min":0,"x_max":0,"o":"m 419 960 l 532 1031 b 578 1097 563 1050 578 1071 b 507 1161 578 1139 538 1161 b 447 1100 472 1161 458 1138 l 410 967 z m 353 997 l 274 997 l 154 792 l 164 781 l 314 861 l 464 781 l 474 792 z m 313 -17 b 611 368 461 -17 611 76 b 313 746 611 639 464 746 b 15 363 168 746 15 653 b 313 -17 15 90 158 -17 z m 246 381 b 311 707 246 656 269 707 b 381 356 356 707 381 667 b 315 22 381 61 360 22 b 246 381 265 22 246 67 z "},"ồ":{"ha":626,"x_min":0,"x_max":0,"o":"m 488 960 l 497 967 l 464 1100 b 404 1161 454 1138 439 1161 b 333 1097 374 1161 333 1139 b 379 1031 333 1071 349 1050 z m 353 997 l 274 997 l 154 792 l 164 781 l 314 861 l 464 781 l 474 792 z m 313 -17 b 611 368 461 -17 611 76 b 313 746 611 639 464 746 b 15 363 168 746 15 653 b 313 -17 15 90 158 -17 z m 246 381 b 311 707 246 656 269 707 b 381 356 356 707 381 667 b 315 22 381 61 360 22 b 246 381 265 22 246 67 z "},"ổ":{"ha":626,"x_min":0,"x_max":0,"o":"m 447 963 l 447 965 b 576 1086 447 1000 576 1014 b 451 1167 576 1133 539 1167 b 335 1096 393 1167 335 1142 b 376 1058 335 1074 353 1058 b 426 1106 404 1058 419 1069 b 450 1138 431 1126 433 1138 b 478 1108 465 1138 478 1128 b 415 1003 478 1065 415 1058 b 435 963 415 981 426 969 z m 353 997 l 274 997 l 154 792 l 164 781 l 314 861 l 464 781 l 474 792 z m 313 -17 b 611 368 461 -17 611 76 b 313 746 611 639 464 746 b 15 363 168 746 15 653 b 313 -17 15 90 158 -17 z m 246 381 b 311 707 246 656 269 707 b 381 356 356 707 381 667 b 315 22 381 61 360 22 b 246 381 265 22 246 67 z "},"ỗ":{"ha":626,"x_min":0,"x_max":0,"o":"m 272 1194 b 154 1022 217 1194 183 1139 l 172 1015 b 236 1067 192 1050 207 1067 b 379 1044 278 1067 340 1044 b 494 1217 439 1044 465 1099 l 476 1225 b 414 1172 457 1188 443 1172 b 272 1194 374 1172 317 1194 z m 353 997 l 274 997 l 154 792 l 164 781 l 314 861 l 464 781 l 474 792 z m 313 -17 b 611 368 461 -17 611 76 b 313 746 611 639 464 746 b 15 363 168 746 15 653 b 313 -17 15 90 158 -17 z m 246 381 b 311 707 246 656 269 707 b 381 356 356 707 381 667 b 315 22 381 61 360 22 b 246 381 265 22 246 67 z "},"ộ":{"ha":626,"x_min":0,"x_max":0,"o":"m 353 997 l 274 997 l 154 792 l 164 781 l 314 861 l 464 781 l 474 792 z m 313 -17 b 611 368 461 -17 611 76 b 313 746 611 639 464 746 b 15 363 168 746 15 653 b 313 -17 15 90 158 -17 z m 246 381 b 311 707 246 656 269 707 b 381 356 356 707 381 667 b 315 22 381 61 360 22 b 246 381 265 22 246 67 z m 315 -265 b 419 -162 375 -265 419 -228 b 315 -60 419 -97 375 -60 b 211 -162 256 -60 211 -97 b 315 -265 211 -228 256 -265 z "},"ớ":{"ha":626,"x_min":0,"x_max":0,"o":"m 169 790 l 351 822 b 450 911 417 833 450 860 b 364 1004 450 961 417 1004 b 265 936 317 1004 292 971 l 164 803 z m 313 -17 b 611 368 461 -17 611 76 b 511 665 611 508 571 606 b 632 821 592 688 632 746 b 549 922 632 889 599 922 b 474 847 506 922 474 894 b 542 735 474 789 542 769 b 474 697 542 713 517 701 b 313 746 426 731 369 746 b 15 363 168 746 15 653 b 313 -17 15 90 158 -17 z m 246 381 b 311 707 246 656 269 707 b 381 356 356 707 381 667 b 315 22 381 61 360 22 b 246 381 265 22 246 67 z "},"ờ":{"ha":626,"x_min":0,"x_max":0,"o":"m 425 790 l 431 803 l 329 936 b 231 1004 303 971 278 1004 b 144 911 178 1004 144 961 b 243 822 144 860 178 833 z m 313 -17 b 611 368 461 -17 611 76 b 511 665 611 508 571 606 b 632 821 592 688 632 746 b 549 922 632 889 599 922 b 474 847 506 922 474 894 b 542 735 474 789 542 769 b 474 697 542 713 517 701 b 313 746 426 731 369 746 b 15 363 168 746 15 653 b 313 -17 15 90 158 -17 z m 246 381 b 311 707 246 656 269 707 b 381 356 356 707 381 667 b 315 22 381 61 360 22 b 246 381 265 22 246 67 z "},"ở":{"ha":626,"x_min":0,"x_max":0,"o":"m 313 792 l 313 797 b 458 942 313 835 458 857 b 321 1033 458 997 418 1033 b 190 954 254 1033 190 1006 b 236 910 190 928 210 910 b 292 964 267 910 283 921 b 317 1001 297 989 300 1001 b 349 968 335 1001 349 990 b 279 839 349 918 279 904 b 300 792 279 813 290 801 z m 313 -17 b 611 368 461 -17 611 76 b 511 665 611 508 571 606 b 632 821 592 688 632 746 b 549 922 632 889 599 922 b 474 847 506 922 474 894 b 542 735 474 789 542 769 b 474 697 542 713 517 701 b 313 746 426 731 369 746 b 15 363 168 746 15 653 b 313 -17 15 90 158 -17 z m 246 381 b 311 707 246 656 269 707 b 381 356 356 707 381 667 b 315 22 381 61 360 22 b 246 381 265 22 246 67 z "},"ỡ":{"ha":626,"x_min":0,"x_max":0,"o":"m 235 963 b 117 790 179 963 146 907 l 135 783 b 199 835 154 818 169 835 b 361 813 244 835 318 813 b 476 985 421 813 447 867 l 458 993 b 396 940 439 956 425 940 b 235 963 351 940 283 963 z m 313 -17 b 611 368 461 -17 611 76 b 511 665 611 508 571 606 b 632 821 592 688 632 746 b 549 922 632 889 599 922 b 474 847 506 922 474 894 b 542 735 474 789 542 769 b 474 697 542 713 517 701 b 313 746 426 731 369 746 b 15 363 168 746 15 653 b 313 -17 15 90 158 -17 z m 246 381 b 311 707 246 656 269 707 b 381 356 356 707 381 667 b 315 22 381 61 360 22 b 246 381 265 22 246 67 z "},"ợ":{"ha":626,"x_min":0,"x_max":0,"o":"m 313 -17 b 611 368 461 -17 611 76 b 511 665 611 508 571 606 b 632 821 592 688 632 746 b 549 922 632 889 599 922 b 474 847 506 922 474 894 b 542 735 474 789 542 769 b 474 697 542 713 517 701 b 313 746 426 731 369 746 b 15 363 168 746 15 653 b 313 -17 15 90 158 -17 z m 246 381 b 311 707 246 656 269 707 b 381 356 356 707 381 667 b 315 22 381 61 360 22 b 246 381 265 22 246 67 z m 315 -265 b 419 -162 375 -265 419 -228 b 315 -60 419 -97 375 -60 b 211 -162 256 -60 211 -97 b 315 -265 211 -228 256 -265 z "},"p":{"ha":664,"x_min":0,"x_max":0,"o":"m 281 -7 b 346 -17 300 -12 321 -17 b 646 406 513 -17 646 104 b 449 746 646 650 556 746 b 282 642 378 746 324 696 l 276 642 l 278 738 l 269 746 l -7 710 l -7 696 l 19 674 b 49 574 49 650 49 639 l 49 -167 b 8 -250 49 -231 46 -237 l -4 -254 l -4 -276 l 340 -276 l 340 -254 l 321 -247 b 281 -167 279 -232 281 -228 z m 333 22 b 281 72 308 22 292 44 l 281 603 b 322 614 293 610 306 614 b 410 347 379 614 410 563 b 333 22 410 76 379 22 z "},"q":{"ha":664,"x_min":0,"x_max":0,"o":"m 379 -165 b 339 -249 379 -229 376 -239 l 317 -254 l 317 -276 l 664 -276 l 664 -254 l 651 -250 b 611 -167 614 -237 611 -231 l 611 735 l 601 740 l 531 678 l 526 678 b 326 746 467 719 407 746 b 15 331 150 746 15 628 b 214 -17 15 83 103 -17 b 375 71 288 -17 338 18 l 379 71 z m 339 101 b 251 392 283 101 251 158 b 331 707 251 635 286 707 b 379 656 354 707 369 682 l 379 118 b 339 101 371 108 357 101 z "},"r":{"ha":524,"x_min":0,"x_max":0,"o":"m 54 110 b 14 26 54 46 51 39 l 1 22 l 1 0 l 349 0 l 349 24 l 331 28 b 286 110 288 38 286 42 l 286 599 b 311 604 292 601 301 604 b 340 581 324 604 332 600 b 428 517 360 535 385 517 b 524 633 488 517 524 558 b 429 746 524 710 488 746 b 285 628 365 746 317 686 l 282 628 l 282 738 l 275 746 l -1 710 l -1 696 l 25 674 b 54 574 54 650 54 639 z "},"ŕ":{"ha":524,"x_min":0,"x_max":0,"o":"m 161 790 l 343 822 b 442 911 408 833 442 860 b 356 1004 442 961 408 1004 b 257 936 308 1004 283 971 l 156 803 z m 54 110 b 14 26 54 46 51 39 l 1 22 l 1 0 l 349 0 l 349 24 l 331 28 b 286 110 288 38 286 42 l 286 599 b 311 604 292 601 301 604 b 340 581 324 604 332 600 b 428 517 360 535 385 517 b 524 633 488 517 524 558 b 429 746 524 710 488 746 b 285 628 365 746 317 686 l 282 628 l 282 738 l 275 746 l -1 710 l -1 696 l 25 674 b 54 574 54 650 54 639 z "},"ŗ":{"ha":524,"x_min":0,"x_max":0,"o":"m 54 110 b 14 26 54 46 51 39 l 1 22 l 1 0 l 349 0 l 349 24 l 331 28 b 286 110 288 38 286 42 l 286 599 b 311 604 292 601 301 604 b 340 581 324 604 332 600 b 428 517 360 535 385 517 b 524 633 488 517 524 558 b 429 746 524 710 488 746 b 285 628 365 746 317 686 l 282 628 l 282 738 l 275 746 l -1 710 l -1 696 l 25 674 b 54 574 54 650 54 639 z m 51 -344 b 269 -168 192 -335 269 -264 b 154 -53 269 -99 226 -53 b 58 -147 97 -53 58 -94 b 133 -222 58 -196 89 -222 b 189 -197 161 -222 179 -211 b 50 -331 188 -257 140 -303 z "},"ř":{"ha":524,"x_min":0,"x_max":0,"o":"m 315 789 l 435 994 l 425 1006 l 275 925 l 125 1006 l 115 994 l 236 789 z m 54 110 b 14 26 54 46 51 39 l 1 22 l 1 0 l 349 0 l 349 24 l 331 28 b 286 110 288 38 286 42 l 286 599 b 311 604 292 601 301 604 b 340 581 324 604 332 600 b 428 517 360 535 385 517 b 524 633 488 517 524 558 b 429 746 524 710 488 746 b 285 628 365 746 317 686 l 282 628 l 282 738 l 275 746 l -1 710 l -1 696 l 25 674 b 54 574 54 650 54 639 z "},"s":{"ha":467,"x_min":0,"x_max":0,"o":"m 272 118 b 201 24 272 56 244 24 b 113 90 167 24 146 44 b 40 221 86 128 68 158 l 19 221 l 25 11 b 197 -17 71 -6 138 -17 b 457 236 378 -17 457 104 b 299 479 457 357 415 415 b 178 622 214 525 178 553 b 244 706 178 669 201 706 b 324 653 274 706 294 689 b 394 543 353 617 365 596 l 415 543 l 408 718 b 257 746 375 731 315 746 b 13 507 101 746 13 643 b 151 275 13 396 53 331 b 272 118 244 222 272 188 z "},"ś":{"ha":467,"x_min":0,"x_max":0,"o":"m 108 790 l 290 822 b 389 911 356 833 389 860 b 303 1004 389 961 356 1004 b 204 936 256 1004 231 971 l 103 803 z m 272 118 b 201 24 272 56 244 24 b 113 90 167 24 146 44 b 40 221 86 128 68 158 l 19 221 l 25 11 b 197 -17 71 -6 138 -17 b 457 236 378 -17 457 104 b 299 479 457 357 415 415 b 178 622 214 525 178 553 b 244 706 178 669 201 706 b 324 653 274 706 294 689 b 394 543 353 617 365 596 l 415 543 l 408 718 b 257 746 375 731 315 746 b 13 507 101 746 13 643 b 151 275 13 396 53 331 b 272 118 244 222 272 188 z "},"ŝ":{"ha":467,"x_min":0,"x_max":0,"o":"m 265 997 l 186 997 l 67 792 l 76 781 l 226 861 l 376 781 l 386 792 z m 272 118 b 201 24 272 56 244 24 b 113 90 167 24 146 44 b 40 221 86 128 68 158 l 19 221 l 25 11 b 197 -17 71 -6 138 -17 b 457 236 378 -17 457 104 b 299 479 457 357 415 415 b 178 622 214 525 178 553 b 244 706 178 669 201 706 b 324 653 274 706 294 689 b 394 543 353 617 365 596 l 415 543 l 408 718 b 257 746 375 731 315 746 b 13 507 101 746 13 643 b 151 275 13 396 53 331 b 272 118 244 222 272 188 z "},"ş":{"ha":467,"x_min":0,"x_max":0,"o":"m 69 -281 b 286 -144 197 -268 286 -228 b 186 -57 286 -97 253 -65 l 207 -17 b 457 236 378 -17 457 104 b 299 479 457 357 415 415 b 178 622 214 525 178 553 b 244 706 178 669 201 706 b 324 653 274 706 294 689 b 394 543 353 617 365 596 l 415 543 l 408 718 b 257 746 375 731 315 746 b 13 507 101 746 13 643 b 151 275 13 396 53 331 b 272 118 244 222 272 188 b 201 24 272 56 244 24 b 113 90 167 24 146 44 b 40 221 86 128 68 158 l 19 221 l 25 11 b 172 -17 64 -3 119 -14 l 115 -137 l 118 -144 b 175 -181 149 -146 175 -154 b 69 -260 175 -215 133 -243 z "},"š":{"ha":467,"x_min":0,"x_max":0,"o":"m 272 789 l 392 994 l 382 1006 l 232 925 l 82 1006 l 72 994 l 193 789 z m 272 118 b 201 24 272 56 244 24 b 113 90 167 24 146 44 b 40 221 86 128 68 158 l 19 221 l 25 11 b 197 -17 71 -6 138 -17 b 457 236 378 -17 457 104 b 299 479 457 357 415 415 b 178 622 214 525 178 553 b 244 706 178 669 201 706 b 324 653 274 706 294 689 b 394 543 353 617 365 596 l 415 543 l 408 718 b 257 746 375 731 315 746 b 13 507 101 746 13 643 b 151 275 13 396 53 331 b 272 118 244 222 272 188 z "},"ș":{"ha":467,"x_min":0,"x_max":0,"o":"m 272 118 b 201 24 272 56 244 24 b 113 90 167 24 146 44 b 40 221 86 128 68 158 l 19 221 l 25 11 b 197 -17 71 -6 138 -17 b 457 236 378 -17 457 104 b 299 479 457 357 415 415 b 178 622 214 525 178 553 b 244 706 178 669 201 706 b 324 653 274 706 294 689 b 394 543 353 617 365 596 l 415 543 l 408 718 b 257 746 375 731 315 746 b 13 507 101 746 13 643 b 151 275 13 396 53 331 b 272 118 244 222 272 188 z m 101 -344 b 319 -168 242 -335 319 -264 b 204 -53 319 -99 276 -53 b 108 -147 147 -53 108 -94 b 183 -222 108 -196 139 -222 b 239 -197 211 -222 229 -211 b 100 -331 238 -257 190 -303 z "},"t":{"ha":406,"x_min":0,"x_max":0,"o":"m 217 -17 b 399 71 307 -17 364 22 l 399 93 b 340 86 386 90 364 86 b 276 175 286 86 276 106 l 276 656 l 385 656 l 392 729 l 276 729 l 276 921 l 217 921 b -4 672 175 819 83 717 l -4 656 l 44 656 l 44 161 b 217 -17 44 29 115 -17 z "},"ţ":{"ha":406,"x_min":0,"x_max":0,"o":"m 217 -17 b 399 71 307 -17 364 22 l 399 93 b 340 86 386 90 364 86 b 276 175 286 86 276 106 l 276 656 l 385 656 l 392 729 l 276 729 l 276 921 l 217 921 b -4 672 175 819 83 717 l -4 656 l 44 656 l 44 161 b 128 0 44 72 76 24 l 64 -137 l 67 -144 b 124 -181 97 -146 124 -154 b 18 -260 124 -215 82 -243 l 18 -281 b 235 -144 146 -268 235 -228 b 135 -57 235 -97 201 -65 l 158 -11 b 217 -17 176 -15 196 -17 z "},"ť":{"ha":406,"x_min":0,"x_max":0,"o":"m 326 786 l 422 928 b 451 1003 442 957 451 981 b 381 1057 451 1040 414 1057 b 319 965 336 1057 321 1022 l 315 790 z m 217 -17 b 399 71 307 -17 364 22 l 399 93 b 340 86 386 90 364 86 b 276 175 286 86 276 106 l 276 656 l 385 656 l 392 729 l 276 729 l 276 921 l 217 921 b -4 672 175 819 83 717 l -4 656 l 44 656 l 44 161 b 217 -17 44 29 115 -17 z "},"ț":{"ha":406,"x_min":0,"x_max":0,"o":"m 217 -17 b 399 71 307 -17 364 22 l 399 93 b 340 86 386 90 364 86 b 276 175 286 86 276 106 l 276 656 l 385 656 l 392 729 l 276 729 l 276 921 l 217 921 b -4 672 175 819 83 717 l -4 656 l 44 656 l 44 161 b 217 -17 44 29 115 -17 z m 92 -344 b 310 -168 232 -335 310 -264 b 194 -53 310 -99 267 -53 b 99 -147 138 -53 99 -94 b 174 -222 99 -196 129 -222 b 229 -197 201 -222 219 -211 b 90 -331 228 -257 181 -303 z "},"ṭ":{"ha":406,"x_min":0,"x_max":0,"o":"m 217 -17 b 399 71 307 -17 364 22 l 399 93 b 340 86 386 90 364 86 b 276 175 286 86 276 106 l 276 656 l 385 656 l 392 729 l 276 729 l 276 921 l 217 921 b -4 672 175 819 83 717 l -4 656 l 44 656 l 44 161 b 217 -17 44 29 115 -17 z m 204 -265 b 308 -162 264 -265 308 -228 b 204 -60 308 -97 264 -60 b 100 -162 144 -60 100 -97 b 204 -265 100 -228 144 -265 z "},"u":{"ha":668,"x_min":0,"x_max":0,"o":"m 385 85 l 388 85 l 386 -8 l 394 -17 l 667 31 l 667 49 l 646 60 b 615 139 617 75 615 81 l 615 738 l 608 746 l 328 710 l 328 696 l 354 674 b 383 574 383 650 383 639 l 383 121 b 340 114 372 117 357 114 b 279 203 294 114 279 138 l 279 738 l 272 746 l -8 710 l -8 696 l 18 674 b 47 574 47 650 47 639 l 47 175 b 201 -17 47 38 108 -17 b 385 85 286 -17 338 29 z "},"ù":{"ha":668,"x_min":0,"x_max":0,"o":"m 443 790 l 449 803 l 347 936 b 249 1004 321 971 296 1004 b 163 911 196 1004 163 961 b 261 822 163 860 196 833 z m 385 85 l 388 85 l 386 -8 l 394 -17 l 667 31 l 667 49 l 646 60 b 615 139 617 75 615 81 l 615 738 l 608 746 l 328 710 l 328 696 l 354 674 b 383 574 383 650 383 639 l 383 121 b 340 114 372 117 357 114 b 279 203 294 114 279 138 l 279 738 l 272 746 l -8 710 l -8 696 l 18 674 b 47 574 47 650 47 639 l 47 175 b 201 -17 47 38 108 -17 b 385 85 286 -17 338 29 z "},"ú":{"ha":668,"x_min":0,"x_max":0,"o":"m 215 790 l 397 822 b 496 911 463 833 496 860 b 410 1004 496 961 463 1004 b 311 936 363 1004 338 971 l 210 803 z m 385 85 l 388 85 l 386 -8 l 394 -17 l 667 31 l 667 49 l 646 60 b 615 139 617 75 615 81 l 615 738 l 608 746 l 328 710 l 328 696 l 354 674 b 383 574 383 650 383 639 l 383 121 b 340 114 372 117 357 114 b 279 203 294 114 279 138 l 279 738 l 272 746 l -8 710 l -8 696 l 18 674 b 47 574 47 650 47 639 l 47 175 b 201 -17 47 38 108 -17 b 385 85 286 -17 338 29 z "},"û":{"ha":668,"x_min":0,"x_max":0,"o":"m 368 997 l 289 997 l 169 792 l 179 781 l 329 861 l 479 781 l 489 792 z m 385 85 l 388 85 l 386 -8 l 394 -17 l 667 31 l 667 49 l 646 60 b 615 139 617 75 615 81 l 615 738 l 608 746 l 328 710 l 328 696 l 354 674 b 383 574 383 650 383 639 l 383 121 b 340 114 372 117 357 114 b 279 203 294 114 279 138 l 279 738 l 272 746 l -8 710 l -8 696 l 18 674 b 47 574 47 650 47 639 l 47 175 b 201 -17 47 38 108 -17 b 385 85 286 -17 338 29 z "},"ü":{"ha":668,"x_min":0,"x_max":0,"o":"m 207 793 b 306 894 263 793 306 831 b 207 994 306 956 264 994 b 110 894 151 994 110 956 b 207 793 110 831 151 793 z m 432 793 b 531 894 488 793 531 831 b 432 994 531 956 489 994 b 335 894 376 994 335 956 b 432 793 335 831 376 793 z m 385 85 l 388 85 l 386 -8 l 394 -17 l 667 31 l 667 49 l 646 60 b 615 139 617 75 615 81 l 615 738 l 608 746 l 328 710 l 328 696 l 354 674 b 383 574 383 650 383 639 l 383 121 b 340 114 372 117 357 114 b 279 203 294 114 279 138 l 279 738 l 272 746 l -8 710 l -8 696 l 18 674 b 47 574 47 650 47 639 l 47 175 b 201 -17 47 38 108 -17 b 385 85 286 -17 338 29 z "},"ũ":{"ha":668,"x_min":0,"x_max":0,"o":"m 271 963 b 153 790 215 963 182 907 l 171 783 b 235 835 190 818 206 835 b 397 813 281 835 354 813 b 513 985 457 813 483 867 l 494 993 b 432 940 475 956 461 940 b 271 963 388 940 319 963 z m 385 85 l 388 85 l 386 -8 l 394 -17 l 667 31 l 667 49 l 646 60 b 615 139 617 75 615 81 l 615 738 l 608 746 l 328 710 l 328 696 l 354 674 b 383 574 383 650 383 639 l 383 121 b 340 114 372 117 357 114 b 279 203 294 114 279 138 l 279 738 l 272 746 l -8 710 l -8 696 l 18 674 b 47 574 47 650 47 639 l 47 175 b 201 -17 47 38 108 -17 b 385 85 286 -17 338 29 z "},"ū":{"ha":668,"x_min":0,"x_max":0,"o":"m 188 832 l 479 832 l 479 914 l 188 914 z m 385 85 l 388 85 l 386 -8 l 394 -17 l 667 31 l 667 49 l 646 60 b 615 139 617 75 615 81 l 615 738 l 608 746 l 328 710 l 328 696 l 354 674 b 383 574 383 650 383 639 l 383 121 b 340 114 372 117 357 114 b 279 203 294 114 279 138 l 279 738 l 272 746 l -8 710 l -8 696 l 18 674 b 47 574 47 650 47 639 l 47 175 b 201 -17 47 38 108 -17 b 385 85 286 -17 338 29 z "},"ŭ":{"ha":668,"x_min":0,"x_max":0,"o":"m 335 785 b 471 989 413 785 463 865 l 461 992 b 335 913 435 939 396 913 b 208 992 274 913 235 939 l 199 989 b 335 785 207 865 257 785 z m 385 85 l 388 85 l 386 -8 l 394 -17 l 667 31 l 667 49 l 646 60 b 615 139 617 75 615 81 l 615 738 l 608 746 l 328 710 l 328 696 l 354 674 b 383 574 383 650 383 639 l 383 121 b 340 114 372 117 357 114 b 279 203 294 114 279 138 l 279 738 l 272 746 l -8 710 l -8 696 l 18 674 b 47 574 47 650 47 639 l 47 175 b 201 -17 47 38 108 -17 b 385 85 286 -17 338 29 z "},"ů":{"ha":668,"x_min":0,"x_max":0,"o":"m 214 908 b 331 790 214 839 268 790 b 447 908 397 790 447 839 b 331 1025 447 976 394 1025 b 214 908 268 1025 214 976 z m 260 908 b 331 990 260 954 286 990 b 401 908 376 990 401 954 b 331 825 401 860 376 825 b 260 908 286 825 260 860 z m 385 85 l 388 85 l 386 -8 l 394 -17 l 667 31 l 667 49 l 646 60 b 615 139 617 75 615 81 l 615 738 l 608 746 l 328 710 l 328 696 l 354 674 b 383 574 383 650 383 639 l 383 121 b 340 114 372 117 357 114 b 279 203 294 114 279 138 l 279 738 l 272 746 l -8 710 l -8 696 l 18 674 b 47 574 47 650 47 639 l 47 175 b 201 -17 47 38 108 -17 b 385 85 286 -17 338 29 z "},"ű":{"ha":668,"x_min":0,"x_max":0,"o":"m 194 786 l 317 853 b 378 946 357 875 378 908 b 299 1018 378 985 339 1018 b 225 938 261 1018 239 988 l 186 793 z m 376 786 l 499 853 b 560 946 539 875 560 908 b 482 1018 560 985 522 1018 b 407 938 444 1018 421 988 l 368 793 z m 385 85 l 388 85 l 386 -8 l 394 -17 l 667 31 l 667 49 l 646 60 b 615 139 617 75 615 81 l 615 738 l 608 746 l 328 710 l 328 696 l 354 674 b 383 574 383 650 383 639 l 383 121 b 340 114 372 117 357 114 b 279 203 294 114 279 138 l 279 738 l 272 746 l -8 710 l -8 696 l 18 674 b 47 574 47 650 47 639 l 47 175 b 201 -17 47 38 108 -17 b 385 85 286 -17 338 29 z "},"ų":{"ha":668,"x_min":0,"x_max":0,"o":"m 376 -144 b 540 8 376 -60 433 -11 l 667 31 l 667 49 l 646 60 b 615 139 617 75 615 81 l 615 739 l 608 747 l 328 711 l 328 697 l 354 675 b 383 575 383 651 383 640 l 383 121 b 340 114 372 117 357 114 b 279 203 294 114 279 138 l 279 739 l 272 747 l -8 711 l -8 697 l 18 675 b 47 575 47 651 47 640 l 47 175 b 201 -17 47 38 108 -17 b 385 85 286 -17 338 29 l 388 85 l 386 -8 b 240 -178 300 -49 240 -97 b 350 -285 240 -242 281 -285 b 469 -233 410 -285 453 -258 l 469 -217 b 436 -222 461 -221 444 -222 b 376 -144 407 -222 376 -208 z "},"ư":{"ha":710,"x_min":0,"x_max":0,"o":"m 385 85 l 388 85 l 386 -8 l 394 -17 l 667 31 l 667 49 l 646 60 b 615 139 617 75 615 81 l 615 658 b 772 821 719 671 772 736 b 689 922 772 889 739 922 b 614 847 646 922 614 894 b 682 735 614 789 682 769 b 615 697 682 713 658 701 l 615 738 l 608 746 l 328 710 l 328 696 l 354 674 b 383 574 383 650 383 639 l 383 121 b 340 114 372 117 357 114 b 279 203 294 114 279 138 l 279 738 l 272 746 l -8 710 l -8 696 l 18 674 b 47 574 47 650 47 639 l 47 175 b 201 -17 47 38 108 -17 b 385 85 286 -17 338 29 z "},"ụ":{"ha":668,"x_min":0,"x_max":0,"o":"m 385 85 l 388 85 l 386 -8 l 394 -17 l 667 31 l 667 49 l 646 60 b 615 139 617 75 615 81 l 615 738 l 608 746 l 328 710 l 328 696 l 354 674 b 383 574 383 650 383 639 l 383 121 b 340 114 372 117 357 114 b 279 203 294 114 279 138 l 279 738 l 272 746 l -8 710 l -8 696 l 18 674 b 47 574 47 650 47 639 l 47 175 b 201 -17 47 38 108 -17 b 385 85 286 -17 338 29 z m 344 -265 b 449 -162 404 -265 449 -228 b 344 -60 449 -97 404 -60 b 240 -162 285 -60 240 -97 b 344 -265 240 -228 285 -265 z "},"ủ":{"ha":668,"x_min":0,"x_max":0,"o":"m 329 792 l 329 797 b 475 942 329 835 475 857 b 338 1033 475 997 435 1033 b 207 954 271 1033 207 1006 b 253 910 207 928 226 910 b 308 964 283 910 300 921 b 333 1001 314 989 317 1001 b 365 968 351 1001 365 990 b 296 839 365 918 296 904 b 317 792 296 813 307 801 z m 385 85 l 388 85 l 386 -8 l 394 -17 l 667 31 l 667 49 l 646 60 b 615 139 617 75 615 81 l 615 738 l 608 746 l 328 710 l 328 696 l 354 674 b 383 574 383 650 383 639 l 383 121 b 340 114 372 117 357 114 b 279 203 294 114 279 138 l 279 738 l 272 746 l -8 710 l -8 696 l 18 674 b 47 574 47 650 47 639 l 47 175 b 201 -17 47 38 108 -17 b 385 85 286 -17 338 29 z "},"ứ":{"ha":710,"x_min":0,"x_max":0,"o":"m 246 790 l 428 822 b 526 911 493 833 526 860 b 440 1004 526 961 493 1004 b 342 936 393 1004 368 971 l 240 803 z m 385 85 l 388 85 l 386 -8 l 394 -17 l 667 31 l 667 49 l 646 60 b 615 139 617 75 615 81 l 615 658 b 772 821 719 671 772 736 b 689 922 772 889 739 922 b 614 847 646 922 614 894 b 682 735 614 789 682 769 b 615 697 682 713 658 701 l 615 738 l 608 746 l 328 710 l 328 696 l 354 674 b 383 574 383 650 383 639 l 383 121 b 340 114 372 117 357 114 b 279 203 294 114 279 138 l 279 738 l 272 746 l -8 710 l -8 696 l 18 674 b 47 574 47 650 47 639 l 47 175 b 201 -17 47 38 108 -17 b 385 85 286 -17 338 29 z "},"ừ":{"ha":710,"x_min":0,"x_max":0,"o":"m 442 790 l 447 803 l 346 936 b 247 1004 319 971 294 1004 b 161 911 194 1004 161 961 b 260 822 161 860 194 833 z m 385 85 l 388 85 l 386 -8 l 394 -17 l 667 31 l 667 49 l 646 60 b 615 139 617 75 615 81 l 615 658 b 772 821 719 671 772 736 b 689 922 772 889 739 922 b 614 847 646 922 614 894 b 682 735 614 789 682 769 b 615 697 682 713 658 701 l 615 738 l 608 746 l 328 710 l 328 696 l 354 674 b 383 574 383 650 383 639 l 383 121 b 340 114 372 117 357 114 b 279 203 294 114 279 138 l 279 738 l 272 746 l -8 710 l -8 696 l 18 674 b 47 574 47 650 47 639 l 47 175 b 201 -17 47 38 108 -17 b 385 85 286 -17 338 29 z "},"ử":{"ha":710,"x_min":0,"x_max":0,"o":"m 329 792 l 329 797 b 475 942 329 835 475 857 b 338 1033 475 997 435 1033 b 207 954 271 1033 207 1006 b 253 910 207 928 226 910 b 308 964 283 910 300 921 b 333 1001 314 989 317 1001 b 365 968 351 1001 365 990 b 296 839 365 918 296 904 b 317 792 296 813 307 801 z m 385 85 l 388 85 l 386 -8 l 394 -17 l 667 31 l 667 49 l 646 60 b 615 139 617 75 615 81 l 615 658 b 772 821 719 671 772 736 b 689 922 772 889 739 922 b 614 847 646 922 614 894 b 682 735 614 789 682 769 b 615 697 682 713 658 701 l 615 738 l 608 746 l 328 710 l 328 696 l 354 674 b 383 574 383 650 383 639 l 383 121 b 340 114 372 117 357 114 b 279 203 294 114 279 138 l 279 738 l 272 746 l -8 710 l -8 696 l 18 674 b 47 574 47 650 47 639 l 47 175 b 201 -17 47 38 108 -17 b 385 85 286 -17 338 29 z "},"ữ":{"ha":710,"x_min":0,"x_max":0,"o":"m 279 963 b 161 790 224 963 190 907 l 179 783 b 243 835 199 818 214 835 b 406 813 289 835 363 813 b 521 985 465 813 492 867 l 503 993 b 440 940 483 956 469 940 b 279 963 396 940 328 963 z m 385 85 l 388 85 l 386 -8 l 394 -17 l 667 31 l 667 49 l 646 60 b 615 139 617 75 615 81 l 615 658 b 772 821 719 671 772 736 b 689 922 772 889 739 922 b 614 847 646 922 614 894 b 682 735 614 789 682 769 b 615 697 682 713 658 701 l 615 738 l 608 746 l 328 710 l 328 696 l 354 674 b 383 574 383 650 383 639 l 383 121 b 340 114 372 117 357 114 b 279 203 294 114 279 138 l 279 738 l 272 746 l -8 710 l -8 696 l 18 674 b 47 574 47 650 47 639 l 47 175 b 201 -17 47 38 108 -17 b 385 85 286 -17 338 29 z "},"ự":{"ha":710,"x_min":0,"x_max":0,"o":"m 385 85 l 388 85 l 386 -8 l 394 -17 l 667 31 l 667 49 l 646 60 b 615 139 617 75 615 81 l 615 658 b 772 821 719 671 772 736 b 689 922 772 889 739 922 b 614 847 646 922 614 894 b 682 735 614 789 682 769 b 615 697 682 713 658 701 l 615 738 l 608 746 l 328 710 l 328 696 l 354 674 b 383 574 383 650 383 639 l 383 121 b 340 114 372 117 357 114 b 279 203 294 114 279 138 l 279 738 l 272 746 l -8 710 l -8 696 l 18 674 b 47 574 47 650 47 639 l 47 175 b 201 -17 47 38 108 -17 b 385 85 286 -17 338 29 z m 344 -265 b 449 -162 404 -265 449 -228 b 344 -60 449 -97 404 -60 b 240 -162 285 -60 240 -97 b 344 -265 240 -228 285 -265 z "},"v":{"ha":564,"x_min":0,"x_max":0,"o":"m 407 729 l 407 707 l 426 700 b 468 653 454 690 468 682 b 447 549 468 633 460 594 l 379 285 l 376 285 l 304 558 b 289 649 296 592 289 622 b 329 700 289 675 300 690 l 351 707 l 351 729 l -15 729 l -15 707 l -6 701 b 54 582 17 689 24 685 l 224 0 l 343 0 l 499 579 b 563 701 522 667 532 686 l 574 707 l 574 729 z "},"w":{"ha":897,"x_min":0,"x_max":0,"o":"m 219 0 l 350 0 l 457 413 l 558 0 l 685 0 l 831 569 b 900 703 856 669 869 688 l 908 707 l 908 729 l 738 729 l 738 707 l 756 700 b 799 650 785 689 799 676 b 783 557 799 625 792 593 l 713 274 l 708 274 l 651 560 b 639 644 644 592 639 618 b 681 700 639 671 650 688 l 697 707 l 697 729 l 350 729 l 350 707 l 357 703 b 415 583 379 690 392 681 l 438 494 l 378 274 l 375 274 l 304 560 b 286 657 293 607 286 635 b 313 703 286 681 294 692 l 319 707 l 319 729 l -11 729 l -11 707 l 0 701 b 60 582 22 690 33 678 z "},"ŵ":{"ha":897,"x_min":0,"x_max":0,"o":"m 522 997 l 443 997 l 324 792 l 333 781 l 483 861 l 633 781 l 643 792 z m 219 0 l 350 0 l 457 413 l 558 0 l 685 0 l 831 569 b 900 703 856 669 869 688 l 908 707 l 908 729 l 738 729 l 738 707 l 756 700 b 799 650 785 689 799 676 b 783 557 799 625 792 593 l 713 274 l 708 274 l 651 560 b 639 644 644 592 639 618 b 681 700 639 671 650 688 l 697 707 l 697 729 l 350 729 l 350 707 l 357 703 b 415 583 379 690 392 681 l 438 494 l 378 274 l 375 274 l 304 560 b 286 657 293 607 286 635 b 313 703 286 681 294 692 l 319 707 l 319 729 l -11 729 l -11 707 l 0 701 b 60 582 22 690 33 678 z "},"ẁ":{"ha":897,"x_min":0,"x_max":0,"o":"m 606 790 l 611 803 l 510 936 b 411 1004 483 971 458 1004 b 325 911 358 1004 325 961 b 424 822 325 860 358 833 z m 219 0 l 350 0 l 457 413 l 558 0 l 685 0 l 831 569 b 900 703 856 669 869 688 l 908 707 l 908 729 l 738 729 l 738 707 l 756 700 b 799 650 785 689 799 676 b 783 557 799 625 792 593 l 713 274 l 708 274 l 651 560 b 639 644 644 592 639 618 b 681 700 639 671 650 688 l 697 707 l 697 729 l 350 729 l 350 707 l 357 703 b 415 583 379 690 392 681 l 438 494 l 378 274 l 375 274 l 304 560 b 286 657 293 607 286 635 b 313 703 286 681 294 692 l 319 707 l 319 729 l -11 729 l -11 707 l 0 701 b 60 582 22 690 33 678 z "},"ẃ":{"ha":897,"x_min":0,"x_max":0,"o":"m 389 790 l 571 822 b 669 911 636 833 669 860 b 583 1004 669 961 636 1004 b 485 936 536 1004 511 971 l 383 803 z m 219 0 l 350 0 l 457 413 l 558 0 l 685 0 l 831 569 b 900 703 856 669 869 688 l 908 707 l 908 729 l 738 729 l 738 707 l 756 700 b 799 650 785 689 799 676 b 783 557 799 625 792 593 l 713 274 l 708 274 l 651 560 b 639 644 644 592 639 618 b 681 700 639 671 650 688 l 697 707 l 697 729 l 350 729 l 350 707 l 357 703 b 415 583 379 690 392 681 l 438 494 l 378 274 l 375 274 l 304 560 b 286 657 293 607 286 635 b 313 703 286 681 294 692 l 319 707 l 319 729 l -11 729 l -11 707 l 0 701 b 60 582 22 690 33 678 z "},"ẅ":{"ha":897,"x_min":0,"x_max":0,"o":"m 369 793 b 468 894 425 793 468 831 b 369 994 468 956 426 994 b 272 894 314 994 272 956 b 369 793 272 831 314 793 z m 594 793 b 693 894 650 793 693 831 b 594 994 693 956 651 994 b 497 894 539 994 497 956 b 594 793 497 831 539 793 z m 219 0 l 350 0 l 457 413 l 558 0 l 685 0 l 831 569 b 900 703 856 669 869 688 l 908 707 l 908 729 l 738 729 l 738 707 l 756 700 b 799 650 785 689 799 676 b 783 557 799 625 792 593 l 713 274 l 708 274 l 651 560 b 639 644 644 592 639 618 b 681 700 639 671 650 688 l 697 707 l 697 729 l 350 729 l 350 707 l 357 703 b 415 583 379 690 392 681 l 438 494 l 378 274 l 375 274 l 304 560 b 286 657 293 607 286 635 b 313 703 286 681 294 692 l 319 707 l 319 729 l -11 729 l -11 707 l 0 701 b 60 582 22 690 33 678 z "},"x":{"ha":617,"x_min":0,"x_max":0,"o":"m 310 658 b 350 700 310 681 324 692 l 367 706 l 367 729 l -1 729 l -1 706 l 10 700 b 71 603 29 690 35 681 l 188 349 l 82 125 b -1 25 46 49 26 32 l -12 22 l -12 0 l 182 0 l 182 22 l 164 28 b 122 69 132 38 122 47 b 153 169 122 94 132 124 l 211 297 l 213 297 l 278 150 b 303 72 296 110 303 92 b 263 28 303 51 288 36 l 244 22 l 244 0 l 615 0 l 615 22 l 606 26 b 540 126 578 39 576 49 l 415 393 l 499 585 b 585 701 531 660 553 689 l 596 706 l 596 729 l 410 729 l 410 706 l 425 700 b 467 647 457 689 467 672 b 444 564 467 624 458 596 l 393 447 l 390 447 l 333 578 b 310 658 315 618 310 636 z "},"y":{"ha":582,"x_min":0,"x_max":0,"o":"m 279 -76 b 203 -203 250 -179 228 -203 b 178 -171 188 -203 183 -194 b 104 -106 168 -128 149 -106 b 28 -186 57 -106 28 -136 b 142 -285 28 -244 68 -285 b 322 -100 226 -285 281 -246 l 510 563 b 576 700 538 658 554 688 l 589 707 l 589 729 l 417 729 l 417 707 l 438 700 b 478 647 471 689 478 672 b 460 549 478 619 471 590 l 396 315 l 392 315 l 315 558 b 297 644 304 596 297 618 b 340 700 297 676 315 692 l 361 707 l 361 729 l -10 729 l -10 707 l 3 701 b 64 582 19 694 31 676 l 285 -57 z "},"ý":{"ha":582,"x_min":0,"x_max":0,"o":"m 235 790 l 417 822 b 515 911 482 833 515 860 b 429 1004 515 961 482 1004 b 331 936 382 1004 357 971 l 229 803 z m 279 -76 b 203 -203 250 -179 228 -203 b 178 -171 188 -203 183 -194 b 104 -106 168 -128 149 -106 b 28 -186 57 -106 28 -136 b 142 -285 28 -244 68 -285 b 322 -100 226 -285 281 -246 l 510 563 b 576 700 538 658 554 688 l 589 707 l 589 729 l 417 729 l 417 707 l 438 700 b 478 647 471 689 478 672 b 460 549 478 619 471 590 l 396 315 l 392 315 l 315 558 b 297 644 304 596 297 618 b 340 700 297 676 315 692 l 361 707 l 361 729 l -10 729 l -10 707 l 3 701 b 64 582 19 694 31 676 l 285 -57 z "},"ÿ":{"ha":582,"x_min":0,"x_max":0,"o":"m 225 793 b 324 894 281 793 324 831 b 225 994 324 956 282 994 b 128 894 169 994 128 956 b 225 793 128 831 169 793 z m 450 793 b 549 894 506 793 549 831 b 450 994 549 956 507 994 b 353 894 394 994 353 956 b 450 793 353 831 394 793 z m 279 -76 b 203 -203 250 -179 228 -203 b 178 -171 188 -203 183 -194 b 104 -106 168 -128 149 -106 b 28 -186 57 -106 28 -136 b 142 -285 28 -244 68 -285 b 322 -100 226 -285 281 -246 l 510 563 b 576 700 538 658 554 688 l 589 707 l 589 729 l 417 729 l 417 707 l 438 700 b 478 647 471 689 478 672 b 460 549 478 619 471 590 l 396 315 l 392 315 l 315 558 b 297 644 304 596 297 618 b 340 700 297 676 315 692 l 361 707 l 361 729 l -10 729 l -10 707 l 3 701 b 64 582 19 694 31 676 l 285 -57 z "},"ŷ":{"ha":582,"x_min":0,"x_max":0,"o":"m 372 997 l 293 997 l 174 792 l 183 781 l 333 861 l 483 781 l 493 792 z m 279 -76 b 203 -203 250 -179 228 -203 b 178 -171 188 -203 183 -194 b 104 -106 168 -128 149 -106 b 28 -186 57 -106 28 -136 b 142 -285 28 -244 68 -285 b 322 -100 226 -285 281 -246 l 510 563 b 576 700 538 658 554 688 l 589 707 l 589 729 l 417 729 l 417 707 l 438 700 b 478 647 471 689 478 672 b 460 549 478 619 471 590 l 396 315 l 392 315 l 315 558 b 297 644 304 596 297 618 b 340 700 297 676 315 692 l 361 707 l 361 729 l -10 729 l -10 707 l 3 701 b 64 582 19 694 31 676 l 285 -57 z "},"ỳ":{"ha":582,"x_min":0,"x_max":0,"o":"m 446 790 l 451 803 l 350 936 b 251 1004 324 971 299 1004 b 165 911 199 1004 165 961 b 264 822 165 860 199 833 z m 279 -76 b 203 -203 250 -179 228 -203 b 178 -171 188 -203 183 -194 b 104 -106 168 -128 149 -106 b 28 -186 57 -106 28 -136 b 142 -285 28 -244 68 -285 b 322 -100 226 -285 281 -246 l 510 563 b 576 700 538 658 554 688 l 589 707 l 589 729 l 417 729 l 417 707 l 438 700 b 478 647 471 689 478 672 b 460 549 478 619 471 590 l 396 315 l 392 315 l 315 558 b 297 644 304 596 297 618 b 340 700 297 676 315 692 l 361 707 l 361 729 l -10 729 l -10 707 l 3 701 b 64 582 19 694 31 676 l 285 -57 z "},"ỵ":{"ha":582,"x_min":0,"x_max":0,"o":"m 279 -76 b 203 -203 250 -179 228 -203 b 178 -171 188 -203 183 -194 b 104 -106 168 -128 149 -106 b 28 -186 57 -106 28 -136 b 142 -285 28 -244 68 -285 b 322 -100 226 -285 281 -246 l 510 563 b 576 700 538 658 554 688 l 589 707 l 589 729 l 417 729 l 417 707 l 438 700 b 478 647 471 689 478 672 b 460 549 478 619 471 590 l 396 315 l 392 315 l 315 558 b 297 644 304 596 297 618 b 340 700 297 676 315 692 l 361 707 l 361 729 l -10 729 l -10 707 l 3 701 b 64 582 19 694 31 676 l 285 -57 z m 451 -265 b 556 -162 511 -265 556 -228 b 451 -60 556 -97 511 -60 b 347 -162 392 -60 347 -97 b 451 -265 347 -228 392 -265 z "},"ỷ":{"ha":582,"x_min":0,"x_max":0,"o":"m 358 792 l 358 797 b 504 942 358 835 504 857 b 367 1033 504 997 464 1033 b 236 954 300 1033 236 1006 b 282 910 236 928 256 910 b 338 964 313 910 329 921 b 363 1001 343 989 346 1001 b 394 968 381 1001 394 990 b 325 839 394 918 325 904 b 346 792 325 813 336 801 z m 279 -76 b 203 -203 250 -179 228 -203 b 178 -171 188 -203 183 -194 b 104 -106 168 -128 149 -106 b 28 -186 57 -106 28 -136 b 142 -285 28 -244 68 -285 b 322 -100 226 -285 281 -246 l 510 563 b 576 700 538 658 554 688 l 589 707 l 589 729 l 417 729 l 417 707 l 438 700 b 478 647 471 689 478 672 b 460 549 478 619 471 590 l 396 315 l 392 315 l 315 558 b 297 644 304 596 297 618 b 340 700 297 676 315 692 l 361 707 l 361 729 l -10 729 l -10 707 l 3 701 b 64 582 19 694 31 676 l 285 -57 z "},"ỹ":{"ha":582,"x_min":0,"x_max":0,"o":"m 299 963 b 181 790 243 963 210 907 l 199 783 b 263 835 218 818 233 835 b 425 813 308 835 382 813 b 540 985 485 813 511 867 l 522 993 b 460 940 503 956 489 940 b 299 963 415 940 347 963 z m 279 -76 b 203 -203 250 -179 228 -203 b 178 -171 188 -203 183 -194 b 104 -106 168 -128 149 -106 b 28 -186 57 -106 28 -136 b 142 -285 28 -244 68 -285 b 322 -100 226 -285 281 -246 l 510 563 b 576 700 538 658 554 688 l 589 707 l 589 729 l 417 729 l 417 707 l 438 700 b 478 647 471 689 478 672 b 460 549 478 619 471 590 l 396 315 l 392 315 l 315 558 b 297 644 304 596 297 618 b 340 700 297 676 315 692 l 361 707 l 361 729 l -10 729 l -10 707 l 3 701 b 64 582 19 694 31 676 l 285 -57 z "},"z":{"ha":549,"x_min":0,"x_max":0,"o":"m 14 0 l 514 0 l 535 244 l 514 244 b 439 96 483 168 461 125 b 297 44 413 61 379 44 l 261 44 l 261 50 l 531 678 l 531 729 l 44 729 l 31 490 l 51 490 b 129 635 85 571 101 603 b 253 685 163 674 186 685 l 285 685 l 285 679 l 14 50 z "},"ź":{"ha":549,"x_min":0,"x_max":0,"o":"m 183 790 l 365 822 b 464 911 431 833 464 860 b 378 1004 464 961 431 1004 b 279 936 331 1004 306 971 l 178 803 z m 14 0 l 514 0 l 535 244 l 514 244 b 439 96 483 168 461 125 b 297 44 413 61 379 44 l 261 44 l 261 50 l 531 678 l 531 729 l 44 729 l 31 490 l 51 490 b 129 635 85 571 101 603 b 253 685 163 674 186 685 l 285 685 l 285 679 l 14 50 z "},"ż":{"ha":549,"x_min":0,"x_max":0,"o":"m 290 778 b 403 888 356 778 403 818 b 290 999 403 958 356 999 b 178 888 225 999 178 958 b 290 778 178 818 225 778 z m 14 0 l 514 0 l 535 244 l 514 244 b 439 96 483 168 461 125 b 297 44 413 61 379 44 l 261 44 l 261 50 l 531 678 l 531 729 l 44 729 l 31 490 l 51 490 b 129 635 85 571 101 603 b 253 685 163 674 186 685 l 285 685 l 285 679 l 14 50 z "},"ž":{"ha":549,"x_min":0,"x_max":0,"o":"m 335 789 l 454 994 l 444 1006 l 294 925 l 144 1006 l 135 994 l 256 789 z m 14 0 l 514 0 l 535 244 l 514 244 b 439 96 483 168 461 125 b 297 44 413 61 379 44 l 261 44 l 261 50 l 531 678 l 531 729 l 44 729 l 31 490 l 51 490 b 129 635 85 571 101 603 b 253 685 163 674 186 685 l 285 685 l 285 679 l 14 50 z "},"ß":{"ha":731,"x_min":0,"x_max":0,"o":"m 332 0 l 332 24 l 319 28 b 292 110 294 36 292 42 l 292 821 b 388 1017 292 975 333 1017 b 461 899 444 1017 461 969 b 350 472 461 717 350 594 b 454 282 350 403 368 363 b 564 103 528 214 564 179 b 518 22 564 53 543 22 b 488 71 499 22 492 32 b 411 165 481 140 458 165 b 340 92 365 165 340 133 b 506 -17 340 25 389 -17 b 721 226 639 -17 721 85 b 551 493 721 358 656 418 b 439 601 460 560 439 579 b 642 875 439 657 642 711 b 399 1060 642 982 553 1060 b 60 735 189 1060 60 943 l 60 729 l -10 672 l -10 656 l 60 656 l 60 110 b 17 26 60 46 57 40 l 4 22 l 4 0 z "},"æ":{"ha":867,"x_min":0,"x_max":0,"o":"m 588 -17 b 833 111 717 -17 799 51 l 833 136 b 701 106 799 115 750 106 b 535 407 592 106 538 167 l 856 407 b 600 746 850 646 753 746 b 439 676 542 746 485 724 b 286 746 413 715 367 746 b 38 607 117 746 38 681 b 117 525 38 557 65 525 b 222 647 182 525 211 558 b 264 706 228 694 239 706 b 310 540 303 706 310 667 l 310 408 l 217 379 b 11 163 79 336 11 286 b 182 -17 11 49 72 -17 b 375 96 286 -17 344 40 b 588 -17 422 24 493 -17 z m 596 707 b 638 454 632 707 638 653 l 535 446 b 596 707 536 654 563 707 z m 299 82 b 235 215 253 82 235 119 b 293 351 235 310 242 343 l 310 354 b 361 121 311 261 328 182 b 299 82 351 101 326 82 z "},"ǽ":{"ha":867,"x_min":0,"x_max":0,"o":"m 338 790 l 519 822 b 618 911 585 833 618 860 b 532 1004 618 961 585 1004 b 433 936 485 1004 460 971 l 332 803 z m 588 -17 b 833 111 717 -17 799 51 l 833 136 b 701 106 799 115 750 106 b 535 407 592 106 538 167 l 856 407 b 600 746 850 646 753 746 b 439 676 542 746 485 724 b 286 746 413 715 367 746 b 38 607 117 746 38 681 b 117 525 38 557 65 525 b 222 647 182 525 211 558 b 264 706 228 694 239 706 b 310 540 303 706 310 667 l 310 408 l 217 379 b 11 163 79 336 11 286 b 182 -17 11 49 72 -17 b 375 96 286 -17 344 40 b 588 -17 422 24 493 -17 z m 596 707 b 638 454 632 707 638 653 l 535 446 b 596 707 536 654 563 707 z m 299 82 b 235 215 253 82 235 119 b 293 351 235 310 242 343 l 310 354 b 361 121 311 261 328 182 b 299 82 351 101 326 82 z "},"ð":{"ha":628,"x_min":0,"x_max":0,"o":"m 313 -17 b 611 425 469 -17 611 82 b 360 953 611 664 517 839 l 454 1013 l 442 1050 l 325 976 b 132 1065 268 1014 203 1043 l 125 1044 b 250 929 175 1010 217 969 l 131 853 l 144 815 l 274 897 b 350 733 311 844 336 788 b 293 746 340 740 319 746 b 15 365 171 746 15 643 b 313 -17 15 101 150 -17 z m 314 22 b 246 371 271 22 246 61 b 313 707 246 636 264 707 b 382 354 356 707 382 654 b 314 22 382 57 357 22 z "},"ø":{"ha":626,"x_min":0,"x_max":0,"o":"m 60 -58 l 103 -58 l 151 32 b 313 -17 199 -1 254 -17 b 611 368 461 -17 611 76 b 497 679 611 519 565 621 l 556 788 l 513 788 l 467 703 b 313 746 421 732 367 746 b 15 363 168 746 15 653 b 121 56 15 215 57 115 z m 246 381 b 311 707 246 656 269 707 b 376 533 344 707 368 683 l 246 290 b 246 381 246 318 246 347 z m 381 356 b 315 22 381 61 360 22 b 249 214 276 22 256 50 l 379 458 b 381 356 381 428 381 394 z "},"ǿ":{"ha":626,"x_min":0,"x_max":0,"o":"m 183 790 l 365 822 b 464 911 431 833 464 860 b 378 1004 464 961 431 1004 b 279 936 331 1004 306 971 l 178 803 z m 60 -58 l 103 -58 l 151 32 b 313 -17 199 -1 254 -17 b 611 368 461 -17 611 76 b 497 679 611 519 565 621 l 556 788 l 513 788 l 467 703 b 313 746 421 732 367 746 b 15 363 168 746 15 653 b 121 56 15 215 57 115 z m 246 381 b 311 707 246 656 269 707 b 376 533 344 707 368 683 l 246 290 b 246 381 246 318 246 347 z m 381 356 b 315 22 381 61 360 22 b 249 214 276 22 256 50 l 379 458 b 381 356 381 428 381 394 z "},"þ":{"ha":651,"x_min":0,"x_max":0,"o":"m 268 642 l 268 875 b 272 1043 268 968 272 1043 l 263 1051 l -22 1019 l -22 1003 l 10 982 b 36 876 38 964 36 950 l 36 -167 b -4 -250 36 -231 33 -237 l -17 -254 l -17 -276 l 328 -276 l 328 -254 l 308 -247 b 268 -167 267 -232 268 -228 l 268 -7 b 333 -17 288 -12 308 -17 b 633 406 500 -17 633 104 b 436 746 633 650 543 746 b 269 642 365 746 311 696 z m 321 22 b 268 72 296 22 279 44 l 268 603 b 310 614 281 610 293 614 b 397 347 367 614 397 563 b 321 22 397 76 367 22 z "},"đ":{"ha":669,"x_min":0,"x_max":0,"o":"m 611 833 l 664 833 l 664 874 l 611 874 b 615 1043 611 968 615 1043 l 607 1051 l 311 1019 l 311 1003 l 343 982 b 379 883 376 960 379 950 l 379 874 l 228 874 l 228 833 l 379 833 l 379 739 b 319 746 364 743 347 746 b 15 329 157 746 15 629 b 213 -17 15 93 100 -17 b 379 85 294 -17 350 35 l 382 85 l 381 -4 l 393 -17 l 667 29 l 667 50 l 640 63 b 611 154 613 75 611 82 z m 338 107 b 253 393 278 107 253 175 b 329 707 253 636 285 707 b 379 654 354 707 368 686 l 379 122 b 338 107 371 114 357 107 z "},"ħ":{"ha":688,"x_min":0,"x_max":0,"o":"m 292 633 l 292 833 l 426 833 l 426 874 l 292 874 l 292 875 b 296 1043 292 968 296 1043 l 286 1051 l 1 1019 l 1 1003 l 33 982 b 60 876 61 964 60 950 l 60 874 l -4 874 l -4 833 l 60 833 l 60 110 b 19 26 60 46 57 39 l 7 22 l 7 0 l 335 0 l 335 22 l 322 26 b 292 110 292 36 292 39 l 292 599 b 342 607 310 604 324 607 b 397 510 382 607 397 586 l 397 110 b 368 28 397 42 397 39 l 354 22 l 354 0 l 682 0 l 682 22 l 669 26 b 629 110 632 39 629 46 l 629 571 b 483 746 629 693 572 746 b 294 633 403 746 343 692 z "},"ı":{"ha":346,"x_min":0,"x_max":0,"o":"m -1 710 l -1 696 l 25 674 b 54 574 54 650 54 639 l 54 110 b 14 26 54 46 51 39 l 1 22 l 1 0 l 339 0 l 339 22 l 326 26 b 286 110 289 39 286 46 l 286 561 b 290 738 286 625 288 674 l 282 746 z "},"ĳ":{"ha":667,"x_min":0,"x_max":0,"o":"m 171 789 b 283 899 236 789 283 829 b 171 1010 283 969 236 1010 b 58 899 106 1010 58 969 b 171 789 58 829 106 789 z m 496 789 b 608 899 561 789 608 829 b 496 1010 608 969 561 1010 b 383 899 431 1010 383 969 b 496 789 383 829 431 789 z m -1 710 l -1 696 l 25 674 b 54 574 54 650 54 639 l 54 110 b 14 26 54 46 51 39 l 1 22 l 1 0 l 339 0 l 339 22 l 326 26 b 286 110 289 39 286 46 l 286 561 b 290 738 286 625 288 674 l 282 746 z m 617 561 b 621 738 617 625 618 674 l 613 746 l 329 710 l 329 696 l 356 674 b 385 574 385 650 385 639 l 385 -150 b 364 -240 385 -226 381 -240 b 343 -196 350 -240 347 -224 b 251 -78 331 -107 304 -78 b 174 -160 203 -78 174 -110 b 353 -283 174 -232 236 -283 b 617 31 506 -283 617 -156 z "},"ŀ":{"ha":522,"x_min":0,"x_max":0,"o":"m 342 0 l 342 22 l 329 26 b 289 110 292 39 289 46 l 289 875 b 293 1043 289 968 293 1043 l 283 1051 l -1 1019 l -1 1003 l 31 982 b 57 876 58 964 57 950 l 57 110 b 17 26 57 46 54 39 l 4 22 l 4 0 z m 432 399 b 544 508 497 399 544 439 b 432 619 544 579 497 619 b 319 508 367 619 319 579 b 432 399 319 439 367 399 z "},"ł":{"ha":347,"x_min":0,"x_max":0,"o":"m 342 0 l 342 22 l 329 26 b 289 110 292 39 289 46 l 289 642 l 339 676 l 339 729 l 289 694 l 289 875 b 293 1043 289 968 293 1043 l 283 1051 l -1 1019 l -1 1003 l 31 982 b 57 876 58 964 57 950 l 57 535 l 6 499 l 6 446 l 57 482 l 57 110 b 17 26 57 46 54 39 l 4 22 l 4 0 z "},"ŉ":{"ha":743,"x_min":0,"x_max":0,"o":"m -168 619 b 72 842 -47 629 72 708 b -49 979 72 921 35 979 b -164 871 -119 979 -164 938 b -86 781 -164 815 -132 781 b -26 808 -58 781 -36 793 b -171 639 -24 733 -87 663 z m 390 0 l 390 22 l 378 26 b 347 110 347 36 347 39 l 347 599 b 397 607 365 604 379 607 b 453 510 436 607 453 586 l 453 110 b 424 28 453 42 453 39 l 410 22 l 410 0 l 738 0 l 738 22 l 725 26 b 685 110 688 39 685 46 l 685 571 b 539 746 685 693 631 746 b 346 633 458 746 397 692 l 343 633 l 343 738 l 336 746 l 60 710 l 60 696 l 86 674 b 115 574 115 650 115 639 l 115 110 b 75 26 115 46 113 39 l 63 22 l 63 0 z "},"ŋ":{"ha":665,"x_min":0,"x_max":0,"o":"m 624 33 l 624 571 b 478 746 624 693 569 746 b 285 633 397 746 336 692 l 282 633 l 282 738 l 275 746 l -1 710 l -1 696 l 25 674 b 54 574 54 650 54 639 l 54 110 b 14 26 54 46 51 39 l 1 22 l 1 0 l 329 0 l 329 22 l 317 26 b 286 110 286 36 286 39 l 286 599 b 336 607 304 604 318 607 b 392 510 375 607 392 586 l 392 -150 b 371 -240 392 -226 388 -240 b 350 -196 357 -240 354 -224 b 263 -85 338 -107 314 -85 b 176 -162 208 -85 176 -118 b 360 -283 176 -240 243 -283 b 624 33 513 -283 624 -153 z "},"œ":{"ha":935,"x_min":0,"x_max":0,"o":"m 313 -17 b 486 67 375 -17 438 8 b 656 -17 526 13 582 -17 b 901 111 785 -17 867 51 l 901 136 b 769 106 867 115 818 106 b 603 407 660 106 606 167 l 924 407 b 668 746 918 647 821 746 b 497 653 603 746 542 715 b 313 746 447 718 381 746 b 15 363 168 746 15 653 b 313 -17 15 90 158 -17 z m 246 381 b 311 707 246 656 269 707 b 381 356 356 707 381 667 b 315 22 381 61 360 22 b 246 381 265 22 246 67 z m 664 707 b 706 454 700 707 706 654 l 603 446 b 664 707 604 656 631 707 z "},"ŧ":{"ha":406,"x_min":0,"x_max":0,"o":"m 217 -17 b 399 71 307 -17 364 22 l 399 93 b 340 86 386 90 364 86 b 276 175 286 86 276 106 l 276 454 l 388 454 l 388 503 l 276 503 l 276 656 l 385 656 l 392 729 l 276 729 l 276 921 l 217 921 b -4 672 175 819 83 717 l -4 656 l 44 656 l 44 503 l -6 503 l -6 454 l 44 454 l 44 161 b 217 -17 44 29 115 -17 z "},"ȷ":{"ha":333,"x_min":0,"x_max":0,"o":"m 283 563 b 288 739 283 626 285 675 l 279 747 l -4 711 l -4 697 l 22 675 b 51 575 51 651 51 640 l 51 -150 b 31 -240 51 -226 47 -240 b 10 -196 17 -240 14 -224 b -82 -78 -3 -107 -29 -78 b -160 -160 -131 -78 -160 -110 b 19 -283 -160 -232 -97 -283 b 283 31 172 -283 283 -156 z "},"ª":{"ha":481,"x_min":0,"x_max":0,"o":"m 135 383 b 247 453 192 383 225 414 l 250 453 b 360 383 263 403 304 383 b 472 426 411 383 449 407 l 472 443 b 436 453 461 443 447 446 b 419 525 421 463 419 481 l 419 794 b 233 972 419 917 357 972 b 38 863 82 972 38 913 b 107 803 38 825 64 803 b 185 897 154 803 176 824 b 207 933 188 924 189 933 b 242 810 233 933 242 915 l 242 714 l 178 692 b 14 522 65 653 14 619 b 135 383 14 435 61 383 z m 219 465 b 182 561 197 465 182 483 b 225 668 182 647 203 664 l 242 671 l 242 474 b 219 465 238 469 229 465 z "},"º":{"ha":508,"x_min":0,"x_max":0,"o":"m 254 386 b 492 682 365 386 492 467 b 254 974 492 882 365 974 b 17 679 144 974 17 893 b 254 386 17 479 140 386 z m 254 418 b 201 699 214 418 201 460 b 254 940 201 894 218 940 b 306 675 292 940 306 908 b 254 418 306 446 283 418 z "},"̀":{"ha":0,"x_min":0,"x_max":0,"o":"m -125 790 l -119 803 l -221 936 b -319 1004 -247 971 -272 1004 b -406 911 -372 1004 -406 961 b -307 822 -406 860 -372 833 z "},"́":{"ha":0,"x_min":0,"x_max":0,"o":"m -365 790 l -183 822 b -85 911 -118 833 -85 860 b -171 1004 -85 961 -118 1004 b -269 936 -218 1004 -243 971 l -371 803 z "},"̂":{"ha":0,"x_min":0,"x_max":0,"o":"m -207 997 l -286 997 l -406 792 l -396 781 l -246 861 l -96 781 l -86 792 z "},"̃":{"ha":0,"x_min":0,"x_max":0,"o":"m -307 963 b -425 790 -362 963 -396 907 l -407 783 b -343 835 -387 818 -372 835 b -181 813 -297 835 -224 813 b -65 985 -121 813 -94 867 l -83 993 b -146 940 -103 956 -117 940 b -307 963 -190 940 -258 963 z "},"̄":{"ha":0,"x_min":0,"x_max":0,"o":"m -392 832 l -100 832 l -100 914 l -392 914 z "},"̆":{"ha":0,"x_min":0,"x_max":0,"o":"m -246 785 b -110 989 -168 785 -118 865 l -119 992 b -246 913 -146 939 -185 913 b -372 992 -307 913 -346 939 l -382 989 b -246 785 -374 865 -324 785 z "},"̇":{"ha":0,"x_min":0,"x_max":0,"o":"m -131 778 b -18 888 -65 778 -18 818 b -131 999 -18 958 -65 999 b -243 888 -196 999 -243 958 b -131 778 -243 818 -196 778 z "},"̈":{"ha":0,"x_min":0,"x_max":0,"o":"m -358 793 b -260 894 -303 793 -260 831 b -358 994 -260 956 -301 994 b -456 894 -414 994 -456 956 b -358 793 -456 831 -414 793 z m -133 793 b -35 894 -78 793 -35 831 b -133 994 -35 956 -76 994 b -231 894 -189 994 -231 956 b -133 793 -231 831 -189 793 z "},"̉":{"ha":0,"x_min":0,"x_max":0,"o":"m -247 792 l -247 797 b -101 942 -247 835 -101 857 b -239 1033 -101 997 -142 1033 b -369 954 -306 1033 -369 1006 b -324 910 -369 928 -350 910 b -268 964 -293 910 -276 921 b -243 1001 -262 989 -260 1001 b -211 968 -225 1001 -211 990 b -281 839 -211 918 -281 904 b -260 792 -281 813 -269 801 z "},"̊":{"ha":0,"x_min":0,"x_max":0,"o":"m -364 908 b -247 790 -364 839 -310 790 b -131 908 -181 790 -131 839 b -247 1025 -131 976 -183 1025 b -364 908 -310 1025 -364 976 z m -318 908 b -247 990 -318 954 -292 990 b -176 908 -201 990 -176 954 b -247 825 -176 860 -201 825 b -318 908 -292 825 -318 860 z "},"̋":{"ha":0,"x_min":0,"x_max":0,"o":"m -390 786 l -268 853 b -207 946 -228 875 -207 908 b -286 1018 -207 985 -246 1018 b -360 938 -324 1018 -346 988 l -399 793 z m -208 786 l -86 853 b -25 946 -46 875 -25 908 b -103 1018 -25 985 -62 1018 b -178 938 -140 1018 -164 988 l -217 793 z "},"̌":{"ha":0,"x_min":0,"x_max":0,"o":"m -206 789 l -86 994 l -96 1006 l -246 925 l -396 1006 l -406 994 l -285 789 z "},"̣":{"ha":0,"x_min":0,"x_max":0,"o":"m -131 -265 b -26 -162 -71 -265 -26 -228 b -131 -60 -26 -97 -71 -60 b -235 -162 -190 -60 -235 -97 b -131 -265 -235 -228 -190 -265 z "},"̧":{"ha":0,"x_min":0,"x_max":0,"o":"m -347 -281 b -131 -144 -219 -268 -131 -228 b -231 -57 -131 -97 -164 -65 l -201 0 l -237 0 l -301 -137 l -299 -144 b -242 -181 -268 -146 -242 -154 b -347 -260 -242 -215 -283 -243 z "},"̨":{"ha":0,"x_min":0,"x_max":0,"o":"m -168 -285 b -68 -232 -121 -285 -89 -258 l -68 -212 b -97 -217 -78 -215 -87 -217 b -139 -156 -122 -217 -139 -197 b -99 0 -139 -93 -118 -35 l -118 0 b -272 -176 -208 -39 -272 -96 b -168 -285 -272 -242 -233 -285 z "},"¹":{"ha":294,"x_min":0,"x_max":0,"o":"m 4 419 l 292 419 l 292 442 l 275 447 b 240 518 247 457 240 458 l 240 961 l 217 969 b 7 843 178 911 85 858 l 7 819 l 53 803 l 53 518 b 21 447 53 458 49 457 l 4 442 z "},"²":{"ha":356,"x_min":0,"x_max":0,"o":"m 14 419 l 329 419 l 338 617 l 317 617 b 264 544 299 553 288 544 l 90 544 l 90 549 b 342 824 279 643 342 729 b 161 972 342 917 275 972 b 10 876 57 972 10 926 b 67 819 10 843 28 819 b 132 896 113 819 126 842 b 150 935 135 925 136 935 b 175 846 169 935 175 911 b 107 618 175 775 157 697 b 14 506 85 582 53 546 z "},"³":{"ha":382,"x_min":0,"x_max":0,"o":"m 158 408 b 363 576 293 408 363 486 b 224 715 363 644 326 706 l 224 719 b 343 840 304 732 343 776 b 174 972 343 935 275 972 b 24 883 67 972 24 929 b 78 829 24 851 42 829 b 143 906 125 829 135 858 b 160 936 147 931 150 936 b 182 839 178 936 182 908 b 119 725 182 758 164 725 l 93 725 l 93 688 l 122 688 b 192 561 172 688 192 654 b 157 446 192 485 183 446 b 136 478 144 446 139 450 b 71 568 132 543 114 568 b 10 506 32 568 10 544 b 158 408 10 451 60 408 z "}}}
